{"glyphs":{"0":{"ha":933,"x_min":71,"x_max":908,"o":"m 411 -14 q 229 29 306 -14 q 112 153 153 72 q 71 349 71 235 q 106 593 71 478 q 207 797 142 708 q 365 936 272 886 q 569 986 457 986 q 751 943 675 986 q 867 819 826 900 q 908 624 908 739 q 873 379 908 494 q 772 175 838 264 q 615 36 707 86 q 411 -14 524 -14 m 426 143 q 555 188 499 143 q 649 305 611 233 q 707 460 688 376 q 726 619 726 543 q 681 777 726 725 q 554 829 635 829 q 424 784 481 829 q 328 667 367 739 q 271 513 290 596 q 251 353 251 429 q 298 196 251 249 q 426 143 344 143 z "},"1":{"ha":529,"x_min":100,"x_max":518,"o":"m 143 0 l 322 896 l 386 821 l 100 821 l 131 972 l 518 972 l 324 0 l 143 0 z "},"2":{"ha":808,"x_min":-25,"x_max":797,"o":"m -25 0 l -1 121 l 457 483 q 552 569 518 532 q 600 640 586 607 q 614 708 614 674 q 573 799 614 765 q 447 832 532 832 q 322 805 382 832 q 217 728 263 778 l 94 825 q 255 942 156 899 q 472 986 354 986 q 647 953 574 986 q 758 865 719 921 q 797 733 797 808 q 777 624 797 678 q 710 513 757 569 q 578 390 664 457 l 186 83 l 151 153 l 722 153 l 690 0 l -25 0 z "},"3":{"ha":808,"x_min":-42,"x_max":831,"o":"m 307 -14 q 106 17 197 -14 q -42 103 15 49 l 49 240 q 163 170 93 197 q 318 143 233 143 q 447 163 394 143 q 528 221 500 183 q 556 310 556 258 q 509 403 556 372 q 368 435 463 435 l 281 435 l 306 558 l 646 888 l 664 821 l 139 821 l 169 972 l 831 972 l 808 851 l 467 521 l 379 575 l 419 575 q 592 544 521 575 q 700 456 663 514 q 738 319 738 399 q 683 148 738 224 q 532 29 629 72 q 307 -14 435 -14 z "},"4":{"ha":943,"x_min":19,"x_max":929,"o":"m 19 221 l 43 346 l 639 972 l 839 972 l 250 346 l 156 374 l 929 374 l 899 221 l 19 221 m 506 0 l 551 221 l 588 374 l 628 569 l 796 569 l 682 0 l 506 0 z "},"5":{"ha":811,"x_min":-22,"x_max":832,"o":"m 326 -14 q 126 17 217 -14 q -22 103 35 49 l 68 240 q 181 170 111 197 q 338 143 251 143 q 513 188 451 143 q 575 313 575 233 q 524 408 575 372 q 357 443 474 443 l 107 443 l 261 972 l 832 972 l 801 821 l 296 821 l 413 907 l 293 511 l 213 596 l 392 596 q 668 524 579 596 q 757 332 757 453 q 703 151 757 229 q 551 29 649 72 q 326 -14 454 -14 z "},"6":{"ha":871,"x_min":72,"x_max":894,"o":"m 454 -14 q 256 31 343 -14 q 121 166 169 76 q 72 386 72 256 q 92 551 72 467 q 155 714 113 636 q 264 853 197 792 q 424 951 331 915 q 638 986 517 986 q 781 971 713 986 q 894 925 849 956 l 813 788 q 726 824 774 814 q 626 835 679 835 q 497 814 554 835 q 398 757 440 793 q 326 674 356 721 q 281 572 296 626 q 261 464 265 518 q 258 403 260 424 q 257 367 257 383 l 192 394 q 269 515 222 471 q 378 580 317 560 q 511 600 440 600 q 667 567 596 600 q 783 472 739 535 q 826 319 826 410 q 778 143 826 218 q 645 27 729 68 q 454 -14 561 -14 m 450 128 q 592 175 536 128 q 647 307 647 222 q 597 419 647 379 q 465 458 546 458 q 358 436 404 458 q 286 375 311 414 q 261 286 261 336 q 283 209 261 244 q 347 151 304 174 q 450 128 390 128 z "},"7":{"ha":844,"x_min":96,"x_max":915,"o":"m 150 0 l 725 900 l 763 819 l 211 819 l 315 907 l 264 654 l 96 654 l 160 972 l 915 972 l 892 851 l 349 0 l 150 0 z "},"8":{"ha":906,"x_min":36,"x_max":883,"o":"m 417 -14 q 215 19 300 -14 q 83 113 129 53 q 36 256 36 174 q 85 417 36 350 q 227 520 135 485 q 449 556 319 556 q 655 525 569 556 q 785 436 740 494 q 831 299 831 378 q 778 133 831 203 q 633 24 726 63 q 417 -14 540 -14 m 421 128 q 588 173 526 128 q 649 297 649 218 q 594 402 649 364 q 444 440 540 440 q 279 394 340 440 q 218 271 218 349 q 273 167 218 206 q 421 128 328 128 m 510 460 q 319 488 397 460 q 199 570 240 517 q 158 696 158 624 q 206 851 158 786 q 340 951 254 915 q 535 986 425 986 q 717 956 639 986 q 840 869 796 925 q 883 738 883 814 q 838 588 883 650 q 710 492 793 525 q 510 460 626 460 m 511 571 q 653 611 600 571 q 706 718 706 651 q 658 811 706 778 q 531 844 610 844 q 390 805 443 844 q 338 694 338 765 q 383 605 338 639 q 511 571 429 571 z "},"9":{"ha":871,"x_min":24,"x_max":844,"o":"m 464 986 q 662 941 576 986 q 796 807 747 896 q 844 586 844 718 q 825 421 844 506 q 763 258 806 336 q 654 119 721 181 q 494 22 588 57 q 281 -14 401 -14 q 137 1 206 -14 q 24 47 68 17 l 106 185 q 192 148 144 158 q 292 138 239 138 q 421 158 364 138 q 520 215 478 179 q 592 299 563 251 q 637 400 621 346 q 656 508 653 454 q 660 569 660 549 q 661 606 661 589 l 725 578 q 649 458 697 503 q 540 392 601 413 q 408 372 478 372 q 251 405 324 372 q 135 500 179 438 q 92 653 92 563 q 140 830 92 756 q 273 945 189 904 q 464 986 357 986 m 467 844 q 326 797 382 844 q 271 665 271 750 q 321 553 271 593 q 451 514 371 514 q 560 536 514 514 q 631 597 606 558 q 657 686 657 636 q 635 763 657 728 q 571 822 613 799 q 467 844 529 844 z "},"\u0000":{"ha":0,"x_min":0,"x_max":0,"o":""},"\r":{"ha":383,"x_min":0,"x_max":0,"o":""}," ":{"ha":383,"x_min":0,"x_max":0,"o":""},"!":{"ha":386,"x_min":28,"x_max":417,"o":"m 115 322 l 210 972 l 417 972 l 253 322 l 115 322 m 133 -10 q 58 20 88 -10 q 28 90 28 50 q 62 173 28 140 q 143 206 96 206 q 219 177 189 206 q 249 106 249 149 q 233 48 249 75 q 192 6 218 21 q 133 -10 167 -10 z "},"\"":{"ha":574,"x_min":135,"x_max":615,"o":"m 135 588 l 199 972 l 347 972 l 261 588 l 135 588 m 403 588 l 467 972 l 615 972 l 529 588 l 403 588 z "},"#":{"ha":988,"x_min":7,"x_max":1029,"o":"m 476 0 l 788 972 l 918 972 l 607 0 l 476 0 m 7 236 l 32 363 l 908 363 l 883 236 l 7 236 m 117 0 l 428 972 l 557 972 l 246 0 l 117 0 m 128 610 l 151 736 l 1029 736 l 1004 610 l 128 610 z "},"$":{"ha":874,"x_min":-1,"x_max":883,"o":"m 283 -167 l 544 1139 l 657 1139 l 396 -167 l 283 -167 m 376 -14 q 228 1 300 -14 q 97 42 156 17 q -1 100 38 68 l 75 242 q 167 185 117 208 q 276 149 218 161 q 392 136 333 136 q 515 153 463 136 q 597 200 568 169 q 625 274 625 231 q 599 337 625 313 q 528 377 572 361 q 433 408 485 393 q 328 441 381 422 q 232 488 275 460 q 162 561 189 517 q 135 672 135 606 q 188 838 135 768 q 338 947 242 908 q 558 986 433 986 q 738 965 653 986 q 883 904 822 944 l 814 761 q 690 817 758 797 q 549 836 622 836 q 424 818 476 836 q 343 768 371 800 q 314 693 315 736 q 340 628 314 653 q 410 588 367 604 q 506 556 453 571 q 610 524 558 542 q 707 478 663 506 q 778 408 751 450 q 804 301 804 365 q 751 135 804 206 q 601 25 697 64 q 376 -14 504 -14 z "},"%":{"ha":1194,"x_min":110,"x_max":1131,"o":"m 124 0 l 974 972 l 1115 972 l 267 0 l 124 0 m 313 449 q 165 506 221 449 q 110 665 110 563 q 143 823 110 751 q 237 938 176 894 q 382 982 297 982 q 529 925 474 982 q 585 765 585 868 q 552 608 585 681 q 459 492 519 536 q 313 449 399 449 m 322 546 q 406 579 374 546 q 455 662 439 613 q 471 758 471 711 q 444 853 471 822 q 372 885 417 885 q 289 851 322 885 q 240 769 256 818 q 224 672 224 719 q 251 577 224 608 q 322 546 279 546 m 858 -10 q 711 47 767 -10 q 656 206 656 103 q 688 363 656 292 q 782 478 721 435 q 928 522 843 522 q 1075 465 1019 522 q 1131 306 1131 408 q 1098 149 1131 221 q 1005 33 1065 76 q 858 -10 944 -10 m 868 86 q 952 119 919 86 q 1001 202 985 153 q 1017 299 1017 251 q 990 394 1017 363 q 918 425 963 425 q 835 392 868 425 q 785 310 801 360 q 769 213 769 260 q 797 118 769 150 q 868 86 825 86 z "},"&":{"ha":981,"x_min":31,"x_max":935,"o":"m 363 -14 q 188 15 263 -14 q 72 98 114 44 q 31 224 31 151 q 74 365 31 303 q 199 481 117 428 q 397 582 281 533 q 553 654 499 622 q 627 715 607 686 q 647 779 647 744 q 621 837 647 814 q 546 860 594 860 q 444 826 482 860 q 406 736 406 793 q 423 672 406 706 q 482 589 440 638 l 899 96 l 783 -15 l 333 518 q 268 617 290 568 q 246 719 246 665 q 287 860 246 801 q 397 951 328 919 q 551 983 467 983 q 678 961 624 983 q 765 897 733 939 q 796 793 796 854 q 756 666 796 721 q 639 565 715 611 q 453 474 563 519 q 312 403 367 436 q 231 334 257 369 q 204 253 204 299 q 249 163 204 199 q 379 128 294 128 q 544 167 464 128 q 690 286 624 207 q 801 482 756 365 l 935 436 q 792 191 878 292 q 597 38 706 90 q 363 -14 488 -14 z "},"'":{"ha":306,"x_min":135,"x_max":347,"o":"m 135 588 l 199 972 l 347 972 l 261 588 l 135 588 z "},"(":{"ha":482,"x_min":94,"x_max":583,"o":"m 164 -269 q 128 -156 144 -221 q 103 -21 111 -92 q 94 121 94 50 q 116 372 94 247 q 178 614 138 496 q 276 838 218 732 q 408 1031 335 943 l 583 1031 q 447 821 506 932 q 346 593 388 710 q 283 355 304 476 q 261 111 261 233 q 277 -78 261 15 q 324 -269 293 -171 l 164 -269 z "},")":{"ha":482,"x_min":-53,"x_max":436,"o":"m -53 -269 q 85 -59 25 -169 q 185 168 144 51 q 248 406 226 285 q 269 650 269 528 q 254 839 269 746 q 207 1031 239 932 l 367 1031 q 403 917 388 982 q 428 782 419 853 q 436 640 436 711 q 415 390 436 515 q 353 147 393 265 q 255 -76 313 29 q 122 -269 197 -182 l -53 -269 z "},"*":{"ha":578,"x_min":82,"x_max":656,"o":"m 656 850 l 444 746 l 449 778 l 613 676 l 549 582 l 390 689 l 406 696 l 369 497 l 261 497 l 303 696 l 322 686 l 125 582 l 82 674 l 293 778 l 289 750 l 125 850 l 189 947 l 346 840 l 331 831 l 367 1031 l 474 1031 l 432 831 l 417 840 l 613 946 l 656 850 z "},"+":{"ha":821,"x_min":99,"x_max":768,"o":"m 297 174 l 421 799 l 569 799 l 446 174 l 297 174 m 99 417 l 126 556 l 768 556 l 740 417 l 99 417 z "},",":{"ha":339,"x_min":-49,"x_max":231,"o":"m -49 -210 l 93 97 l 111 -10 q 34 21 65 -10 q 3 99 3 51 q 39 187 3 153 q 124 221 75 221 q 200 191 169 221 q 231 113 231 161 q 222 64 231 88 q 190 6 213 40 l 63 -210 l -49 -210 z "},"-":{"ha":535,"x_min":67,"x_max":476,"o":"m 67 314 l 94 458 l 476 458 l 447 314 l 67 314 z "},".":{"ha":339,"x_min":3,"x_max":231,"o":"m 111 -10 q 34 21 65 -10 q 3 99 3 51 q 39 187 3 153 q 124 221 75 221 q 200 191 169 221 q 231 113 231 161 q 214 49 231 76 q 170 6 197 21 q 111 -10 143 -10 z "},"/":{"ha":515,"x_min":-146,"x_max":732,"o":"m -146 -139 l 568 1169 l 732 1169 l 18 -139 l -146 -139 z "},":":{"ha":339,"x_min":3,"x_max":336,"o":"m 217 519 q 140 550 171 519 q 108 628 108 581 q 144 716 108 682 q 229 750 181 750 q 306 720 275 750 q 336 642 336 690 q 319 578 336 606 q 276 535 303 550 q 217 519 249 519 m 111 -10 q 34 21 65 -10 q 3 99 3 51 q 39 187 3 153 q 124 221 75 221 q 200 191 169 221 q 231 113 231 161 q 214 49 231 76 q 170 6 197 21 q 111 -10 143 -10 z "},";":{"ha":339,"x_min":-49,"x_max":336,"o":"m 217 519 q 140 550 171 519 q 108 628 108 581 q 144 716 108 682 q 229 750 181 750 q 306 720 275 750 q 336 642 336 690 q 319 578 336 606 q 276 535 303 550 q 217 519 249 519 m -49 -210 l 93 97 l 111 -10 q 34 21 65 -10 q 3 99 3 51 q 39 187 3 153 q 124 221 75 221 q 200 191 169 221 q 231 113 231 161 q 222 64 231 88 q 190 6 213 40 l 63 -210 l -49 -210 z "},"<":{"ha":819,"x_min":97,"x_max":818,"o":"m 818 810 l 788 658 l 156 439 l 172 518 l 717 299 l 689 163 l 97 411 l 128 561 l 818 810 z "},"=":{"ha":819,"x_min":65,"x_max":801,"o":"m 133 583 l 161 724 l 801 724 l 772 583 l 133 583 m 65 249 l 93 388 l 733 388 l 706 249 l 65 249 z "},">":{"ha":819,"x_min":50,"x_max":769,"o":"m 50 163 l 81 314 l 708 533 l 692 454 l 153 674 l 179 810 l 769 561 l 739 411 l 50 163 z "},"?":{"ha":807,"x_min":94,"x_max":793,"o":"m 299 322 q 335 418 308 378 q 397 489 361 458 q 469 546 432 519 q 539 597 507 572 q 590 653 571 622 q 610 725 610 683 q 569 806 610 776 q 451 836 528 836 q 315 808 375 836 q 210 728 254 779 l 94 824 q 255 943 156 900 q 483 986 354 986 q 647 958 578 986 q 755 879 717 931 q 793 757 793 828 q 773 651 793 696 q 720 574 753 606 q 650 514 688 542 q 576 459 613 486 q 513 400 540 432 q 474 322 486 368 l 299 322 m 336 -10 q 260 20 290 -10 q 231 90 231 50 q 265 173 231 140 q 346 206 299 206 q 422 177 393 206 q 451 106 451 149 q 436 48 451 75 q 395 6 421 21 q 336 -10 369 -10 z "},"@":{"ha":1436,"x_min":51,"x_max":1383,"o":"m 621 -283 q 315 -216 443 -283 q 119 -29 188 -149 q 51 246 51 90 q 106 538 51 403 q 262 772 161 672 q 503 928 363 872 q 815 985 644 985 q 1123 921 996 985 q 1317 742 1250 857 q 1383 476 1383 628 q 1360 294 1383 381 q 1292 139 1336 207 q 1188 31 1249 71 q 1056 -8 1128 -8 q 910 45 957 -8 q 885 192 864 99 l 901 264 l 929 344 l 947 528 l 979 689 l 1135 689 l 1039 214 q 1044 144 1029 167 q 1097 121 1060 121 q 1169 153 1138 121 q 1222 237 1200 185 q 1256 350 1244 289 q 1268 469 1268 411 q 1215 683 1268 593 q 1059 822 1163 774 q 799 871 956 871 q 544 824 658 871 q 348 692 429 776 q 223 497 267 608 q 179 256 179 385 q 231 34 179 129 q 384 -115 283 -61 q 629 -168 485 -168 q 767 -155 700 -168 q 896 -114 835 -142 l 921 -224 q 778 -267 858 -251 q 621 -283 699 -283 m 638 -8 q 486 27 553 -8 q 381 130 419 63 q 342 288 342 197 q 370 447 342 374 q 449 577 399 521 q 570 665 500 633 q 725 697 640 697 q 928 622 858 697 q 1000 410 999 547 q 960 201 1001 296 q 840 49 919 106 q 638 -8 760 -8 m 678 126 q 803 161 749 126 q 888 256 857 196 q 919 390 919 315 q 870 518 919 474 q 736 563 821 563 q 615 530 668 563 q 531 438 561 497 q 500 300 500 379 q 548 172 500 217 q 678 126 596 126 z "},"A":{"ha":1040,"x_min":-81,"x_max":972,"o":"m -81 0 l 551 972 l 731 972 l 972 0 l 793 0 l 590 879 l 663 879 l 113 0 l -81 0 m 167 225 l 243 367 l 767 367 l 790 225 l 167 225 z "},"B":{"ha":1057,"x_min":57,"x_max":1017,"o":"m 57 0 l 251 972 l 700 972 q 935 917 853 972 q 1017 754 1017 861 q 970 600 1017 663 q 851 506 924 538 q 694 474 778 474 l 729 521 q 907 466 839 521 q 975 306 975 411 q 920 136 975 204 q 769 34 865 68 q 544 0 672 0 l 57 0 m 265 142 l 557 142 q 732 183 669 142 q 794 306 794 225 q 749 397 794 371 q 619 422 703 422 l 296 422 l 324 563 l 606 563 q 723 580 672 563 q 801 634 774 597 q 828 724 828 671 q 784 805 828 779 q 660 831 740 831 l 403 831 l 265 142 z "},"C":{"ha":1010,"x_min":78,"x_max":1046,"o":"m 550 -14 q 296 39 401 -14 q 134 185 190 92 q 78 401 78 279 q 120 631 78 525 q 242 817 163 738 q 431 941 321 896 q 676 986 540 986 q 899 944 803 986 q 1046 824 994 903 l 915 714 q 813 799 875 769 q 664 828 750 828 q 496 796 571 828 q 368 706 421 764 q 288 573 315 649 q 260 413 260 497 q 294 272 260 333 q 397 178 329 211 q 564 144 465 144 q 716 172 646 144 q 840 257 786 200 l 946 143 q 773 24 875 63 q 550 -14 671 -14 z "},"D":{"ha":1147,"x_min":57,"x_max":1117,"o":"m 57 0 l 251 972 l 644 972 q 899 923 793 972 q 1060 783 1004 874 q 1117 571 1117 693 q 1073 336 1117 442 q 949 156 1029 231 q 758 41 869 82 q 511 0 647 0 l 57 0 m 268 153 l 517 153 q 741 206 647 153 q 885 351 835 260 q 935 560 935 443 q 900 697 935 639 q 797 788 865 756 q 625 819 728 819 l 401 819 l 268 153 z "},"E":{"ha":931,"x_min":57,"x_max":961,"o":"m 336 568 l 821 568 l 792 419 l 307 419 l 336 568 m 267 151 l 817 151 l 786 0 l 57 0 l 251 972 l 961 972 l 931 821 l 400 821 l 267 151 z "},"F":{"ha":885,"x_min":57,"x_max":961,"o":"m 328 525 l 813 525 l 782 372 l 297 372 l 328 525 m 238 0 l 57 0 l 251 972 l 961 972 l 931 821 l 401 821 l 238 0 z "},"G":{"ha":1072,"x_min":78,"x_max":1072,"o":"m 550 -14 q 299 39 404 -14 q 135 185 193 92 q 78 401 78 279 q 120 631 78 525 q 242 817 163 738 q 433 941 321 896 q 682 986 544 986 q 914 944 815 986 q 1072 826 1013 903 l 942 718 q 827 802 893 776 q 674 828 761 828 q 503 797 579 828 q 372 708 426 765 q 289 576 318 651 q 260 413 260 500 q 294 272 260 333 q 399 178 329 211 q 571 144 468 144 q 715 170 647 144 q 842 247 782 196 l 913 106 q 745 17 840 49 q 550 -14 650 -14 m 749 133 l 821 497 l 992 497 l 913 106 l 749 133 z "},"H":{"ha":1125,"x_min":57,"x_max":1114,"o":"m 935 972 l 1114 972 l 919 0 l 740 0 l 935 972 m 238 0 l 57 0 l 251 972 l 432 972 l 238 0 m 838 417 l 308 417 l 338 571 l 869 571 l 838 417 z "},"I":{"ha":443,"x_min":57,"x_max":432,"o":"m 57 0 l 251 972 l 432 972 l 238 0 l 57 0 z "},"J":{"ha":732,"x_min":-62,"x_max":729,"o":"m 238 -14 q 55 24 132 -14 q -62 131 -22 61 l 58 247 q 133 167 88 196 q 240 139 179 139 q 357 179 311 139 q 419 308 403 219 l 522 821 l 175 821 l 206 972 l 729 972 l 599 318 q 527 123 575 196 q 407 18 479 50 q 238 -14 335 -14 z "},"K":{"ha":1013,"x_min":57,"x_max":1125,"o":"m 268 233 l 292 446 l 897 972 l 1125 972 l 606 521 l 489 425 l 268 233 m 57 0 l 251 972 l 431 972 l 236 0 l 57 0 m 747 0 l 449 443 l 572 565 l 949 0 l 747 0 z "},"L":{"ha":832,"x_min":57,"x_max":776,"o":"m 57 0 l 251 972 l 432 972 l 268 153 l 776 153 l 746 0 l 57 0 z "},"M":{"ha":1326,"x_min":57,"x_max":1315,"o":"m 57 0 l 251 972 l 399 972 l 682 260 l 606 261 l 1160 972 l 1315 972 l 1121 0 l 950 0 l 1090 708 l 1131 707 l 661 111 l 581 111 l 335 708 l 369 704 l 229 0 l 57 0 z "},"N":{"ha":1125,"x_min":57,"x_max":1114,"o":"m 57 0 l 251 972 l 400 972 l 843 218 l 786 225 l 935 972 l 1114 972 l 919 0 l 771 0 l 329 754 l 386 747 l 236 0 l 57 0 z "},"O":{"ha":1169,"x_min":78,"x_max":1139,"o":"m 543 -14 q 292 39 396 -14 q 133 185 188 92 q 78 401 78 279 q 119 631 78 525 q 240 817 161 738 q 429 941 319 896 q 674 986 539 986 q 924 933 819 986 q 1083 787 1028 881 q 1139 571 1139 693 q 1097 341 1139 447 q 975 156 1054 235 q 787 31 896 76 q 543 -14 678 -14 m 558 144 q 724 177 650 144 q 849 267 797 210 q 929 401 901 325 q 957 560 957 476 q 922 700 957 639 q 821 794 888 761 q 657 828 754 828 q 492 795 567 828 q 366 705 418 763 q 287 572 314 647 q 260 413 260 496 q 294 272 260 333 q 394 178 328 211 q 558 144 461 144 z "},"P":{"ha":1008,"x_min":57,"x_max":996,"o":"m 57 0 l 251 972 l 626 972 q 899 894 803 972 q 996 679 996 817 q 940 466 996 556 q 779 328 883 376 q 532 281 675 281 l 215 281 l 311 367 l 238 0 l 57 0 m 307 346 l 243 433 l 539 433 q 742 492 669 433 q 814 663 814 550 q 760 781 814 742 q 607 819 707 819 l 325 819 l 419 910 l 307 346 z "},"Q":{"ha":1169,"x_min":78,"x_max":1139,"o":"m 543 -14 q 292 39 396 -14 q 133 185 188 92 q 78 401 78 279 q 119 631 78 525 q 240 817 161 738 q 429 941 319 896 q 674 986 539 986 q 924 933 819 986 q 1083 787 1028 881 q 1139 571 1139 693 q 1097 341 1139 447 q 975 156 1054 235 q 787 31 896 76 q 543 -14 678 -14 m 819 -212 q 601 -152 696 -212 q 440 25 506 -92 l 640 67 q 720 -42 675 -10 q 826 -75 765 -75 q 919 -56 874 -75 q 999 -1 964 -37 l 1069 -112 q 959 -188 1025 -164 q 819 -212 893 -212 m 558 144 q 724 177 650 144 q 849 267 797 210 q 929 401 901 325 q 957 560 957 476 q 922 700 957 639 q 821 794 888 761 q 657 828 754 828 q 492 795 567 828 q 366 705 418 763 q 287 572 314 647 q 260 413 260 496 q 294 272 260 333 q 394 178 328 211 q 558 144 461 144 z "},"R":{"ha":1015,"x_min":57,"x_max":999,"o":"m 57 0 l 251 972 l 629 972 q 902 895 806 972 q 999 679 999 818 q 942 469 999 557 q 782 333 886 381 q 535 285 678 285 l 218 285 l 311 367 l 239 0 l 57 0 m 696 0 l 497 353 l 689 353 l 888 0 l 696 0 m 307 346 l 246 433 l 540 433 q 744 492 672 433 q 817 663 817 550 q 763 781 817 742 q 610 819 710 819 l 326 819 l 421 910 l 307 346 z "},"S":{"ha":874,"x_min":-1,"x_max":883,"o":"m 375 -14 q 227 1 299 -14 q 97 42 156 17 q -1 100 38 68 l 75 242 q 167 185 115 208 q 276 149 218 161 q 392 136 333 136 q 515 153 463 136 q 597 200 568 169 q 625 274 625 231 q 599 337 625 313 q 528 377 572 361 q 433 408 485 393 q 328 441 381 422 q 232 488 275 460 q 162 561 189 517 q 135 672 135 606 q 188 838 135 768 q 337 947 242 908 q 558 986 432 986 q 738 965 653 986 q 883 904 822 944 l 813 761 q 690 817 758 797 q 549 836 622 836 q 424 818 476 836 q 343 768 371 800 q 314 693 315 736 q 340 628 314 653 q 410 588 367 604 q 506 556 453 571 q 610 524 558 542 q 707 478 663 506 q 778 408 751 450 q 804 301 804 365 q 751 135 804 206 q 601 25 697 64 q 375 -14 504 -14 z "},"T":{"ha":836,"x_min":96,"x_max":950,"o":"m 254 0 l 418 819 l 96 819 l 126 972 l 950 972 l 919 819 l 597 819 l 435 0 l 254 0 z "},"U":{"ha":1096,"x_min":107,"x_max":1093,"o":"m 501 -14 q 272 40 364 -14 q 144 192 181 94 q 133 424 107 290 l 243 972 l 424 972 l 314 426 q 308 302 301 356 q 341 213 314 249 q 413 161 368 178 q 519 144 458 144 q 653 174 597 144 q 748 266 710 203 q 807 428 786 329 l 915 972 l 1093 972 l 982 415 q 818 94 939 201 q 501 -14 697 -14 z "},"V":{"ha":1013,"x_min":114,"x_max":1139,"o":"m 343 0 l 114 972 l 300 972 l 504 93 l 389 93 l 951 972 l 1139 972 l 521 0 l 343 0 z "},"W":{"ha":1589,"x_min":157,"x_max":1672,"o":"m 285 0 l 157 972 l 336 972 l 450 94 l 357 94 l 831 972 l 999 972 l 1111 94 l 1024 94 l 1493 972 l 1672 972 l 1157 0 l 964 0 l 856 792 l 910 792 l 478 0 l 285 0 z "},"X":{"ha":963,"x_min":-61,"x_max":1049,"o":"m -61 0 l 451 551 l 439 449 l 154 972 l 346 972 l 560 574 l 479 578 l 843 972 l 1049 972 l 567 450 l 571 553 l 874 0 l 681 0 l 454 424 l 536 419 l 156 0 l -61 0 z "},"Y":{"ha":918,"x_min":108,"x_max":1051,"o":"m 294 0 l 371 388 l 392 271 l 108 972 l 288 972 l 514 411 l 408 410 l 863 972 l 1051 972 l 490 269 l 551 388 l 474 0 l 294 0 z "},"Z":{"ha":921,"x_min":-19,"x_max":990,"o":"m -19 0 l 4 121 l 779 888 l 794 819 l 158 819 l 190 972 l 990 972 l 965 851 l 192 85 l 175 153 l 842 153 l 811 0 l -19 0 z "},"[":{"ha":488,"x_min":1,"x_max":593,"o":"m 1 -269 l 261 1031 l 593 1031 l 565 889 l 407 889 l 204 -128 l 363 -128 l 335 -269 l 1 -269 z "},"\\":{"ha":515,"x_min":103,"x_max":456,"o":"m 456 -139 l 307 -139 l 103 1169 l 253 1169 l 456 -139 z "},"]":{"ha":486,"x_min":-101,"x_max":489,"o":"m 229 -269 l -101 -269 l -75 -128 l 82 -128 l 285 889 l 128 889 l 156 1031 l 489 1031 l 229 -269 z "},"^":{"ha":821,"x_min":58,"x_max":694,"o":"m 58 197 l 421 775 l 563 775 l 694 197 l 565 197 l 453 726 l 526 726 l 200 197 l 58 197 z "},"_":{"ha":694,"x_min":-96,"x_max":621,"o":"m -96 -106 l -74 0 l 621 0 l 599 -106 l -96 -106 z "},"`":{"ha":833,"x_min":274,"x_max":628,"o":"m 478 843 l 274 1033 l 476 1033 l 628 843 l 478 843 z "},"a":{"ha":953,"x_min":47,"x_max":913,"o":"m 374 -10 q 209 29 283 -10 q 91 141 135 68 q 47 317 47 214 q 78 490 47 411 q 167 628 110 569 q 299 718 224 686 q 465 750 375 750 q 626 717 558 750 q 728 616 693 683 q 760 449 763 549 q 710 208 757 311 q 578 47 663 104 q 374 -10 493 -10 m 418 139 q 550 174 493 139 q 640 272 607 210 q 674 417 674 335 q 622 553 674 503 q 478 603 571 603 q 347 567 404 603 q 256 469 289 532 q 222 325 222 407 q 274 189 222 239 q 418 139 325 139 m 600 0 l 633 169 l 681 367 l 704 565 l 739 742 l 913 742 l 765 0 l 600 0 z "},"b":{"ha":953,"x_min":40,"x_max":906,"o":"m 40 0 l 246 1031 l 419 1031 l 328 569 l 274 376 l 246 201 l 206 0 l 40 0 m 489 -10 q 331 23 397 -10 q 228 119 264 56 q 192 278 192 183 q 217 469 192 382 q 294 619 243 556 q 416 716 344 682 q 579 750 488 750 q 744 712 671 750 q 862 601 818 674 q 906 425 906 528 q 874 251 906 331 q 786 114 843 172 q 653 23 729 56 q 489 -10 578 -10 m 475 139 q 607 174 550 139 q 697 272 664 210 q 731 417 731 335 q 679 553 731 503 q 535 603 628 603 q 403 567 461 603 q 313 469 346 532 q 279 325 279 407 q 331 189 279 239 q 475 139 382 139 z "},"c":{"ha":807,"x_min":47,"x_max":811,"o":"m 411 -10 q 219 31 301 -10 q 92 145 136 72 q 47 317 47 218 q 104 540 47 442 q 261 694 161 638 q 492 750 361 750 q 685 706 604 750 q 811 576 767 663 l 663 500 q 591 578 638 553 q 478 603 544 603 q 347 567 406 603 q 256 469 289 532 q 222 325 222 407 q 274 189 222 239 q 419 139 325 139 q 533 164 481 139 q 622 242 586 189 l 750 156 q 608 34 699 78 q 411 -10 518 -10 z "},"d":{"ha":954,"x_min":49,"x_max":971,"o":"m 375 -10 q 210 29 285 -10 q 92 141 135 68 q 49 317 49 214 q 80 490 49 411 q 168 628 111 569 q 301 718 225 686 q 465 750 376 750 q 624 718 557 750 q 726 622 690 686 q 763 464 763 558 q 736 273 763 360 q 660 123 710 186 q 538 25 610 60 q 375 -10 467 -10 m 419 139 q 551 174 493 139 q 641 272 608 210 q 674 417 674 335 q 623 553 674 503 q 478 603 572 603 q 347 567 406 603 q 256 469 289 532 q 224 325 224 407 q 274 189 224 239 q 419 139 325 139 m 600 0 l 635 169 l 681 367 l 704 565 l 797 1031 l 971 1031 l 765 0 l 600 0 z "},"e":{"ha":860,"x_min":47,"x_max":817,"o":"m 413 -10 q 219 31 301 -10 q 92 145 138 72 q 47 317 47 218 q 103 540 47 443 q 255 694 158 638 q 475 750 351 750 q 656 711 579 750 q 774 599 732 672 q 817 425 817 526 q 814 371 817 399 q 806 319 811 343 l 176 319 l 196 435 l 724 435 l 653 396 q 643 514 664 467 q 576 586 622 561 q 467 611 531 611 q 334 576 390 611 q 247 476 278 540 q 217 325 217 411 q 269 186 217 235 q 431 138 321 138 q 550 158 493 138 q 644 214 607 178 l 717 93 q 578 16 658 42 q 413 -10 499 -10 z "},"f":{"ha":513,"x_min":61,"x_max":682,"o":"m 63 0 l 221 789 q 319 973 244 906 q 519 1040 394 1040 q 610 1029 567 1040 q 682 996 653 1018 l 611 869 q 519 900 574 900 q 433 869 465 900 q 388 776 401 839 l 369 693 l 361 622 l 236 0 l 63 0 m 61 597 l 89 736 l 582 736 l 554 597 l 61 597 z "},"g":{"ha":964,"x_min":-7,"x_max":924,"o":"m 340 -279 q 146 -253 235 -279 q -7 -178 57 -228 l 83 -47 q 197 -108 126 -85 q 351 -131 268 -131 q 536 -77 474 -131 q 619 83 599 -24 l 650 236 l 696 393 l 724 561 l 758 742 l 924 742 l 799 113 q 643 -187 757 -94 q 340 -279 529 -279 m 383 33 q 213 70 288 33 q 94 176 138 107 q 51 340 51 244 q 83 502 51 428 q 170 632 114 576 q 303 719 226 688 q 472 750 381 750 q 621 722 553 750 q 729 630 689 693 q 767 464 769 567 q 718 244 764 342 q 588 90 672 146 q 383 33 503 33 m 422 181 q 554 213 497 181 q 644 303 611 246 q 676 433 676 361 q 625 558 676 513 q 482 603 574 603 q 350 570 407 603 q 260 481 293 538 q 226 350 226 424 q 278 226 226 271 q 422 181 331 181 z "},"h":{"ha":951,"x_min":40,"x_max":875,"o":"m 592 750 q 753 711 688 750 q 847 597 819 672 q 853 411 875 521 l 771 0 l 597 0 l 678 407 q 661 548 696 497 q 535 599 626 599 q 376 546 439 599 q 292 385 314 493 l 214 0 l 40 0 l 246 1031 l 419 1031 l 319 531 l 283 597 q 416 713 336 676 q 592 750 496 750 z "},"i":{"ha":401,"x_min":40,"x_max":432,"o":"m 40 0 l 188 742 l 361 742 l 214 0 l 40 0 m 314 864 q 238 892 267 864 q 210 961 210 921 q 242 1040 210 1008 q 328 1072 275 1072 q 403 1045 374 1072 q 432 979 432 1018 q 400 896 432 928 q 314 864 368 864 z "},"j":{"ha":410,"x_min":-249,"x_max":438,"o":"m -78 -279 q -172 -269 -129 -279 q -249 -236 -215 -258 l -176 -107 q -78 -136 -136 -136 q 1 -108 -28 -136 q 43 -17 29 -79 l 194 742 l 368 742 l 217 -14 q -78 -279 164 -279 m 319 864 q 244 892 272 864 q 215 961 215 921 q 248 1040 215 1008 q 333 1072 281 1072 q 408 1045 379 1072 q 438 979 438 1018 q 406 896 438 928 q 319 864 374 864 z "},"k":{"ha":868,"x_min":40,"x_max":940,"o":"m 221 171 l 258 385 l 704 742 l 940 742 l 524 406 l 431 338 l 221 171 m 40 0 l 246 1031 l 419 1031 l 214 0 l 40 0 m 607 0 l 400 335 l 519 468 l 808 0 l 607 0 z "},"l":{"ha":401,"x_min":40,"x_max":419,"o":"m 40 0 l 246 1031 l 419 1031 l 214 0 l 40 0 z "},"m":{"ha":1463,"x_min":40,"x_max":1385,"o":"m 1104 750 q 1267 711 1201 750 q 1358 597 1332 672 q 1363 411 1385 521 l 1281 0 l 1107 0 l 1189 407 q 1174 549 1207 499 q 1053 599 1140 599 q 905 547 963 599 q 825 386 847 494 l 747 0 l 574 0 l 656 407 q 640 549 674 499 q 519 599 607 599 q 372 547 429 599 q 292 385 314 494 l 214 0 l 40 0 l 188 742 l 353 742 l 313 538 l 283 597 q 412 713 335 676 q 581 750 489 750 q 708 726 653 750 q 798 652 764 701 q 838 531 832 603 l 754 549 q 901 699 811 649 q 1104 750 990 750 z "},"n":{"ha":951,"x_min":40,"x_max":875,"o":"m 592 750 q 754 711 688 750 q 848 597 821 672 q 853 411 875 521 l 771 0 l 597 0 l 678 407 q 661 548 696 497 q 535 599 626 599 q 376 546 439 599 q 292 385 314 493 l 214 0 l 40 0 l 188 742 l 353 742 l 311 531 l 283 597 q 416 713 336 676 q 592 750 496 750 z "},"o":{"ha":896,"x_min":47,"x_max":849,"o":"m 407 -10 q 217 31 299 -10 q 92 145 136 72 q 47 317 47 218 q 104 540 47 442 q 260 694 161 638 q 488 750 360 750 q 678 710 597 750 q 804 598 760 671 q 849 425 849 525 q 792 203 849 301 q 635 47 735 104 q 407 -10 536 -10 m 418 139 q 550 174 493 139 q 640 272 607 210 q 674 417 674 335 q 622 553 674 503 q 478 603 571 603 q 347 567 404 603 q 256 469 289 532 q 222 325 222 407 q 274 188 222 238 q 418 139 325 139 z "},"p":{"ha":953,"x_min":-14,"x_max":906,"o":"m 489 -10 q 328 24 396 -10 q 225 126 260 58 q 193 293 190 193 q 243 535 196 432 q 376 694 290 638 q 579 750 461 750 q 744 712 671 750 q 862 601 818 674 q 906 425 906 528 q 874 251 906 331 q 786 114 843 172 q 653 23 729 56 q 489 -10 578 -10 m -14 -269 l 188 742 l 353 742 l 319 572 l 274 375 l 249 176 l 160 -269 l -14 -269 m 475 139 q 607 174 550 139 q 697 272 664 210 q 731 417 731 335 q 679 553 731 503 q 535 603 628 603 q 403 567 461 603 q 313 469 346 532 q 279 325 279 407 q 331 189 279 239 q 475 139 382 139 z "},"q":{"ha":953,"x_min":47,"x_max":913,"o":"m 374 -10 q 209 29 283 -10 q 91 141 135 68 q 47 317 47 214 q 78 490 47 411 q 167 628 110 569 q 299 718 224 686 q 465 750 375 750 q 626 717 558 750 q 728 616 693 683 q 760 449 763 549 q 710 208 757 311 q 578 47 663 104 q 374 -10 493 -10 m 418 139 q 550 174 493 139 q 640 272 607 210 q 674 417 674 335 q 622 553 674 503 q 478 603 571 603 q 347 567 404 603 q 256 469 289 532 q 222 325 222 407 q 274 189 222 239 q 418 139 325 139 m 538 -269 l 625 172 l 679 365 l 708 547 l 747 742 l 913 742 l 711 -269 l 538 -269 z "},"r":{"ha":583,"x_min":40,"x_max":619,"o":"m 40 0 l 188 742 l 353 742 l 311 531 l 296 592 q 426 716 347 682 q 619 750 506 750 l 588 585 q 567 588 576 588 q 544 589 557 589 q 376 535 443 589 q 288 365 310 482 l 214 0 l 40 0 z "},"s":{"ha":715,"x_min":-19,"x_max":697,"o":"m 293 -10 q 111 14 196 -10 q -19 71 26 38 l 53 204 q 167 152 99 172 q 311 132 236 132 q 438 156 397 132 q 479 221 479 179 q 450 267 479 251 q 376 292 421 282 q 278 313 331 301 q 181 343 226 324 q 107 400 136 363 q 78 500 78 438 q 122 635 78 579 q 247 720 167 690 q 431 750 326 750 q 578 733 506 750 q 697 686 650 717 l 633 553 q 526 597 583 585 q 414 610 468 610 q 288 584 329 610 q 247 519 247 558 q 276 472 247 489 q 351 445 306 456 q 448 424 396 435 q 545 394 500 414 q 619 338 590 375 q 649 240 649 301 q 603 103 649 160 q 478 19 558 47 q 293 -10 397 -10 z "},"t":{"ha":589,"x_min":61,"x_max":582,"o":"m 318 -10 q 194 22 246 -10 q 119 110 142 53 q 111 247 96 168 l 243 906 l 417 906 l 285 249 q 296 165 276 197 q 369 133 315 133 q 420 141 394 133 q 467 163 446 149 l 497 35 q 411 0 458 10 q 318 -10 364 -10 m 61 597 l 89 736 l 582 736 l 554 597 l 61 597 z "},"u":{"ha":946,"x_min":78,"x_max":906,"o":"m 358 -10 q 199 30 265 -10 q 106 145 133 69 q 100 331 78 221 l 182 742 l 356 742 l 274 335 q 291 194 257 244 q 415 143 325 143 q 572 196 508 143 q 656 357 635 249 l 733 742 l 906 742 l 758 0 l 593 0 l 635 211 l 663 144 q 530 28 610 65 q 358 -10 450 -10 z "},"v":{"ha":803,"x_min":68,"x_max":883,"o":"m 239 0 l 68 742 l 239 742 l 386 88 l 299 88 l 708 742 l 883 742 l 418 0 l 239 0 z "},"w":{"ha":1281,"x_min":75,"x_max":1354,"o":"m 211 0 l 75 742 l 233 742 l 347 88 l 267 88 l 638 742 l 786 742 l 904 88 l 824 88 l 1190 742 l 1354 742 l 940 0 l 769 0 l 657 579 l 708 579 l 379 0 l 211 0 z "},"x":{"ha":796,"x_min":-64,"x_max":849,"o":"m -64 0 l 353 429 l 333 339 l 107 742 l 288 742 l 451 444 l 371 446 l 654 742 l 849 742 l 450 328 l 464 424 l 704 0 l 521 0 l 350 310 l 429 310 l 136 0 l -64 0 z "},"y":{"ha":803,"x_min":-135,"x_max":883,"o":"m 60 -279 q -49 -261 4 -279 q -135 -214 -103 -243 l -49 -87 q 5 -122 -25 -108 q 74 -135 35 -135 q 151 -112 117 -135 q 219 -33 185 -89 l 285 68 l 301 86 l 710 742 l 883 742 l 372 -65 q 274 -193 321 -146 q 176 -260 226 -240 q 60 -279 125 -279 m 250 -26 l 68 742 l 242 742 l 388 101 l 250 -26 z "},"z":{"ha":739,"x_min":-22,"x_max":756,"o":"m -22 0 l -1 110 l 558 663 l 589 603 l 110 603 l 138 742 l 756 742 l 733 632 l 175 79 l 142 139 l 646 139 l 618 0 l -22 0 z "},"{":{"ha":515,"x_min":64,"x_max":622,"o":"m 292 -269 q 174 -241 221 -269 q 108 -160 126 -212 q 104 -35 90 -107 l 160 243 q 153 294 167 278 q 113 310 140 310 l 64 310 l 92 451 l 139 451 q 188 468 169 451 q 214 518 207 485 l 272 810 q 361 978 296 925 q 551 1031 426 1031 l 622 1031 l 594 889 l 565 889 q 481 864 510 889 q 443 790 453 839 l 389 522 q 360 435 378 467 q 309 390 342 404 q 222 369 276 375 l 228 390 q 320 347 293 383 q 332 239 347 310 l 282 -14 q 292 -99 271 -71 q 360 -128 314 -128 l 390 -128 l 363 -269 l 292 -269 z "},"|":{"ha":421,"x_min":3,"x_max":422,"o":"m 3 -269 l 263 1031 l 422 1031 l 163 -269 l 3 -269 z "},"}":{"ha":515,"x_min":-103,"x_max":454,"o":"m -103 -269 l -75 -128 l -47 -128 q 38 -103 10 -128 q 76 -29 67 -78 l 131 239 q 160 326 142 294 q 212 372 179 357 q 296 392 244 388 l 292 371 q 199 415 225 378 q 188 522 172 451 l 238 775 q 227 860 249 832 q 160 889 206 889 l 129 889 l 157 1031 l 226 1031 q 344 1002 297 1031 q 410 921 392 974 q 414 796 429 868 l 360 518 q 366 468 353 485 q 407 451 379 451 l 454 451 l 426 310 l 379 310 q 331 294 350 310 q 306 243 313 278 l 246 -49 q 157 -216 222 -162 q -33 -269 92 -269 l -103 -269 z "},"~":{"ha":819,"x_min":76,"x_max":792,"o":"m 569 358 q 478 378 515 358 q 413 422 440 397 q 360 467 386 447 q 301 486 335 486 q 228 455 258 486 q 188 369 197 424 l 76 369 q 122 508 88 454 q 202 590 156 563 q 300 617 249 617 q 392 597 356 617 q 455 551 428 576 q 507 507 482 526 q 565 488 532 488 q 640 519 610 488 q 681 606 671 551 l 792 606 q 747 468 781 524 q 667 385 714 413 q 569 358 621 358 z "}," ":{"ha":383,"x_min":0,"x_max":0,"o":""},"¡":{"ha":386,"x_min":-26,"x_max":358,"o":"m -26 -214 l 135 419 l 271 419 l 179 -214 l -26 -214 m 243 536 q 166 565 196 536 q 136 635 136 593 q 151 694 136 668 q 194 735 167 719 q 253 750 221 750 q 329 721 300 750 q 358 650 358 692 q 326 569 358 601 q 243 536 293 536 z "},"¢":{"ha":807,"x_min":47,"x_max":811,"o":"m 411 -10 q 219 31 301 -10 q 92 145 136 72 q 47 317 47 218 q 104 540 47 442 q 261 694 161 638 q 492 750 361 750 q 685 706 604 750 q 811 576 767 663 l 663 500 q 591 578 638 553 q 478 603 544 603 q 347 567 406 603 q 256 469 289 532 q 222 325 222 407 q 274 189 222 239 q 419 139 325 139 q 533 164 481 139 q 622 242 586 189 l 750 156 q 608 34 699 78 q 411 -10 518 -10 m 276 -167 l 490 908 l 604 908 l 389 -167 l 276 -167 z "},"£":{"ha":913,"x_min":-32,"x_max":996,"o":"m 119 22 l 235 607 q 332 823 263 739 q 501 947 401 907 q 715 986 601 986 q 875 968 803 986 q 996 915 947 950 l 918 774 q 819 815 874 803 q 704 828 765 828 q 513 774 586 828 q 414 594 439 721 l 299 22 l 119 22 m -32 0 l -1 151 l 825 151 l 794 0 l -32 0 m 51 429 l 75 543 l 754 543 l 731 429 l 51 429 z "},"¤":{"ha":972,"x_min":53,"x_max":946,"o":"m 211 628 l 53 785 l 151 889 l 310 732 l 211 628 m 788 628 l 689 732 l 847 889 l 946 785 l 788 628 m 847 -7 l 689 150 l 788 254 l 946 97 l 847 -7 m 151 -7 l 53 97 l 211 254 l 310 150 l 151 -7 m 500 82 q 356 110 424 82 q 238 188 289 138 q 158 303 188 238 q 129 444 129 369 q 158 585 129 519 q 238 701 188 651 q 356 780 289 751 q 500 808 424 808 q 645 780 578 808 q 763 701 713 751 q 843 585 814 651 q 872 444 872 519 q 843 303 872 369 q 763 188 814 238 q 645 110 713 138 q 500 82 578 82 m 500 222 q 617 252 564 222 q 702 333 669 282 q 735 443 735 383 q 702 557 735 506 q 617 638 669 608 q 500 668 564 668 q 383 638 436 668 q 299 557 331 608 q 268 443 268 506 q 299 333 268 383 q 383 252 331 282 q 500 222 436 222 z "},"¥":{"ha":1001,"x_min":88,"x_max":1135,"o":"m 336 0 l 421 424 l 442 324 l 108 972 l 293 972 l 567 425 l 456 425 l 946 972 l 1135 972 l 540 307 l 601 424 l 517 0 l 336 0 m 88 144 l 107 242 l 840 242 l 821 144 l 88 144 m 126 336 l 146 433 l 879 433 l 860 336 l 126 336 z "},"¦":{"ha":421,"x_min":3,"x_max":422,"o":"m 165 544 l 263 1031 l 422 1031 l 325 544 l 165 544 m 3 -269 l 100 217 l 260 217 l 163 -269 l 3 -269 z "},"§":{"ha":710,"x_min":-49,"x_max":779,"o":"m 482 204 l 382 286 q 488 338 451 303 q 525 415 525 372 q 497 474 525 454 q 427 507 469 494 q 336 533 385 519 q 244 567 288 546 q 174 626 201 589 q 147 728 147 664 q 194 864 147 807 q 322 951 240 921 q 510 982 404 982 q 606 974 556 982 q 701 952 656 967 q 779 914 746 938 l 711 788 q 608 834 664 819 q 494 849 551 849 q 350 816 399 849 q 301 739 301 783 q 328 685 301 704 q 399 655 356 667 q 489 630 442 643 q 579 595 536 617 q 649 535 622 574 q 676 435 676 497 q 619 292 676 351 q 482 204 563 232 m 231 -147 q 75 -125 150 -147 q -49 -61 0 -103 l 18 64 q 125 6 69 25 q 250 -14 181 -14 q 381 19 335 -14 q 426 96 426 51 q 399 149 426 129 q 330 181 372 168 q 239 206 288 193 q 148 242 190 219 q 78 301 106 264 q 51 399 51 338 q 106 540 51 478 q 243 629 160 603 l 342 547 q 238 494 274 529 q 203 418 203 460 q 230 362 203 382 q 301 328 257 342 q 392 302 344 315 q 483 267 440 289 q 554 208 526 246 q 582 107 582 171 q 537 -28 582 31 q 413 -117 492 -86 q 231 -147 333 -147 z "},"¨":{"ha":833,"x_min":313,"x_max":750,"o":"m 660 858 q 604 879 626 858 q 582 933 582 900 q 608 1001 582 975 q 671 1026 635 1026 q 726 1006 703 1026 q 750 950 750 985 q 723 884 750 910 q 660 858 696 858 m 392 858 q 335 879 358 858 q 313 933 313 900 q 340 1001 313 975 q 400 1026 367 1026 q 457 1006 435 1026 q 479 950 479 985 q 452 884 479 910 q 392 858 425 858 z "},"©":{"ha":1103,"x_min":85,"x_max":1065,"o":"m 574 -4 q 381 33 469 -4 q 225 138 292 71 q 122 294 158 206 q 85 486 85 383 q 122 678 85 589 q 226 834 160 767 q 383 939 293 901 q 576 976 472 976 q 770 940 681 976 q 926 836 860 903 q 1028 681 992 769 q 1065 489 1065 593 q 1028 295 1065 385 q 923 138 990 206 q 767 33 856 71 q 574 -4 678 -4 m 572 72 q 736 104 661 72 q 867 192 811 136 q 953 325 922 249 q 985 489 985 401 q 954 651 985 576 q 869 782 924 726 q 740 869 814 838 q 576 900 665 900 q 412 869 488 900 q 281 781 336 838 q 194 649 225 724 q 164 486 164 574 q 194 324 164 399 q 281 192 225 249 q 411 103 336 135 q 572 72 486 72 m 589 203 q 438 239 504 203 q 333 339 371 275 q 296 486 296 403 q 333 633 296 569 q 438 733 371 697 q 589 769 504 769 q 728 737 668 769 q 819 649 789 704 l 719 582 q 662 635 696 618 q 588 651 628 651 q 507 631 543 651 q 450 574 471 611 q 429 486 429 538 q 450 398 429 435 q 507 341 471 361 q 588 321 543 321 q 662 338 628 321 q 719 390 696 354 l 819 326 q 728 236 789 269 q 589 203 668 203 z "},"ª":{"ha":568,"x_min":114,"x_max":600,"o":"m 417 592 l 435 681 l 429 697 l 461 851 q 446 923 472 897 q 364 949 419 949 q 283 937 325 949 q 213 906 242 925 l 182 985 q 275 1026 219 1011 q 386 1040 331 1040 q 548 990 496 1040 q 581 839 600 940 l 531 592 l 417 592 m 275 586 q 156 621 197 586 q 114 703 114 656 q 142 785 114 753 q 219 834 171 818 q 329 850 268 850 l 474 850 l 461 779 l 335 779 q 258 763 285 779 q 232 717 232 747 q 310 667 232 667 q 383 681 351 667 q 439 725 415 696 l 447 665 q 385 610 422 633 q 275 586 347 586 z "},"«":{"ha":743,"x_min":58,"x_max":758,"o":"m 201 103 l 58 371 l 308 640 l 469 640 l 172 308 l 182 447 l 354 103 l 201 103 m 490 103 l 347 371 l 597 640 l 758 640 l 461 308 l 471 447 l 643 103 l 490 103 z "},"¬":{"ha":822,"x_min":99,"x_max":768,"o":"m 768 557 l 693 172 l 544 172 l 593 418 l 99 418 l 126 557 l 768 557 z "},"­":{"ha":535,"x_min":67,"x_max":476,"o":"m 67 314 l 94 458 l 476 458 l 447 314 l 67 314 z "},"®":{"ha":1103,"x_min":85,"x_max":1065,"o":"m 574 -4 q 381 33 469 -4 q 225 138 292 71 q 122 294 158 206 q 85 486 85 383 q 122 678 85 589 q 226 834 160 767 q 383 939 293 901 q 576 976 472 976 q 770 940 681 976 q 926 836 860 903 q 1028 681 992 769 q 1065 489 1065 593 q 1028 295 1065 385 q 923 138 990 206 q 767 33 856 71 q 574 -4 678 -4 m 721 213 l 585 422 l 704 422 l 840 213 l 721 213 m 572 72 q 736 104 661 72 q 867 192 811 136 q 953 325 922 249 q 985 489 985 401 q 954 651 985 576 q 869 782 924 726 q 740 869 814 838 q 576 900 665 900 q 412 869 488 900 q 281 781 336 838 q 194 649 225 724 q 164 486 164 574 q 194 324 164 399 q 281 192 225 249 q 411 103 336 135 q 572 72 486 72 m 369 213 l 369 760 l 597 760 q 767 708 706 760 q 828 569 828 657 q 767 429 828 479 q 597 379 706 379 l 488 379 l 488 213 l 369 213 m 488 472 l 590 472 q 680 498 647 472 q 713 569 713 524 q 680 640 713 615 q 590 665 647 665 l 488 665 l 488 472 z "},"¯":{"ha":833,"x_min":279,"x_max":781,"o":"m 279 886 l 299 990 l 781 990 l 761 886 l 279 886 z "},"°":{"ha":581,"x_min":132,"x_max":603,"o":"m 367 518 q 247 549 301 518 q 163 633 193 581 q 132 750 132 686 q 163 868 132 815 q 247 952 193 921 q 367 983 301 983 q 487 952 433 983 q 572 868 540 921 q 603 751 603 815 q 572 633 603 686 q 487 549 540 581 q 367 518 433 518 m 368 610 q 438 628 407 610 q 488 678 469 647 q 507 750 507 710 q 488 823 507 790 q 438 874 469 856 q 368 892 407 892 q 296 874 328 892 q 246 824 264 856 q 228 750 228 792 q 246 678 228 710 q 296 628 264 646 q 368 610 328 610 z "},"±":{"ha":819,"x_min":15,"x_max":783,"o":"m 15 0 l 43 142 l 685 142 l 657 0 l 15 0 m 315 274 l 436 879 l 585 879 l 464 274 l 315 274 m 115 507 l 143 644 l 783 644 l 756 507 l 115 507 z "},"²":{"ha":597,"x_min":76,"x_max":610,"o":"m 76 454 l 92 532 l 383 742 q 445 790 424 769 q 475 830 467 811 q 483 867 483 849 q 456 918 483 900 q 375 936 428 936 q 289 921 328 936 q 221 878 250 906 l 144 940 q 248 1013 185 986 q 394 1040 311 1040 q 551 996 493 1040 q 610 881 610 951 q 600 821 610 850 q 559 759 590 792 q 464 681 528 726 l 226 508 l 199 553 l 569 553 l 550 454 l 76 454 z "},"³":{"ha":597,"x_min":69,"x_max":642,"o":"m 308 444 q 167 465 232 444 q 69 515 103 485 l 121 608 q 210 565 157 581 q 318 549 263 549 q 428 572 388 549 q 468 640 468 596 q 442 690 468 674 q 361 707 415 707 l 279 707 l 296 788 l 508 976 l 528 932 l 165 932 l 185 1031 l 642 1031 l 626 953 l 411 764 l 353 799 l 394 799 q 543 756 493 799 q 593 647 593 714 q 558 540 593 586 q 458 469 522 494 q 308 444 393 444 z "},"´":{"ha":833,"x_min":392,"x_max":810,"o":"m 392 843 l 601 1033 l 810 1033 l 547 843 l 392 843 z "},"µ":{"ha":953,"x_min":-14,"x_max":913,"o":"m -14 -269 l 188 742 l 361 742 l 281 335 q 297 193 263 243 q 422 143 332 143 q 577 196 514 143 q 663 357 640 249 l 739 742 l 913 742 l 765 0 l 603 0 l 644 211 l 671 150 q 593 59 639 94 q 499 7 547 24 q 403 -10 450 -10 q 268 18 321 -10 q 188 103 215 46 l 249 164 l 160 -269 l -14 -269 z "},"¶":{"ha":925,"x_min":100,"x_max":926,"o":"m 213 -139 l 343 515 q 219 544 275 518 q 132 617 164 569 q 100 733 100 665 q 149 901 100 836 q 284 999 197 967 q 482 1031 371 1031 l 926 1031 l 693 -139 l 550 -139 l 757 900 l 563 900 l 356 -139 l 213 -139 z "},"·":{"ha":394,"x_min":86,"x_max":314,"o":"m 194 271 q 117 301 149 271 q 86 378 86 332 q 122 467 86 433 q 206 501 158 501 q 284 472 254 501 q 314 393 314 442 q 297 330 314 357 q 253 287 281 303 q 194 271 226 271 z "},"¸":{"ha":833,"x_min":122,"x_max":458,"o":"m 249 -317 q 179 -309 211 -317 q 122 -287 147 -301 l 164 -206 q 210 -222 186 -217 q 260 -228 233 -228 q 322 -212 303 -228 q 342 -175 342 -197 q 326 -143 342 -154 q 276 -132 311 -132 l 233 -132 l 297 10 l 392 10 l 358 -68 q 433 -103 408 -75 q 458 -171 458 -131 q 398 -278 456 -239 q 249 -317 340 -317 z "},"¹":{"ha":597,"x_min":122,"x_max":554,"o":"m 278 468 l 381 986 l 428 935 l 232 935 l 250 1031 l 517 1031 l 404 468 l 278 468 m 122 454 l 140 550 l 554 550 l 536 454 l 122 454 z "},"º":{"ha":588,"x_min":125,"x_max":639,"o":"m 354 586 q 235 612 286 586 q 154 683 183 638 q 125 786 125 728 q 163 918 125 861 q 265 1008 200 975 q 411 1040 329 1040 q 531 1015 479 1040 q 610 944 582 989 q 639 840 639 899 q 601 709 639 767 q 500 619 564 651 q 354 586 436 586 m 364 685 q 444 704 408 685 q 499 757 479 724 q 518 835 518 790 q 485 913 518 885 q 401 942 453 942 q 319 922 354 942 q 265 867 285 901 q 246 792 246 833 q 278 714 246 743 q 364 685 310 685 z "},"»":{"ha":744,"x_min":-15,"x_max":686,"o":"m 254 640 l 397 371 l 146 103 l -15 103 l 283 433 l 274 296 l 100 640 l 254 640 m 543 640 l 686 371 l 435 103 l 274 103 l 572 433 l 563 296 l 389 640 l 543 640 z "},"¼":{"ha":1443,"x_min":111,"x_max":1383,"o":"m 249 0 l 1097 972 l 1240 972 l 390 0 l 249 0 m 821 128 l 836 208 l 1176 576 l 1318 576 l 976 208 l 917 226 l 1383 226 l 1364 128 l 821 128 m 1111 0 l 1138 128 l 1168 225 l 1189 333 l 1299 333 l 1232 0 l 1111 0 z "},"½":{"ha":1443,"x_min":111,"x_max":1365,"o":"m 249 0 l 1097 972 l 1240 972 l 390 0 l 249 0 m 832 0 l 847 78 l 1139 288 q 1201 336 1179 315 q 1231 376 1222 357 q 1239 413 1239 394 q 1211 464 1239 446 q 1131 482 1183 482 q 1044 467 1083 482 q 976 424 1006 451 l 900 486 q 1003 559 940 532 q 1150 586 1067 586 q 1307 542 1249 586 q 1365 426 1365 497 q 1356 367 1365 396 q 1315 305 1346 338 q 1219 226 1283 272 l 982 54 l 954 99 l 1325 99 l 1306 0 l 832 0 z "},"¾":{"ha":1443,"x_min":58,"x_max":1383,"o":"m 249 0 l 1097 972 l 1240 972 l 390 0 l 249 0 m 821 128 l 836 208 l 1176 576 l 1318 576 l 976 208 l 917 226 l 1383 226 l 1364 128 l 821 128 m 1111 0 l 1138 128 l 1168 225 l 1189 333 l 1299 333 l 1232 0 l 1111 0 z "},"¿":{"ha":807,"x_min":17,"x_max":715,"o":"m 326 -228 q 163 -199 232 -228 q 55 -121 93 -171 q 17 -4 17 -71 q 37 99 17 56 q 89 175 57 142 q 158 235 121 208 q 233 289 196 263 q 297 347 269 315 q 335 419 324 379 l 511 419 q 474 328 501 367 q 413 260 447 290 q 340 203 378 229 q 272 151 303 178 q 220 95 240 125 q 200 25 200 65 q 240 -49 200 -19 q 358 -78 281 -78 q 494 -49 435 -78 q 599 31 554 -21 l 715 -65 q 554 -184 654 -140 q 326 -228 454 -228 m 463 536 q 387 565 417 536 q 357 635 357 593 q 372 694 357 668 q 414 735 388 721 q 472 750 440 750 q 549 721 519 750 q 579 651 579 692 q 546 569 579 601 q 463 536 513 536 z "},"À":{"ha":1040,"x_min":-81,"x_max":972,"o":"m -81 0 l 551 972 l 731 972 l 972 0 l 793 0 l 590 879 l 663 879 l 113 0 l -81 0 m 167 225 l 243 367 l 767 367 l 790 225 l 167 225 z "},"Á":{"ha":1040,"x_min":-81,"x_max":972,"o":"m -81 0 l 551 972 l 731 972 l 972 0 l 793 0 l 590 879 l 663 879 l 113 0 l -81 0 m 167 225 l 243 367 l 767 367 l 790 225 l 167 225 z "},"Â":{"ha":1040,"x_min":-81,"x_max":972,"o":"m -81 0 l 551 972 l 731 972 l 972 0 l 793 0 l 590 879 l 663 879 l 113 0 l -81 0 m 167 225 l 243 367 l 767 367 l 790 225 l 167 225 z "},"Ã":{"ha":1040,"x_min":-81,"x_max":972,"o":"m -81 0 l 551 972 l 731 972 l 972 0 l 793 0 l 590 879 l 663 879 l 113 0 l -81 0 m 167 225 l 243 367 l 767 367 l 790 225 l 167 225 z "},"Ä":{"ha":1040,"x_min":-81,"x_max":972,"o":"m -81 0 l 551 972 l 731 972 l 972 0 l 793 0 l 590 879 l 663 879 l 113 0 l -81 0 m 167 225 l 243 367 l 767 367 l 790 225 l 167 225 z "},"Å":{"ha":1040,"x_min":-81,"x_max":972,"o":"m -81 0 l 551 972 l 731 972 l 972 0 l 793 0 l 590 879 l 663 879 l 113 0 l -81 0 m 167 225 l 243 367 l 767 367 l 790 225 l 167 225 m 688 1054 q 606 1076 642 1054 q 548 1134 569 1099 q 526 1213 526 1169 q 548 1294 526 1257 q 606 1352 569 1331 q 688 1374 643 1374 q 772 1352 735 1374 q 830 1294 808 1331 q 851 1213 851 1257 q 830 1133 851 1169 q 772 1076 808 1097 q 688 1054 735 1054 m 689 1125 q 752 1150 728 1125 q 776 1213 776 1175 q 751 1277 776 1251 q 688 1303 726 1303 q 626 1278 651 1303 q 601 1213 601 1253 q 626 1150 601 1175 q 689 1125 650 1125 z "},"Æ":{"ha":1478,"x_min":-82,"x_max":1507,"o":"m -82 0 l 669 972 l 860 972 l 833 824 l 676 824 l 804 899 l 118 0 l -82 0 m 235 225 l 268 367 l 739 367 l 713 225 l 235 225 m 606 0 l 800 972 l 1507 972 l 1476 821 l 947 821 l 814 151 l 1363 151 l 1332 0 l 606 0 m 851 419 l 883 568 l 1368 568 l 1338 419 l 851 419 z "},"Ç":{"ha":1010,"x_min":78,"x_max":1046,"o":"m 550 -14 q 296 39 401 -14 q 134 185 190 92 q 78 401 78 279 q 120 631 78 525 q 242 817 163 738 q 431 941 321 896 q 676 986 540 986 q 899 944 803 986 q 1046 824 994 903 l 915 714 q 813 799 875 769 q 664 828 750 828 q 496 796 571 828 q 368 706 421 764 q 288 573 315 649 q 260 413 260 497 q 294 272 260 333 q 397 178 329 211 q 564 144 465 144 q 716 172 646 144 q 840 257 786 200 l 946 143 q 773 24 875 63 q 550 -14 671 -14 m 401 -317 q 332 -309 364 -317 q 275 -287 300 -301 l 317 -206 q 363 -222 339 -217 q 413 -228 386 -228 q 475 -212 456 -228 q 494 -175 494 -197 q 479 -143 494 -154 q 429 -132 464 -132 l 386 -132 l 450 10 l 544 10 l 511 -68 q 586 -103 561 -75 q 611 -171 611 -131 q 551 -278 608 -239 q 401 -317 493 -317 z "},"È":{"ha":931,"x_min":57,"x_max":961,"o":"m 336 568 l 821 568 l 792 419 l 307 419 l 336 568 m 267 151 l 817 151 l 786 0 l 57 0 l 251 972 l 961 972 l 931 821 l 400 821 l 267 151 z "},"É":{"ha":931,"x_min":57,"x_max":961,"o":"m 336 568 l 821 568 l 792 419 l 307 419 l 336 568 m 267 151 l 817 151 l 786 0 l 57 0 l 251 972 l 961 972 l 931 821 l 400 821 l 267 151 z "},"Ê":{"ha":931,"x_min":57,"x_max":961,"o":"m 336 568 l 821 568 l 792 419 l 307 419 l 336 568 m 267 151 l 817 151 l 786 0 l 57 0 l 251 972 l 961 972 l 931 821 l 400 821 l 267 151 z "},"Ë":{"ha":931,"x_min":57,"x_max":961,"o":"m 336 568 l 821 568 l 792 419 l 307 419 l 336 568 m 267 151 l 817 151 l 786 0 l 57 0 l 251 972 l 961 972 l 931 821 l 400 821 l 267 151 z "},"Ì":{"ha":443,"x_min":57,"x_max":474,"o":"m 57 0 l 251 972 l 432 972 l 238 0 l 57 0 z "},"Í":{"ha":443,"x_min":57,"x_max":656,"o":"m 57 0 l 251 972 l 432 972 l 238 0 l 57 0 z "},"Î":{"ha":443,"x_min":57,"x_max":622,"o":"m 57 0 l 251 972 l 432 972 l 238 0 l 57 0 z "},"Ï":{"ha":443,"x_min":57,"x_max":596,"o":"m 57 0 l 251 972 l 432 972 l 238 0 l 57 0 z "},"Ð":{"ha":1161,"x_min":18,"x_max":1131,"o":"m 71 0 l 265 972 l 658 972 q 913 923 807 972 q 1074 783 1018 874 q 1131 571 1131 693 q 1087 336 1131 442 q 963 156 1043 231 q 772 41 883 82 q 525 0 661 0 l 71 0 m 282 153 l 531 153 q 755 206 661 153 q 899 351 849 260 q 949 560 949 443 q 914 697 949 639 q 810 788 879 756 q 639 819 742 819 l 415 819 l 282 153 m 18 428 l 46 561 l 624 561 l 596 428 l 18 428 z "},"Ñ":{"ha":1125,"x_min":57,"x_max":1114,"o":"m 57 0 l 251 972 l 400 972 l 843 218 l 786 225 l 935 972 l 1114 972 l 919 0 l 771 0 l 329 754 l 386 747 l 236 0 l 57 0 z "},"Ò":{"ha":1169,"x_min":78,"x_max":1139,"o":"m 543 -14 q 292 39 396 -14 q 133 185 188 92 q 78 401 78 279 q 119 631 78 525 q 240 817 161 738 q 429 941 319 896 q 674 986 539 986 q 924 933 819 986 q 1083 787 1028 881 q 1139 571 1139 693 q 1097 341 1139 447 q 975 156 1054 235 q 787 31 896 76 q 543 -14 678 -14 m 558 144 q 724 177 650 144 q 849 267 797 210 q 929 401 901 325 q 957 560 957 476 q 922 700 957 639 q 821 794 888 761 q 657 828 754 828 q 492 795 567 828 q 366 705 418 763 q 287 572 314 647 q 260 413 260 496 q 294 272 260 333 q 394 178 328 211 q 558 144 461 144 z "},"Ó":{"ha":1169,"x_min":78,"x_max":1139,"o":"m 543 -14 q 292 39 396 -14 q 133 185 188 92 q 78 401 78 279 q 119 631 78 525 q 240 817 161 738 q 429 941 319 896 q 674 986 539 986 q 924 933 819 986 q 1083 787 1028 881 q 1139 571 1139 693 q 1097 341 1139 447 q 975 156 1054 235 q 787 31 896 76 q 543 -14 678 -14 m 558 144 q 724 177 650 144 q 849 267 797 210 q 929 401 901 325 q 957 560 957 476 q 922 700 957 639 q 821 794 888 761 q 657 828 754 828 q 492 795 567 828 q 366 705 418 763 q 287 572 314 647 q 260 413 260 496 q 294 272 260 333 q 394 178 328 211 q 558 144 461 144 z "},"Ô":{"ha":1169,"x_min":78,"x_max":1139,"o":"m 543 -14 q 292 39 396 -14 q 133 185 188 92 q 78 401 78 279 q 119 631 78 525 q 240 817 161 738 q 429 941 319 896 q 674 986 539 986 q 924 933 819 986 q 1083 787 1028 881 q 1139 571 1139 693 q 1097 341 1139 447 q 975 156 1054 235 q 787 31 896 76 q 543 -14 678 -14 m 558 144 q 724 177 650 144 q 849 267 797 210 q 929 401 901 325 q 957 560 957 476 q 922 700 957 639 q 821 794 888 761 q 657 828 754 828 q 492 795 567 828 q 366 705 418 763 q 287 572 314 647 q 260 413 260 496 q 294 272 260 333 q 394 178 328 211 q 558 144 461 144 z "},"Õ":{"ha":1169,"x_min":78,"x_max":1139,"o":"m 543 -14 q 292 39 396 -14 q 133 185 188 92 q 78 401 78 279 q 119 631 78 525 q 240 817 161 738 q 429 941 319 896 q 674 986 539 986 q 924 933 819 986 q 1083 787 1028 881 q 1139 571 1139 693 q 1097 341 1139 447 q 975 156 1054 235 q 787 31 896 76 q 543 -14 678 -14 m 558 144 q 724 177 650 144 q 849 267 797 210 q 929 401 901 325 q 957 560 957 476 q 922 700 957 639 q 821 794 888 761 q 657 828 754 828 q 492 795 567 828 q 366 705 418 763 q 287 572 314 647 q 260 413 260 496 q 294 272 260 333 q 394 178 328 211 q 558 144 461 144 z "},"Ö":{"ha":1169,"x_min":78,"x_max":1139,"o":"m 543 -14 q 292 39 396 -14 q 133 185 188 92 q 78 401 78 279 q 119 631 78 525 q 240 817 161 738 q 429 941 319 896 q 674 986 539 986 q 924 933 819 986 q 1083 787 1028 881 q 1139 571 1139 693 q 1097 341 1139 447 q 975 156 1054 235 q 787 31 896 76 q 543 -14 678 -14 m 558 144 q 724 177 650 144 q 849 267 797 210 q 929 401 901 325 q 957 560 957 476 q 922 700 957 639 q 821 794 888 761 q 657 828 754 828 q 492 795 567 828 q 366 705 418 763 q 287 572 314 647 q 260 413 260 496 q 294 272 260 333 q 394 178 328 211 q 558 144 461 144 z "},"×":{"ha":819,"x_min":138,"x_max":729,"o":"m 138 313 l 642 765 l 729 660 l 225 207 l 138 313 m 183 668 l 288 765 l 683 304 l 579 207 l 183 668 z "},"Ø":{"ha":1169,"x_min":8,"x_max":1207,"o":"m 543 -14 q 292 39 396 -14 q 133 185 188 92 q 78 401 78 279 q 119 631 78 525 q 240 817 161 738 q 429 941 319 896 q 674 986 539 986 q 924 933 819 986 q 1083 787 1028 881 q 1139 571 1139 693 q 1097 341 1139 447 q 975 156 1054 235 q 787 31 896 76 q 543 -14 678 -14 m 558 144 q 724 177 650 144 q 849 267 797 210 q 929 401 901 325 q 957 560 957 476 q 922 700 957 639 q 821 794 888 761 q 657 828 754 828 q 492 795 567 828 q 366 705 418 763 q 287 572 314 647 q 260 413 260 496 q 294 272 260 333 q 394 178 328 211 q 558 144 461 144 m 8 -97 l 1074 1069 l 1207 1069 l 143 -97 l 8 -97 z "},"Ù":{"ha":1096,"x_min":107,"x_max":1093,"o":"m 501 -14 q 272 40 364 -14 q 144 192 181 94 q 133 424 107 290 l 243 972 l 424 972 l 314 426 q 308 302 301 356 q 341 213 314 249 q 413 161 368 178 q 519 144 458 144 q 653 174 597 144 q 748 266 710 203 q 807 428 786 329 l 915 972 l 1093 972 l 982 415 q 818 94 939 201 q 501 -14 697 -14 z "},"Ú":{"ha":1096,"x_min":107,"x_max":1093,"o":"m 501 -14 q 272 40 364 -14 q 144 192 181 94 q 133 424 107 290 l 243 972 l 424 972 l 314 426 q 308 302 301 356 q 341 213 314 249 q 413 161 368 178 q 519 144 458 144 q 653 174 597 144 q 748 266 710 203 q 807 428 786 329 l 915 972 l 1093 972 l 982 415 q 818 94 939 201 q 501 -14 697 -14 z "},"Û":{"ha":1096,"x_min":107,"x_max":1093,"o":"m 501 -14 q 272 40 364 -14 q 144 192 181 94 q 133 424 107 290 l 243 972 l 424 972 l 314 426 q 308 302 301 356 q 341 213 314 249 q 413 161 368 178 q 519 144 458 144 q 653 174 597 144 q 748 266 710 203 q 807 428 786 329 l 915 972 l 1093 972 l 982 415 q 818 94 939 201 q 501 -14 697 -14 z "},"Ü":{"ha":1096,"x_min":107,"x_max":1093,"o":"m 501 -14 q 272 40 364 -14 q 144 192 181 94 q 133 424 107 290 l 243 972 l 424 972 l 314 426 q 308 302 301 356 q 341 213 314 249 q 413 161 368 178 q 519 144 458 144 q 653 174 597 144 q 748 266 710 203 q 807 428 786 329 l 915 972 l 1093 972 l 982 415 q 818 94 939 201 q 501 -14 697 -14 z "},"Ý":{"ha":918,"x_min":108,"x_max":1051,"o":"m 294 0 l 371 388 l 392 271 l 108 972 l 288 972 l 514 411 l 408 410 l 863 972 l 1051 972 l 490 269 l 551 388 l 474 0 l 294 0 z "},"Þ":{"ha":1008,"x_min":57,"x_max":975,"o":"m 232 168 l 261 319 l 517 319 q 720 378 647 319 q 793 549 793 436 q 739 667 793 628 q 586 706 685 706 l 340 706 l 368 858 l 610 858 q 879 782 783 858 q 975 565 975 706 q 919 352 975 442 q 758 215 863 263 q 511 168 653 168 l 232 168 m 57 0 l 251 972 l 432 972 l 238 0 l 57 0 z "},"ß":{"ha":950,"x_min":39,"x_max":892,"o":"m 500 -10 q 401 -1 449 -10 q 326 18 354 7 l 371 158 q 430 143 399 149 q 497 138 461 138 q 607 158 560 138 q 681 218 654 178 q 707 313 707 258 q 661 407 707 376 q 539 438 615 438 l 463 438 l 492 581 q 613 606 561 582 q 694 672 665 629 q 724 774 724 715 q 686 862 724 831 q 579 893 649 893 q 433 847 493 893 q 353 700 374 801 l 213 0 l 39 0 l 176 685 q 260 887 201 808 q 403 1003 318 965 q 593 1040 489 1040 q 751 1010 683 1040 q 855 924 818 981 q 892 792 892 868 q 848 634 892 704 q 726 523 804 564 q 546 482 649 482 l 597 558 q 744 531 681 558 q 845 450 808 503 q 882 321 882 397 q 832 147 882 221 q 696 31 782 72 q 500 -10 610 -10 z "},"à":{"ha":953,"x_min":47,"x_max":913,"o":"m 374 -10 q 209 29 283 -10 q 91 141 135 68 q 47 317 47 214 q 78 490 47 411 q 167 628 110 569 q 299 718 224 686 q 465 750 375 750 q 626 717 558 750 q 728 616 693 683 q 760 449 763 549 q 710 208 757 311 q 578 47 663 104 q 374 -10 493 -10 m 418 139 q 550 174 493 139 q 640 272 607 210 q 674 417 674 335 q 622 553 674 503 q 478 603 571 603 q 347 567 404 603 q 256 469 289 532 q 222 325 222 407 q 274 189 222 239 q 418 139 325 139 m 600 0 l 633 169 l 681 367 l 704 565 l 739 742 l 913 742 l 765 0 l 600 0 m 536 843 l 332 1033 l 535 1033 l 686 843 l 536 843 z "},"á":{"ha":953,"x_min":47,"x_max":913,"o":"m 374 -10 q 209 29 283 -10 q 91 141 135 68 q 47 317 47 214 q 78 490 47 411 q 167 628 110 569 q 299 718 224 686 q 465 750 375 750 q 626 717 558 750 q 728 616 693 683 q 760 449 763 549 q 710 208 757 311 q 578 47 663 104 q 374 -10 493 -10 m 418 139 q 550 174 493 139 q 640 272 607 210 q 674 417 674 335 q 622 553 674 503 q 478 603 571 603 q 347 567 404 603 q 256 469 289 532 q 222 325 222 407 q 274 189 222 239 q 418 139 325 139 m 600 0 l 633 169 l 681 367 l 704 565 l 739 742 l 913 742 l 765 0 l 600 0 m 450 843 l 660 1033 l 868 1033 l 606 843 l 450 843 z "},"â":{"ha":953,"x_min":47,"x_max":913,"o":"m 374 -10 q 209 29 283 -10 q 91 141 135 68 q 47 317 47 214 q 78 490 47 411 q 167 628 110 569 q 299 718 224 686 q 465 750 375 750 q 626 717 558 750 q 728 616 693 683 q 760 449 763 549 q 710 208 757 311 q 578 47 663 104 q 374 -10 493 -10 m 418 139 q 550 174 493 139 q 640 272 607 210 q 674 417 674 335 q 622 553 674 503 q 478 603 571 603 q 347 567 404 603 q 256 469 289 532 q 222 325 222 407 q 274 189 222 239 q 418 139 325 139 m 600 0 l 633 169 l 681 367 l 704 565 l 739 742 l 913 742 l 765 0 l 600 0 m 306 843 l 515 1033 l 674 1033 l 835 843 l 696 843 l 525 1003 l 660 1003 l 451 843 l 306 843 z "},"ã":{"ha":953,"x_min":47,"x_max":913,"o":"m 374 -10 q 209 29 283 -10 q 91 141 135 68 q 47 317 47 214 q 78 490 47 411 q 167 628 110 569 q 299 718 224 686 q 465 750 375 750 q 626 717 558 750 q 728 616 693 683 q 760 449 763 549 q 710 208 757 311 q 578 47 663 104 q 374 -10 493 -10 m 418 139 q 550 174 493 139 q 640 272 607 210 q 674 417 674 335 q 622 553 674 503 q 478 603 571 603 q 347 567 404 603 q 256 469 289 532 q 222 325 222 407 q 274 189 222 239 q 418 139 325 139 m 600 0 l 633 169 l 681 367 l 704 565 l 739 742 l 913 742 l 765 0 l 600 0 m 683 843 q 623 856 649 843 q 576 888 597 869 q 535 921 554 907 q 493 935 515 935 q 444 912 464 935 q 418 851 425 889 l 325 851 q 385 990 340 942 q 494 1038 429 1038 q 556 1024 529 1038 q 602 992 582 1010 q 642 960 622 974 q 683 946 661 946 q 733 969 714 946 q 758 1025 753 992 l 851 1025 q 793 891 838 939 q 683 843 749 843 z "},"ä":{"ha":953,"x_min":47,"x_max":913,"o":"m 374 -10 q 209 29 283 -10 q 91 141 135 68 q 47 317 47 214 q 78 490 47 411 q 167 628 110 569 q 299 718 224 686 q 465 750 375 750 q 626 717 558 750 q 728 616 693 683 q 760 449 763 549 q 710 208 757 311 q 578 47 663 104 q 374 -10 493 -10 m 418 139 q 550 174 493 139 q 640 272 607 210 q 674 417 674 335 q 622 553 674 503 q 478 603 571 603 q 347 567 404 603 q 256 469 289 532 q 222 325 222 407 q 274 189 222 239 q 418 139 325 139 m 600 0 l 633 169 l 681 367 l 704 565 l 739 742 l 913 742 l 765 0 l 600 0 m 718 858 q 663 879 685 858 q 640 933 640 900 q 667 1001 640 975 q 729 1026 693 1026 q 785 1006 761 1026 q 808 950 808 985 q 781 884 808 910 q 718 858 754 858 m 450 858 q 394 879 417 858 q 371 933 371 900 q 398 1001 371 975 q 458 1026 425 1026 q 515 1006 493 1026 q 538 950 538 985 q 510 884 538 910 q 450 858 483 858 z "},"å":{"ha":953,"x_min":47,"x_max":913,"o":"m 374 -10 q 209 29 283 -10 q 91 141 135 68 q 47 317 47 214 q 78 490 47 411 q 167 628 110 569 q 299 718 224 686 q 465 750 375 750 q 626 717 558 750 q 728 616 693 683 q 760 449 763 549 q 710 208 757 311 q 578 47 663 104 q 374 -10 493 -10 m 418 139 q 550 174 493 139 q 640 272 607 210 q 674 417 674 335 q 622 553 674 503 q 478 603 571 603 q 347 567 404 603 q 256 469 289 532 q 222 325 222 407 q 274 189 222 239 q 418 139 325 139 m 600 0 l 633 169 l 681 367 l 704 565 l 739 742 l 913 742 l 765 0 l 600 0 m 596 824 q 514 846 550 824 q 456 903 478 868 q 435 982 435 939 q 456 1063 435 1026 q 515 1122 478 1100 q 596 1143 551 1143 q 680 1122 643 1143 q 738 1063 717 1100 q 760 982 760 1026 q 738 903 760 939 q 680 845 717 867 q 596 824 643 824 m 597 894 q 660 919 636 894 q 685 982 685 944 q 660 1047 685 1021 q 596 1072 635 1072 q 535 1047 560 1072 q 510 982 510 1022 q 534 919 510 944 q 597 894 558 894 z "},"æ":{"ha":1378,"x_min":31,"x_max":1335,"o":"m 318 -10 q 163 17 226 -10 q 65 90 99 43 q 31 200 31 138 q 113 369 31 304 q 360 433 194 433 l 583 433 l 567 318 l 351 318 q 240 290 279 318 q 201 211 201 263 q 234 142 201 168 q 339 117 267 117 q 429 134 388 117 q 499 187 471 151 q 540 279 528 222 l 572 440 q 549 562 589 519 q 414 604 508 604 q 290 585 351 604 q 185 536 228 567 l 135 668 q 228 715 176 696 q 336 742 281 733 q 442 750 392 750 q 646 702 574 750 q 732 564 718 654 l 647 569 q 738 668 685 628 q 854 729 790 708 q 988 750 918 750 q 1169 711 1092 750 q 1291 599 1247 672 q 1335 425 1335 526 q 1331 371 1335 399 q 1322 318 1328 343 l 690 318 l 710 433 l 1229 433 l 1165 396 q 1155 514 1176 467 q 1088 586 1133 561 q 979 611 1042 611 q 847 576 904 611 q 759 476 790 540 q 728 325 728 411 q 781 183 728 228 q 942 138 835 138 q 1063 157 1010 138 q 1157 214 1117 176 l 1232 93 q 1090 16 1171 42 q 925 -10 1010 -10 q 772 17 843 -10 q 650 97 700 43 q 581 238 600 151 l 676 235 q 591 89 646 142 q 467 13 536 36 q 318 -10 397 -10 z "},"ç":{"ha":807,"x_min":47,"x_max":811,"o":"m 411 -10 q 219 31 301 -10 q 92 145 136 72 q 47 317 47 218 q 104 540 47 442 q 261 694 161 638 q 492 750 361 750 q 685 706 604 750 q 811 576 767 663 l 663 500 q 591 578 638 553 q 478 603 544 603 q 347 567 406 603 q 256 469 289 532 q 222 325 222 407 q 274 189 222 239 q 419 139 325 139 q 533 164 481 139 q 622 242 586 189 l 750 156 q 608 34 699 78 q 411 -10 518 -10 m 292 -317 q 222 -309 254 -317 q 165 -287 190 -301 l 207 -206 q 253 -222 229 -217 q 303 -228 276 -228 q 365 -212 346 -228 q 385 -175 385 -197 q 369 -143 385 -154 q 319 -132 354 -132 l 276 -132 l 340 10 l 435 10 l 401 -68 q 476 -103 451 -75 q 501 -171 501 -131 q 441 -278 499 -239 q 292 -317 383 -317 z "},"è":{"ha":860,"x_min":47,"x_max":817,"o":"m 413 -10 q 219 31 301 -10 q 92 145 138 72 q 47 317 47 218 q 103 540 47 443 q 255 694 158 638 q 475 750 351 750 q 656 711 579 750 q 774 599 732 672 q 817 425 817 526 q 814 371 817 399 q 806 319 811 343 l 176 319 l 196 435 l 724 435 l 653 396 q 643 514 664 467 q 576 586 622 561 q 467 611 531 611 q 334 576 390 611 q 247 476 278 540 q 217 325 217 411 q 269 186 217 235 q 431 138 321 138 q 550 158 493 138 q 644 214 607 178 l 717 93 q 578 16 658 42 q 413 -10 499 -10 m 486 842 l 282 1032 l 485 1032 l 636 842 l 486 842 z "},"é":{"ha":860,"x_min":47,"x_max":818,"o":"m 413 -10 q 219 31 301 -10 q 92 145 138 72 q 47 317 47 218 q 103 540 47 443 q 255 694 158 638 q 475 750 351 750 q 656 711 579 750 q 774 599 732 672 q 817 425 817 526 q 814 371 817 399 q 806 319 811 343 l 176 319 l 196 435 l 724 435 l 653 396 q 643 514 664 467 q 576 586 622 561 q 467 611 531 611 q 334 576 390 611 q 247 476 278 540 q 217 325 217 411 q 269 186 217 235 q 431 138 321 138 q 550 158 493 138 q 644 214 607 178 l 717 93 q 578 16 658 42 q 413 -10 499 -10 m 400 842 l 610 1032 l 818 1032 l 556 842 l 400 842 z "},"ê":{"ha":860,"x_min":47,"x_max":817,"o":"m 413 -10 q 219 31 301 -10 q 92 145 138 72 q 47 317 47 218 q 103 540 47 443 q 255 694 158 638 q 475 750 351 750 q 656 711 579 750 q 774 599 732 672 q 817 425 817 526 q 814 371 817 399 q 806 319 811 343 l 176 319 l 196 435 l 724 435 l 653 396 q 643 514 664 467 q 576 586 622 561 q 467 611 531 611 q 334 576 390 611 q 247 476 278 540 q 217 325 217 411 q 269 186 217 235 q 431 138 321 138 q 550 158 493 138 q 644 214 607 178 l 717 93 q 578 16 658 42 q 413 -10 499 -10 m 256 842 l 465 1032 l 624 1032 l 785 842 l 646 842 l 475 1001 l 610 1001 l 401 842 l 256 842 z "},"ë":{"ha":860,"x_min":47,"x_max":817,"o":"m 413 -10 q 219 31 301 -10 q 92 145 138 72 q 47 317 47 218 q 103 540 47 443 q 255 694 158 638 q 475 750 351 750 q 656 711 579 750 q 774 599 732 672 q 817 425 817 526 q 814 371 817 399 q 806 319 811 343 l 176 319 l 196 435 l 724 435 l 653 396 q 643 514 664 467 q 576 586 622 561 q 467 611 531 611 q 334 576 390 611 q 247 476 278 540 q 217 325 217 411 q 269 186 217 235 q 431 138 321 138 q 550 158 493 138 q 644 214 607 178 l 717 93 q 578 16 658 42 q 413 -10 499 -10 m 668 857 q 613 878 635 857 q 590 932 590 899 q 617 999 590 974 q 679 1025 643 1025 q 735 1004 711 1025 q 758 949 758 983 q 731 883 758 908 q 668 857 704 857 m 400 857 q 344 878 367 857 q 321 932 321 899 q 348 999 321 974 q 408 1025 375 1025 q 465 1004 443 1025 q 488 949 488 983 q 460 883 488 908 q 400 857 433 857 z "},"ì":{"ha":401,"x_min":40,"x_max":413,"o":"m 40 0 l 188 742 l 361 742 l 214 0 l 40 0 m 263 843 l 58 1033 l 261 1033 l 413 843 l 263 843 z "},"í":{"ha":401,"x_min":40,"x_max":594,"o":"m 40 0 l 188 742 l 361 742 l 214 0 l 40 0 m 176 843 l 386 1033 l 594 1033 l 332 843 l 176 843 z "},"î":{"ha":401,"x_min":40,"x_max":526,"o":"m 40 0 l 188 742 l 361 742 l 214 0 l 40 0 m 67 843 l 244 1033 l 397 1033 l 526 843 l 394 843 l 261 1003 l 379 1003 l 206 843 l 67 843 z "},"ï":{"ha":401,"x_min":40,"x_max":501,"o":"m 40 0 l 188 742 l 361 742 l 214 0 l 40 0 m 417 858 q 363 879 385 858 q 342 933 342 900 q 366 1000 342 974 q 428 1026 390 1026 q 480 1005 458 1026 q 501 950 501 983 q 477 885 501 911 q 417 858 453 858 m 203 858 q 149 879 171 858 q 128 933 128 900 q 152 1000 128 974 q 214 1026 176 1026 q 267 1004 246 1026 q 288 949 288 982 q 263 884 288 910 q 203 858 239 858 z "},"ð":{"ha":900,"x_min":39,"x_max":921,"o":"m 374 -14 q 201 22 276 -14 q 82 122 125 58 q 39 269 39 185 q 90 449 39 372 q 231 571 142 526 q 435 615 319 615 q 574 590 513 615 q 675 519 635 565 q 726 407 715 472 l 653 364 q 690 481 678 414 q 703 608 701 547 q 634 810 706 742 q 429 878 563 878 q 335 871 385 878 q 242 850 285 864 l 246 992 q 345 1012 293 1006 q 451 1018 397 1018 q 675 971 579 1018 q 826 834 771 924 q 881 615 881 744 q 858 421 881 514 q 794 249 836 328 q 691 110 753 169 q 549 19 629 51 q 374 -14 469 -14 m 390 128 q 480 142 438 128 q 554 182 522 157 q 605 242 586 207 q 624 321 624 278 q 576 433 624 392 q 444 474 528 474 q 323 450 375 474 q 242 383 271 426 q 213 282 213 340 q 260 169 213 211 q 390 128 307 128 m 290 653 l 253 757 l 883 994 l 921 890 l 290 653 z "},"ñ":{"ha":951,"x_min":40,"x_max":875,"o":"m 592 750 q 754 711 688 750 q 848 597 821 672 q 853 411 875 521 l 771 0 l 597 0 l 678 407 q 661 548 696 497 q 535 599 626 599 q 376 546 439 599 q 292 385 314 493 l 214 0 l 40 0 l 188 742 l 353 742 l 311 531 l 283 597 q 416 713 336 676 q 592 750 496 750 m 688 843 q 627 856 653 843 q 580 888 601 869 q 539 921 558 907 q 497 935 519 935 q 449 912 468 935 q 422 851 429 889 l 329 851 q 389 990 344 942 q 499 1038 433 1038 q 560 1024 533 1038 q 606 992 586 1010 q 646 960 626 974 q 688 946 665 946 q 738 969 718 946 q 763 1025 757 992 l 856 1025 q 797 891 842 939 q 688 843 753 843 z "},"ò":{"ha":896,"x_min":47,"x_max":849,"o":"m 407 -10 q 217 31 299 -10 q 92 145 136 72 q 47 317 47 218 q 104 540 47 442 q 260 694 161 638 q 488 750 360 750 q 678 710 597 750 q 804 598 760 671 q 849 425 849 525 q 792 203 849 301 q 635 47 735 104 q 407 -10 536 -10 m 418 139 q 550 174 493 139 q 640 272 607 210 q 674 417 674 335 q 622 553 674 503 q 478 603 571 603 q 347 567 404 603 q 256 469 289 532 q 222 325 222 407 q 274 188 222 238 q 418 139 325 139 m 504 843 l 300 1033 l 503 1033 l 654 843 l 504 843 z "},"ó":{"ha":896,"x_min":47,"x_max":849,"o":"m 407 -10 q 217 31 299 -10 q 92 145 136 72 q 47 317 47 218 q 104 540 47 442 q 260 694 161 638 q 488 750 360 750 q 678 710 597 750 q 804 598 760 671 q 849 425 849 525 q 792 203 849 301 q 635 47 735 104 q 407 -10 536 -10 m 418 139 q 550 174 493 139 q 640 272 607 210 q 674 417 674 335 q 622 553 674 503 q 478 603 571 603 q 347 567 404 603 q 256 469 289 532 q 222 325 222 407 q 274 188 222 238 q 418 139 325 139 m 418 843 l 628 1033 l 836 1033 l 574 843 l 418 843 z "},"ô":{"ha":896,"x_min":47,"x_max":849,"o":"m 407 -10 q 217 31 299 -10 q 92 145 136 72 q 47 317 47 218 q 104 540 47 442 q 260 694 161 638 q 488 750 360 750 q 678 710 597 750 q 804 598 760 671 q 849 425 849 525 q 792 203 849 301 q 635 47 735 104 q 407 -10 536 -10 m 418 139 q 550 174 493 139 q 640 272 607 210 q 674 417 674 335 q 622 553 674 503 q 478 603 571 603 q 347 567 404 603 q 256 469 289 532 q 222 325 222 407 q 274 188 222 238 q 418 139 325 139 m 274 843 l 483 1033 l 642 1033 l 803 843 l 664 843 l 493 1003 l 628 1003 l 419 843 l 274 843 z "},"õ":{"ha":896,"x_min":47,"x_max":849,"o":"m 407 -10 q 217 31 299 -10 q 92 145 136 72 q 47 317 47 218 q 104 540 47 442 q 260 694 161 638 q 488 750 360 750 q 678 710 597 750 q 804 598 760 671 q 849 425 849 525 q 792 203 849 301 q 635 47 735 104 q 407 -10 536 -10 m 418 139 q 550 174 493 139 q 640 272 607 210 q 674 417 674 335 q 622 553 674 503 q 478 603 571 603 q 347 567 404 603 q 256 469 289 532 q 222 325 222 407 q 274 188 222 238 q 418 139 325 139 m 651 843 q 591 856 617 843 q 544 888 565 869 q 503 921 522 907 q 461 935 483 935 q 413 912 432 935 q 386 851 393 889 l 293 851 q 353 990 308 942 q 463 1038 397 1038 q 524 1024 497 1038 q 570 992 550 1010 q 610 960 590 974 q 651 946 629 946 q 701 969 682 946 q 726 1025 721 992 l 819 1025 q 761 891 806 939 q 651 843 717 843 z "},"ö":{"ha":896,"x_min":47,"x_max":849,"o":"m 407 -10 q 217 31 299 -10 q 92 145 136 72 q 47 317 47 218 q 104 540 47 442 q 260 694 161 638 q 488 750 360 750 q 678 710 597 750 q 804 598 760 671 q 849 425 849 525 q 792 203 849 301 q 635 47 735 104 q 407 -10 536 -10 m 418 139 q 550 174 493 139 q 640 272 607 210 q 674 417 674 335 q 622 553 674 503 q 478 603 571 603 q 347 567 404 603 q 256 469 289 532 q 222 325 222 407 q 274 188 222 238 q 418 139 325 139 m 686 858 q 631 879 653 858 q 608 933 608 900 q 635 1001 608 975 q 697 1026 661 1026 q 753 1006 729 1026 q 776 950 776 985 q 749 884 776 910 q 686 858 722 858 m 418 858 q 362 879 385 858 q 339 933 339 900 q 366 1001 339 975 q 426 1026 393 1026 q 483 1006 461 1026 q 506 950 506 985 q 478 884 506 910 q 418 858 451 858 z "},"÷":{"ha":819,"x_min":99,"x_max":768,"o":"m 99 417 l 126 556 l 768 556 l 740 417 l 99 417 m 371 106 q 306 131 332 106 q 279 197 279 157 q 310 274 279 244 q 383 304 340 304 q 448 279 421 304 q 475 214 475 254 q 444 136 475 167 q 371 106 413 106 m 482 668 q 417 694 443 668 q 390 760 390 721 q 421 838 390 808 q 494 867 451 867 q 560 842 535 867 q 586 776 586 818 q 556 699 586 731 q 482 668 526 668 z "},"ø":{"ha":896,"x_min":-4,"x_max":892,"o":"m 407 -10 q 217 31 299 -10 q 92 145 136 72 q 47 317 47 218 q 104 540 47 442 q 260 694 161 638 q 488 750 360 750 q 678 710 597 750 q 804 598 760 671 q 849 425 849 525 q 792 203 849 301 q 635 47 735 104 q 407 -10 536 -10 m 418 139 q 550 174 493 139 q 640 272 607 210 q 674 417 674 335 q 622 553 674 503 q 478 603 571 603 q 347 567 404 603 q 256 469 289 532 q 222 325 222 407 q 274 188 222 238 q 418 139 325 139 m -4 -97 l 789 836 l 892 836 l 99 -97 l -4 -97 z "},"ù":{"ha":946,"x_min":78,"x_max":906,"o":"m 358 -10 q 199 30 265 -10 q 106 145 133 69 q 100 331 78 221 l 182 742 l 356 742 l 274 335 q 291 194 257 244 q 415 143 325 143 q 572 196 508 143 q 656 357 635 249 l 733 742 l 906 742 l 758 0 l 593 0 l 635 211 l 663 144 q 530 28 610 65 q 358 -10 450 -10 m 531 843 l 326 1033 l 529 1033 l 681 843 l 531 843 z "},"ú":{"ha":946,"x_min":78,"x_max":906,"o":"m 358 -10 q 199 30 265 -10 q 106 145 133 69 q 100 331 78 221 l 182 742 l 356 742 l 274 335 q 291 194 257 244 q 415 143 325 143 q 572 196 508 143 q 656 357 635 249 l 733 742 l 906 742 l 758 0 l 593 0 l 635 211 l 663 144 q 530 28 610 65 q 358 -10 450 -10 m 444 843 l 654 1033 l 863 1033 l 600 843 l 444 843 z "},"û":{"ha":946,"x_min":78,"x_max":906,"o":"m 358 -10 q 199 30 265 -10 q 106 145 133 69 q 100 331 78 221 l 182 742 l 356 742 l 274 335 q 291 194 257 244 q 415 143 325 143 q 572 196 508 143 q 656 357 635 249 l 733 742 l 906 742 l 758 0 l 593 0 l 635 211 l 663 144 q 530 28 610 65 q 358 -10 450 -10 m 300 843 l 510 1033 l 668 1033 l 829 843 l 690 843 l 519 1003 l 654 1003 l 446 843 l 300 843 z "},"ü":{"ha":946,"x_min":78,"x_max":906,"o":"m 358 -10 q 199 30 265 -10 q 106 145 133 69 q 100 331 78 221 l 182 742 l 356 742 l 274 335 q 291 194 257 244 q 415 143 325 143 q 572 196 508 143 q 656 357 635 249 l 733 742 l 906 742 l 758 0 l 593 0 l 635 211 l 663 144 q 530 28 610 65 q 358 -10 450 -10 m 713 858 q 657 879 679 858 q 635 933 635 900 q 661 1001 635 975 q 724 1026 688 1026 q 779 1006 756 1026 q 803 950 803 985 q 776 884 803 910 q 713 858 749 858 m 444 858 q 388 879 411 858 q 365 933 365 900 q 392 1001 365 975 q 453 1026 419 1026 q 510 1006 488 1026 q 532 950 532 985 q 505 884 532 910 q 444 858 478 858 z "},"ý":{"ha":803,"x_min":-135,"x_max":883,"o":"m 60 -279 q -49 -261 4 -279 q -135 -214 -103 -243 l -49 -87 q 5 -122 -25 -108 q 74 -135 35 -135 q 151 -112 117 -135 q 219 -33 185 -89 l 285 68 l 301 86 l 710 742 l 883 742 l 372 -65 q 274 -193 321 -146 q 176 -260 226 -240 q 60 -279 125 -279 m 250 -26 l 68 742 l 242 742 l 388 101 l 250 -26 m 358 843 l 568 1033 l 776 1033 l 514 843 l 358 843 z "},"þ":{"ha":953,"x_min":-14,"x_max":906,"o":"m -14 -269 l 246 1031 l 419 1031 l 328 572 l 274 375 l 250 181 l 160 -269 l -14 -269 m 489 -10 q 328 24 396 -10 q 225 126 260 58 q 193 293 190 193 q 243 535 196 432 q 376 694 290 638 q 579 750 461 750 q 744 712 671 750 q 862 601 818 674 q 906 425 906 528 q 874 251 906 331 q 786 114 843 172 q 653 23 729 56 q 489 -10 578 -10 m 475 139 q 607 174 550 139 q 697 272 664 210 q 731 417 731 335 q 679 553 731 503 q 535 603 628 603 q 403 567 461 603 q 313 469 346 532 q 279 325 279 407 q 331 189 279 239 q 475 139 382 139 z "},"ÿ":{"ha":803,"x_min":-135,"x_max":883,"o":"m 60 -279 q -49 -261 4 -279 q -135 -214 -103 -243 l -49 -87 q 5 -122 -25 -108 q 74 -135 35 -135 q 151 -112 117 -135 q 219 -33 185 -89 l 285 68 l 301 86 l 710 742 l 883 742 l 372 -65 q 274 -193 321 -146 q 176 -260 226 -240 q 60 -279 125 -279 m 250 -26 l 68 742 l 242 742 l 388 101 l 250 -26 m 626 858 q 571 879 593 858 q 549 933 549 900 q 575 1001 549 975 q 638 1026 601 1026 q 693 1006 669 1026 q 717 950 717 985 q 690 884 717 910 q 626 858 663 858 m 358 858 q 302 879 325 858 q 279 933 279 900 q 306 1001 279 975 q 367 1026 333 1026 q 424 1006 401 1026 q 446 950 446 985 q 419 884 446 910 q 358 858 392 858 z "},"Ā":{"ha":1040,"x_min":-81,"x_max":972,"o":"m -81 0 l 551 972 l 731 972 l 972 0 l 793 0 l 590 879 l 663 879 l 113 0 l -81 0 m 167 225 l 243 367 l 767 367 l 790 225 l 167 225 z "},"ā":{"ha":953,"x_min":47,"x_max":913,"o":"m 374 -10 q 209 29 283 -10 q 91 141 135 68 q 47 317 47 214 q 78 490 47 411 q 167 628 110 569 q 299 718 224 686 q 465 750 375 750 q 626 717 558 750 q 728 616 693 683 q 760 449 763 549 q 710 208 757 311 q 578 47 663 104 q 374 -10 493 -10 m 418 139 q 550 174 493 139 q 640 272 607 210 q 674 417 674 335 q 622 553 674 503 q 478 603 571 603 q 347 567 404 603 q 256 469 289 532 q 222 325 222 407 q 274 189 222 239 q 418 139 325 139 m 600 0 l 633 169 l 681 367 l 704 565 l 739 742 l 913 742 l 765 0 l 600 0 m 338 886 l 357 990 l 839 990 l 819 886 l 338 886 z "},"Ă":{"ha":1040,"x_min":-81,"x_max":972,"o":"m -81 0 l 551 972 l 731 972 l 972 0 l 793 0 l 590 879 l 663 879 l 113 0 l -81 0 m 167 225 l 243 367 l 767 367 l 790 225 l 167 225 z "},"ă":{"ha":953,"x_min":47,"x_max":913,"o":"m 374 -10 q 209 29 283 -10 q 91 141 135 68 q 47 317 47 214 q 78 490 47 411 q 167 628 110 569 q 299 718 224 686 q 465 750 375 750 q 626 717 558 750 q 728 616 693 683 q 760 449 763 549 q 710 208 757 311 q 578 47 663 104 q 374 -10 493 -10 m 418 139 q 550 174 493 139 q 640 272 607 210 q 674 417 674 335 q 622 553 674 503 q 478 603 571 603 q 347 567 404 603 q 256 469 289 532 q 222 325 222 407 q 274 189 222 239 q 418 139 325 139 m 600 0 l 633 169 l 681 367 l 704 565 l 739 742 l 913 742 l 765 0 l 600 0 m 583 833 q 467 858 518 833 q 388 927 415 882 q 365 1033 361 972 l 476 1033 q 507 957 475 985 q 593 929 539 929 q 685 957 647 929 q 731 1033 722 985 l 847 1033 q 758 888 831 942 q 583 833 685 833 z "},"Ą":{"ha":1040,"x_min":-81,"x_max":974,"o":"m -81 0 l 551 972 l 731 972 l 972 0 l 793 0 l 590 879 l 663 879 l 113 0 l -81 0 m 167 225 l 243 367 l 767 367 l 790 225 l 167 225 m 819 -317 q 702 -283 747 -317 q 657 -186 657 -249 q 686 -91 657 -135 q 770 -10 715 -47 q 901 56 825 26 l 974 0 q 865 -51 908 -24 q 799 -106 821 -78 q 778 -162 778 -133 q 797 -207 778 -192 q 846 -222 817 -222 q 894 -216 869 -222 q 938 -200 918 -210 l 954 -285 q 893 -308 926 -299 q 819 -317 860 -317 z "},"ą":{"ha":953,"x_min":47,"x_max":913,"o":"m 374 -10 q 209 29 283 -10 q 91 141 135 68 q 47 317 47 214 q 78 490 47 411 q 167 628 110 569 q 299 718 224 686 q 465 750 375 750 q 626 717 558 750 q 728 616 693 683 q 760 449 763 549 q 710 208 757 311 q 578 47 663 104 q 374 -10 493 -10 m 418 139 q 550 174 493 139 q 640 272 607 210 q 674 417 674 335 q 622 553 674 503 q 478 603 571 603 q 347 567 404 603 q 256 469 289 532 q 222 325 222 407 q 274 189 222 239 q 418 139 325 139 m 600 0 l 633 169 l 681 367 l 704 565 l 739 742 l 913 742 l 765 0 l 600 0 m 611 -317 q 494 -283 539 -317 q 449 -186 449 -249 q 478 -91 449 -135 q 562 -10 507 -47 q 693 56 617 26 l 765 0 q 656 -51 700 -24 q 591 -106 613 -78 q 569 -162 569 -133 q 589 -207 569 -192 q 638 -222 608 -222 q 685 -216 661 -222 q 729 -200 710 -210 l 746 -285 q 685 -308 718 -299 q 611 -317 651 -317 z "},"Ć":{"ha":1010,"x_min":78,"x_max":1046,"o":"m 550 -14 q 296 39 401 -14 q 134 185 190 92 q 78 401 78 279 q 120 631 78 525 q 242 817 163 738 q 431 941 321 896 q 676 986 540 986 q 899 944 803 986 q 1046 824 994 903 l 915 714 q 813 799 875 769 q 664 828 750 828 q 496 796 571 828 q 368 706 421 764 q 288 573 315 649 q 260 413 260 497 q 294 272 260 333 q 397 178 329 211 q 564 144 465 144 q 716 172 646 144 q 840 257 786 200 l 946 143 q 773 24 875 63 q 550 -14 671 -14 z "},"ć":{"ha":807,"x_min":47,"x_max":818,"o":"m 411 -10 q 219 31 301 -10 q 92 145 136 72 q 47 317 47 218 q 104 540 47 442 q 261 694 161 638 q 492 750 361 750 q 685 706 604 750 q 811 576 767 663 l 663 500 q 591 578 638 553 q 478 603 544 603 q 347 567 406 603 q 256 469 289 532 q 222 325 222 407 q 274 189 222 239 q 419 139 325 139 q 533 164 481 139 q 622 242 586 189 l 750 156 q 608 34 699 78 q 411 -10 518 -10 m 400 843 l 610 1033 l 818 1033 l 556 843 l 400 843 z "},"Ĉ":{"ha":1010,"x_min":78,"x_max":1046,"o":"m 550 -14 q 296 39 401 -14 q 134 185 190 92 q 78 401 78 279 q 120 631 78 525 q 242 817 163 738 q 431 941 321 896 q 676 986 540 986 q 899 944 803 986 q 1046 824 994 903 l 915 714 q 813 799 875 769 q 664 828 750 828 q 496 796 571 828 q 368 706 421 764 q 288 573 315 649 q 260 413 260 497 q 294 272 260 333 q 397 178 329 211 q 564 144 465 144 q 716 172 646 144 q 840 257 786 200 l 946 143 q 773 24 875 63 q 550 -14 671 -14 z "},"ĉ":{"ha":807,"x_min":47,"x_max":811,"o":"m 411 -10 q 219 31 301 -10 q 92 145 136 72 q 47 317 47 218 q 104 540 47 442 q 261 694 161 638 q 492 750 361 750 q 685 706 604 750 q 811 576 767 663 l 663 500 q 591 578 638 553 q 478 603 544 603 q 347 567 406 603 q 256 469 289 532 q 222 325 222 407 q 274 189 222 239 q 419 139 325 139 q 533 164 481 139 q 622 242 586 189 l 750 156 q 608 34 699 78 q 411 -10 518 -10 m 256 843 l 465 1033 l 624 1033 l 785 843 l 646 843 l 475 1003 l 610 1003 l 401 843 l 256 843 z "},"Ċ":{"ha":1010,"x_min":78,"x_max":1046,"o":"m 550 -14 q 296 39 401 -14 q 134 185 190 92 q 78 401 78 279 q 120 631 78 525 q 242 817 163 738 q 431 941 321 896 q 676 986 540 986 q 899 944 803 986 q 1046 824 994 903 l 915 714 q 813 799 875 769 q 664 828 750 828 q 496 796 571 828 q 368 706 421 764 q 288 573 315 649 q 260 413 260 497 q 294 272 260 333 q 397 178 329 211 q 564 144 465 144 q 716 172 646 144 q 840 257 786 200 l 946 143 q 773 24 875 63 q 550 -14 671 -14 z "},"ċ":{"ha":807,"x_min":47,"x_max":811,"o":"m 411 -10 q 219 31 301 -10 q 92 145 136 72 q 47 317 47 218 q 104 540 47 442 q 261 694 161 638 q 492 750 361 750 q 685 706 604 750 q 811 576 767 663 l 663 500 q 591 578 638 553 q 478 603 544 603 q 347 567 406 603 q 256 469 289 532 q 222 325 222 407 q 274 189 222 239 q 419 139 325 139 q 533 164 481 139 q 622 242 586 189 l 750 156 q 608 34 699 78 q 411 -10 518 -10 m 536 860 q 469 884 494 860 q 443 946 443 908 q 474 1026 443 996 q 550 1057 506 1057 q 616 1032 590 1057 q 642 969 642 1007 q 611 890 642 921 q 536 860 581 860 z "},"Č":{"ha":1010,"x_min":78,"x_max":1046,"o":"m 550 -14 q 296 39 401 -14 q 134 185 190 92 q 78 401 78 279 q 120 631 78 525 q 242 817 163 738 q 431 941 321 896 q 676 986 540 986 q 899 944 803 986 q 1046 824 994 903 l 915 714 q 813 799 875 769 q 664 828 750 828 q 496 796 571 828 q 368 706 421 764 q 288 573 315 649 q 260 413 260 497 q 294 272 260 333 q 397 178 329 211 q 564 144 465 144 q 716 172 646 144 q 840 257 786 200 l 946 143 q 773 24 875 63 q 550 -14 671 -14 z "},"č":{"ha":807,"x_min":47,"x_max":815,"o":"m 411 -10 q 219 31 301 -10 q 92 145 136 72 q 47 317 47 218 q 104 540 47 442 q 261 694 161 638 q 492 750 361 750 q 685 706 604 750 q 811 576 767 663 l 663 500 q 591 578 638 553 q 478 603 544 603 q 347 567 406 603 q 256 469 289 532 q 222 325 222 407 q 274 189 222 239 q 419 139 325 139 q 533 164 481 139 q 622 242 586 189 l 750 156 q 608 34 699 78 q 411 -10 518 -10 m 447 843 l 286 1033 l 425 1033 l 596 874 l 461 874 l 669 1033 l 815 1033 l 606 843 l 447 843 z "},"Ď":{"ha":1147,"x_min":57,"x_max":1117,"o":"m 57 0 l 251 972 l 644 972 q 899 923 793 972 q 1060 783 1004 874 q 1117 571 1117 693 q 1073 336 1117 442 q 949 156 1029 231 q 758 41 869 82 q 511 0 647 0 l 57 0 m 268 153 l 517 153 q 741 206 647 153 q 885 351 835 260 q 935 560 935 443 q 900 697 935 639 q 797 788 865 756 q 625 819 728 819 l 401 819 l 268 153 z "},"ď":{"ha":954,"x_min":49,"x_max":1238,"o":"m 375 -10 q 210 29 285 -10 q 92 141 135 68 q 49 317 49 214 q 80 490 49 411 q 168 628 111 569 q 301 718 225 686 q 465 750 376 750 q 624 718 557 750 q 726 622 690 686 q 763 464 763 558 q 736 273 763 360 q 660 123 710 186 q 538 25 610 60 q 375 -10 467 -10 m 419 139 q 551 174 493 139 q 641 272 608 210 q 674 417 674 335 q 623 553 674 503 q 478 603 572 603 q 347 567 406 603 q 256 469 289 532 q 224 325 224 407 q 274 189 224 239 q 419 139 325 139 m 600 0 l 635 169 l 681 367 l 704 565 l 797 1031 l 971 1031 l 765 0 l 600 0 m 1046 808 l 1100 1082 l 1238 1082 l 1161 808 l 1046 808 z "},"Đ":{"ha":1161,"x_min":18,"x_max":1131,"o":"m 71 0 l 265 972 l 658 972 q 913 923 807 972 q 1074 783 1018 874 q 1131 571 1131 693 q 1087 336 1131 442 q 963 156 1043 231 q 772 41 883 82 q 525 0 661 0 l 71 0 m 282 153 l 531 153 q 755 206 661 153 q 899 351 849 260 q 949 560 949 443 q 914 697 949 639 q 810 788 879 756 q 639 819 742 819 l 415 819 l 282 153 m 18 428 l 46 561 l 624 561 l 596 428 l 18 428 z "},"đ":{"ha":954,"x_min":49,"x_max":1065,"o":"m 375 -10 q 210 29 285 -10 q 92 141 135 68 q 49 317 49 214 q 80 490 49 411 q 168 628 111 569 q 301 718 225 686 q 465 750 376 750 q 624 718 557 750 q 726 622 690 686 q 763 464 763 558 q 736 273 763 360 q 660 123 710 186 q 538 25 610 60 q 375 -10 467 -10 m 419 139 q 551 174 493 139 q 641 272 608 210 q 674 417 674 335 q 623 553 674 503 q 478 603 572 603 q 347 567 406 603 q 256 469 289 532 q 224 325 224 407 q 274 189 224 239 q 419 139 325 139 m 600 0 l 635 169 l 681 367 l 704 565 l 797 1031 l 971 1031 l 765 0 l 600 0 m 483 826 l 504 940 l 1065 940 l 1044 826 l 483 826 z "},"Ē":{"ha":931,"x_min":57,"x_max":961,"o":"m 336 568 l 821 568 l 792 419 l 307 419 l 336 568 m 267 151 l 817 151 l 786 0 l 57 0 l 251 972 l 961 972 l 931 821 l 400 821 l 267 151 z "},"ē":{"ha":860,"x_min":47,"x_max":817,"o":"m 413 -10 q 219 31 301 -10 q 92 145 138 72 q 47 317 47 218 q 103 540 47 443 q 255 694 158 638 q 475 750 351 750 q 656 711 579 750 q 774 599 732 672 q 817 425 817 526 q 814 371 817 399 q 806 319 811 343 l 176 319 l 196 435 l 724 435 l 653 396 q 643 514 664 467 q 576 586 622 561 q 467 611 531 611 q 334 576 390 611 q 247 476 278 540 q 217 325 217 411 q 269 186 217 235 q 431 138 321 138 q 550 158 493 138 q 644 214 607 178 l 717 93 q 578 16 658 42 q 413 -10 499 -10 m 288 885 l 307 989 l 789 989 l 769 885 l 288 885 z "},"Ĕ":{"ha":931,"x_min":57,"x_max":961,"o":"m 336 568 l 821 568 l 792 419 l 307 419 l 336 568 m 267 151 l 817 151 l 786 0 l 57 0 l 251 972 l 961 972 l 931 821 l 400 821 l 267 151 z "},"ĕ":{"ha":860,"x_min":47,"x_max":817,"o":"m 413 -10 q 219 31 301 -10 q 92 145 138 72 q 47 317 47 218 q 103 540 47 443 q 255 694 158 638 q 475 750 351 750 q 656 711 579 750 q 774 599 732 672 q 817 425 817 526 q 814 371 817 399 q 806 319 811 343 l 176 319 l 196 435 l 724 435 l 653 396 q 643 514 664 467 q 576 586 622 561 q 467 611 531 611 q 334 576 390 611 q 247 476 278 540 q 217 325 217 411 q 269 186 217 235 q 431 138 321 138 q 550 158 493 138 q 644 214 607 178 l 717 93 q 578 16 658 42 q 413 -10 499 -10 m 533 832 q 417 856 468 832 q 338 926 365 881 q 315 1032 311 971 l 426 1032 q 457 956 425 983 q 543 928 489 928 q 635 956 597 928 q 681 1032 672 983 l 797 1032 q 708 886 781 940 q 533 832 635 832 z "},"Ė":{"ha":931,"x_min":57,"x_max":961,"o":"m 336 568 l 821 568 l 792 419 l 307 419 l 336 568 m 267 151 l 817 151 l 786 0 l 57 0 l 251 972 l 961 972 l 931 821 l 400 821 l 267 151 z "},"ė":{"ha":860,"x_min":47,"x_max":817,"o":"m 413 -10 q 219 31 301 -10 q 92 145 138 72 q 47 317 47 218 q 103 540 47 443 q 255 694 158 638 q 475 750 351 750 q 656 711 579 750 q 774 599 732 672 q 817 425 817 526 q 814 371 817 399 q 806 319 811 343 l 176 319 l 196 435 l 724 435 l 653 396 q 643 514 664 467 q 576 586 622 561 q 467 611 531 611 q 334 576 390 611 q 247 476 278 540 q 217 325 217 411 q 269 186 217 235 q 431 138 321 138 q 550 158 493 138 q 644 214 607 178 l 717 93 q 578 16 658 42 q 413 -10 499 -10 m 536 858 q 469 883 494 858 q 443 944 443 907 q 474 1025 443 994 q 550 1056 506 1056 q 616 1031 590 1056 q 642 968 642 1006 q 611 889 642 919 q 536 858 581 858 z "},"Ę":{"ha":931,"x_min":57,"x_max":961,"o":"m 336 568 l 821 568 l 792 419 l 307 419 l 336 568 m 267 151 l 817 151 l 786 0 l 57 0 l 251 972 l 961 972 l 931 821 l 400 821 l 267 151 m 632 -317 q 515 -283 560 -317 q 469 -186 469 -249 q 499 -91 469 -135 q 583 -10 528 -47 q 714 56 638 26 l 786 0 q 677 -51 721 -24 q 612 -106 633 -78 q 590 -162 590 -133 q 610 -207 590 -192 q 658 -222 629 -222 q 706 -216 682 -222 q 750 -200 731 -210 l 767 -285 q 706 -308 739 -299 q 632 -317 672 -317 z "},"ę":{"ha":860,"x_min":47,"x_max":817,"o":"m 490 -317 q 377 -283 421 -317 q 333 -186 333 -249 q 351 -106 333 -143 q 402 -35 368 -68 q 485 25 436 -1 l 518 1 q 460 -7 485 -4 q 414 -10 435 -10 q 219 31 301 -10 q 92 145 138 72 q 47 317 47 218 q 103 540 47 443 q 255 694 158 638 q 475 750 351 750 q 656 711 579 750 q 774 599 732 672 q 817 425 817 526 q 814 371 817 399 q 806 319 811 343 l 176 319 l 196 435 l 724 435 l 653 396 q 643 514 664 467 q 576 586 622 561 q 467 611 531 611 q 334 576 390 611 q 247 476 278 540 q 217 325 217 411 q 269 186 217 235 q 431 138 321 138 q 550 157 493 138 q 644 214 607 176 l 717 93 q 683 67 701 79 q 653 47 665 56 q 497 -62 544 -10 q 450 -160 450 -115 q 469 -206 450 -190 q 517 -222 488 -222 q 563 -216 540 -222 q 606 -200 586 -210 l 621 -285 q 562 -308 594 -299 q 490 -317 529 -317 z "},"Ě":{"ha":931,"x_min":57,"x_max":961,"o":"m 336 568 l 821 568 l 792 419 l 307 419 l 336 568 m 267 151 l 817 151 l 786 0 l 57 0 l 251 972 l 961 972 l 931 821 l 400 821 l 267 151 z "},"ě":{"ha":860,"x_min":47,"x_max":817,"o":"m 413 -10 q 219 31 301 -10 q 92 145 138 72 q 47 317 47 218 q 103 540 47 443 q 255 694 158 638 q 475 750 351 750 q 656 711 579 750 q 774 599 732 672 q 817 425 817 526 q 814 371 817 399 q 806 319 811 343 l 176 319 l 196 435 l 724 435 l 653 396 q 643 514 664 467 q 576 586 622 561 q 467 611 531 611 q 334 576 390 611 q 247 476 278 540 q 217 325 217 411 q 269 186 217 235 q 431 138 321 138 q 550 158 493 138 q 644 214 607 178 l 717 93 q 578 16 658 42 q 413 -10 499 -10 m 447 842 l 286 1032 l 425 1032 l 596 872 l 461 872 l 669 1032 l 815 1032 l 606 842 l 447 842 z "},"Ĝ":{"ha":1072,"x_min":78,"x_max":1072,"o":"m 550 -14 q 299 39 404 -14 q 135 185 193 92 q 78 401 78 279 q 120 631 78 525 q 242 817 163 738 q 433 941 321 896 q 682 986 544 986 q 914 944 815 986 q 1072 826 1013 903 l 942 718 q 827 802 893 776 q 674 828 761 828 q 503 797 579 828 q 372 708 426 765 q 289 576 318 651 q 260 413 260 500 q 294 272 260 333 q 399 178 329 211 q 571 144 468 144 q 715 170 647 144 q 842 247 782 196 l 913 106 q 745 17 840 49 q 550 -14 650 -14 m 749 133 l 821 497 l 992 497 l 913 106 l 749 133 z "},"ĝ":{"ha":964,"x_min":-7,"x_max":924,"o":"m 340 -279 q 146 -253 235 -279 q -7 -178 57 -228 l 83 -47 q 197 -108 126 -85 q 351 -131 268 -131 q 536 -77 474 -131 q 619 83 599 -24 l 650 236 l 696 393 l 724 561 l 758 742 l 924 742 l 799 113 q 643 -187 757 -94 q 340 -279 529 -279 m 383 33 q 213 70 288 33 q 94 176 138 107 q 51 340 51 244 q 83 502 51 428 q 170 632 114 576 q 303 719 226 688 q 472 750 381 750 q 621 722 553 750 q 729 630 689 693 q 767 464 769 567 q 718 244 764 342 q 588 90 672 146 q 383 33 503 33 m 422 181 q 554 213 497 181 q 644 303 611 246 q 676 433 676 361 q 625 558 676 513 q 482 603 574 603 q 350 570 407 603 q 260 481 293 538 q 226 350 226 424 q 278 226 226 271 q 422 181 331 181 m 296 843 l 506 1033 l 664 1033 l 825 843 l 686 843 l 515 1003 l 650 1003 l 442 843 l 296 843 z "},"Ğ":{"ha":1072,"x_min":78,"x_max":1072,"o":"m 550 -14 q 299 39 404 -14 q 135 185 193 92 q 78 401 78 279 q 120 631 78 525 q 242 817 163 738 q 433 941 321 896 q 682 986 544 986 q 914 944 815 986 q 1072 826 1013 903 l 942 718 q 827 802 893 776 q 674 828 761 828 q 503 797 579 828 q 372 708 426 765 q 289 576 318 651 q 260 413 260 500 q 294 272 260 333 q 399 178 329 211 q 571 144 468 144 q 715 170 647 144 q 842 247 782 196 l 913 106 q 745 17 840 49 q 550 -14 650 -14 m 749 133 l 821 497 l 992 497 l 913 106 l 749 133 z "},"ğ":{"ha":964,"x_min":-7,"x_max":924,"o":"m 340 -279 q 146 -253 235 -279 q -7 -178 57 -228 l 83 -47 q 197 -108 126 -85 q 351 -131 268 -131 q 536 -77 474 -131 q 619 83 599 -24 l 650 236 l 696 393 l 724 561 l 758 742 l 924 742 l 799 113 q 643 -187 757 -94 q 340 -279 529 -279 m 383 33 q 213 70 288 33 q 94 176 138 107 q 51 340 51 244 q 83 502 51 428 q 170 632 114 576 q 303 719 226 688 q 472 750 381 750 q 621 722 553 750 q 729 630 689 693 q 767 464 769 567 q 718 244 764 342 q 588 90 672 146 q 383 33 503 33 m 422 181 q 554 213 497 181 q 644 303 611 246 q 676 433 676 361 q 625 558 676 513 q 482 603 574 603 q 350 570 407 603 q 260 481 293 538 q 226 350 226 424 q 278 226 226 271 q 422 181 331 181 m 574 833 q 457 858 508 833 q 378 927 406 882 q 356 1033 351 972 l 467 1033 q 497 957 465 985 q 583 929 529 929 q 675 957 638 929 q 721 1033 713 985 l 838 1033 q 748 888 821 942 q 574 833 675 833 z "},"Ġ":{"ha":1072,"x_min":78,"x_max":1072,"o":"m 550 -14 q 299 39 404 -14 q 135 185 193 92 q 78 401 78 279 q 120 631 78 525 q 242 817 163 738 q 433 941 321 896 q 682 986 544 986 q 914 944 815 986 q 1072 826 1013 903 l 942 718 q 827 802 893 776 q 674 828 761 828 q 503 797 579 828 q 372 708 426 765 q 289 576 318 651 q 260 413 260 500 q 294 272 260 333 q 399 178 329 211 q 571 144 468 144 q 715 170 647 144 q 842 247 782 196 l 913 106 q 745 17 840 49 q 550 -14 650 -14 m 749 133 l 821 497 l 992 497 l 913 106 l 749 133 z "},"ġ":{"ha":964,"x_min":-7,"x_max":924,"o":"m 340 -279 q 146 -253 235 -279 q -7 -178 57 -228 l 83 -47 q 197 -108 126 -85 q 351 -131 268 -131 q 536 -77 474 -131 q 619 83 599 -24 l 650 236 l 696 393 l 724 561 l 758 742 l 924 742 l 799 113 q 643 -187 757 -94 q 340 -279 529 -279 m 383 33 q 213 70 288 33 q 94 176 138 107 q 51 340 51 244 q 83 502 51 428 q 170 632 114 576 q 303 719 226 688 q 472 750 381 750 q 621 722 553 750 q 729 630 689 693 q 767 464 769 567 q 718 244 764 342 q 588 90 672 146 q 383 33 503 33 m 422 181 q 554 213 497 181 q 644 303 611 246 q 676 433 676 361 q 625 558 676 513 q 482 603 574 603 q 350 570 407 603 q 260 481 293 538 q 226 350 226 424 q 278 226 226 271 q 422 181 331 181 m 576 860 q 509 884 535 860 q 483 946 483 908 q 515 1026 483 996 q 590 1057 546 1057 q 656 1032 631 1057 q 682 969 682 1007 q 651 890 682 921 q 576 860 621 860 z "},"Ģ":{"ha":1072,"x_min":78,"x_max":1072,"o":"m 550 -14 q 299 39 404 -14 q 135 185 193 92 q 78 401 78 279 q 120 631 78 525 q 242 817 163 738 q 433 941 321 896 q 682 986 544 986 q 914 944 815 986 q 1072 826 1013 903 l 942 718 q 827 802 893 776 q 674 828 761 828 q 503 797 579 828 q 372 708 426 765 q 289 576 318 651 q 260 413 260 500 q 294 272 260 333 q 399 178 329 211 q 571 144 468 144 q 715 170 647 144 q 842 247 782 196 l 913 106 q 745 17 840 49 q 550 -14 650 -14 m 749 133 l 821 497 l 992 497 l 913 106 l 749 133 m 353 -368 l 433 -199 l 444 -261 q 388 -243 408 -261 q 368 -199 368 -225 q 390 -139 368 -162 q 456 -115 413 -115 q 516 -135 496 -115 q 536 -182 536 -154 q 528 -219 536 -201 q 499 -269 521 -237 l 435 -368 l 353 -368 z "},"ģ":{"ha":964,"x_min":-7,"x_max":924,"o":"m 340 -279 q 146 -253 235 -279 q -7 -178 57 -228 l 83 -47 q 197 -108 126 -85 q 351 -131 268 -131 q 536 -77 474 -131 q 619 83 599 -24 l 650 236 l 696 393 l 724 561 l 758 742 l 924 742 l 799 113 q 643 -187 757 -94 q 340 -279 529 -279 m 383 33 q 213 70 288 33 q 94 176 138 107 q 51 340 51 244 q 83 502 51 428 q 170 632 114 576 q 303 719 226 688 q 472 750 381 750 q 621 722 553 750 q 729 630 689 693 q 767 464 769 567 q 718 244 764 342 q 588 90 672 146 q 383 33 503 33 m 422 181 q 554 213 497 181 q 644 303 611 246 q 676 433 676 361 q 625 558 676 513 q 482 603 574 603 q 350 570 407 603 q 260 481 293 538 q 226 350 226 424 q 278 226 226 271 q 422 181 331 181 m 568 833 q 501 853 525 833 q 478 900 478 872 q 486 938 478 921 q 518 986 494 956 l 603 1114 l 697 1114 l 594 917 l 581 979 q 644 963 622 979 q 667 917 667 946 q 642 858 667 882 q 568 833 617 833 z "},"Ĥ":{"ha":1125,"x_min":57,"x_max":1114,"o":"m 935 972 l 1114 972 l 919 0 l 740 0 l 935 972 m 238 0 l 57 0 l 251 972 l 432 972 l 238 0 m 838 417 l 308 417 l 338 571 l 869 571 l 838 417 z "},"ĥ":{"ha":951,"x_min":40,"x_max":875,"o":"m 592 750 q 753 711 688 750 q 847 597 819 672 q 853 411 875 521 l 771 0 l 597 0 l 678 407 q 661 548 696 497 q 535 599 626 599 q 376 546 439 599 q 292 385 314 493 l 214 0 l 40 0 l 246 1031 l 419 1031 l 319 531 l 283 597 q 416 713 336 676 q 592 750 496 750 z "},"Ħ":{"ha":1154,"x_min":71,"x_max":1239,"o":"m 949 972 l 1128 972 l 933 0 l 754 0 l 949 972 m 251 0 l 71 0 l 265 972 l 446 972 l 251 0 m 851 417 l 322 417 l 351 571 l 883 571 l 851 417 m 75 708 l 100 842 l 1239 842 l 1215 708 l 75 708 z "},"ħ":{"ha":951,"x_min":40,"x_max":875,"o":"m 592 750 q 753 711 688 750 q 847 597 819 672 q 853 411 875 521 l 771 0 l 597 0 l 678 407 q 661 548 696 497 q 535 599 626 599 q 376 546 439 599 q 292 385 314 493 l 214 0 l 40 0 l 246 1031 l 419 1031 l 319 531 l 283 597 q 416 713 336 676 q 592 750 496 750 m 92 826 l 113 940 l 674 940 l 653 826 l 92 826 z "},"Ĩ":{"ha":443,"x_min":57,"x_max":639,"o":"m 57 0 l 251 972 l 432 972 l 238 0 l 57 0 z "},"ĩ":{"ha":401,"x_min":40,"x_max":543,"o":"m 40 0 l 188 742 l 361 742 l 214 0 l 40 0 m 393 843 q 340 856 363 843 q 300 888 317 869 q 268 921 283 907 q 236 935 253 935 q 200 913 215 935 q 179 851 185 892 l 88 851 q 137 990 97 942 q 238 1038 176 1038 q 292 1024 271 1038 q 331 992 314 1010 q 362 960 347 974 q 393 946 376 946 q 432 967 417 946 q 451 1025 447 989 l 543 1025 q 493 890 532 938 q 393 843 454 843 z "},"Ī":{"ha":443,"x_min":57,"x_max":582,"o":"m 57 0 l 251 972 l 432 972 l 238 0 l 57 0 z "},"ī":{"ha":401,"x_min":40,"x_max":521,"o":"m 40 0 l 188 742 l 361 742 l 214 0 l 40 0 m 110 886 l 129 990 l 521 990 l 501 886 l 110 886 z "},"Ĭ":{"ha":443,"x_min":57,"x_max":635,"o":"m 57 0 l 251 972 l 432 972 l 238 0 l 57 0 z "},"ĭ":{"ha":401,"x_min":40,"x_max":539,"o":"m 40 0 l 188 742 l 361 742 l 214 0 l 40 0 m 314 833 q 208 858 253 833 q 142 927 164 882 q 128 1033 121 972 l 232 1033 q 250 956 226 985 q 319 928 274 928 q 429 1033 415 928 l 539 1033 q 467 887 525 940 q 314 833 408 833 z "},"Į":{"ha":443,"x_min":-1,"x_max":432,"o":"m 57 0 l 251 972 l 432 972 l 238 0 l 57 0 m 138 -317 q 34 -281 69 -317 q -1 -192 -1 -244 q 52 -53 -1 -114 q 186 53 106 8 l 238 0 q 149 -88 178 -43 q 119 -172 119 -133 q 133 -208 119 -194 q 168 -222 146 -222 q 191 -219 179 -222 q 217 -210 203 -215 l 229 -293 q 190 -310 214 -304 q 138 -317 165 -317 z "},"į":{"ha":401,"x_min":-25,"x_max":432,"o":"m 40 0 l 188 742 l 361 742 l 214 0 l 40 0 m 314 864 q 238 892 267 864 q 210 961 210 921 q 242 1040 210 1008 q 328 1072 275 1072 q 403 1045 374 1072 q 432 979 432 1018 q 400 896 432 928 q 314 864 368 864 m 114 -317 q 10 -281 46 -317 q -25 -192 -25 -244 q 28 -53 -25 -114 q 163 53 82 8 l 214 0 q 125 -88 154 -43 q 96 -172 96 -133 q 109 -208 96 -194 q 144 -222 122 -222 q 167 -219 156 -222 q 193 -210 179 -215 l 206 -293 q 166 -310 190 -304 q 114 -317 142 -317 z "},"İ":{"ha":443,"x_min":57,"x_max":479,"o":"m 57 0 l 251 972 l 432 972 l 238 0 l 57 0 z "},"ı":{"ha":401,"x_min":40,"x_max":361,"o":"m 40 0 l 188 742 l 361 742 l 214 0 l 40 0 z "},"Ĳ":{"ha":1003,"x_min":50,"x_max":999,"o":"m 411 -14 q 203 15 294 -14 q 50 90 113 43 l 139 232 q 272 165 200 188 q 422 143 343 143 q 612 209 543 143 q 710 422 681 275 l 819 972 l 999 972 l 889 414 q 726 91 844 196 q 411 -14 608 -14 m 136 438 l 243 972 l 424 972 l 317 438 l 136 438 z "},"ĳ":{"ha":811,"x_min":40,"x_max":839,"o":"m 40 0 l 188 742 l 361 742 l 214 0 l 40 0 m 314 864 q 238 892 267 864 q 210 961 210 921 q 242 1040 210 1008 q 328 1072 275 1072 q 403 1045 374 1072 q 432 979 432 1018 q 400 896 432 928 q 314 864 368 864 m 324 -279 q 229 -269 272 -279 q 153 -236 186 -258 l 225 -107 q 324 -136 265 -136 q 402 -108 374 -136 q 444 -17 431 -79 l 596 742 l 769 742 l 618 -14 q 324 -279 565 -279 m 721 864 q 645 892 674 864 q 617 961 617 921 q 649 1040 617 1008 q 735 1072 682 1072 q 810 1045 781 1072 q 839 979 839 1018 q 807 896 839 928 q 721 864 775 864 z "},"Ĵ":{"ha":732,"x_min":-62,"x_max":749,"o":"m 238 -14 q 55 24 132 -14 q -62 131 -22 61 l 58 247 q 133 167 88 196 q 240 139 179 139 q 357 179 311 139 q 419 308 403 219 l 522 821 l 175 821 l 206 972 l 729 972 l 599 318 q 527 123 575 196 q 407 18 479 50 q 238 -14 335 -14 z "},"ĵ":{"ha":410,"x_min":-249,"x_max":532,"o":"m -78 -279 q -172 -269 -129 -279 q -249 -236 -215 -258 l -176 -107 q -78 -136 -136 -136 q 1 -108 -28 -136 q 43 -17 29 -79 l 194 742 l 368 742 l 217 -14 q -78 -279 164 -279 m 72 843 l 250 1033 l 403 1033 l 532 843 l 400 843 l 267 1003 l 385 1003 l 211 843 l 72 843 z "},"Ķ":{"ha":1013,"x_min":57,"x_max":1125,"o":"m 268 233 l 292 446 l 897 972 l 1125 972 l 606 521 l 489 425 l 268 233 m 57 0 l 251 972 l 431 972 l 236 0 l 57 0 m 747 0 l 449 443 l 572 565 l 949 0 l 747 0 m 313 -368 l 393 -199 l 404 -261 q 348 -243 368 -261 q 328 -199 328 -225 q 350 -139 328 -162 q 415 -115 372 -115 q 476 -135 456 -115 q 496 -182 496 -154 q 488 -219 496 -201 q 458 -269 481 -237 l 394 -368 l 313 -368 z "},"ķ":{"ha":868,"x_min":40,"x_max":940,"o":"m 221 171 l 258 385 l 704 742 l 940 742 l 524 406 l 431 338 l 221 171 m 40 0 l 246 1031 l 419 1031 l 214 0 l 40 0 m 607 0 l 400 335 l 519 468 l 808 0 l 607 0 m 228 -368 l 308 -199 l 319 -261 q 263 -243 283 -261 q 243 -199 243 -225 q 265 -139 243 -162 q 331 -115 288 -115 q 391 -135 371 -115 q 411 -182 411 -154 q 403 -219 411 -201 q 374 -269 396 -237 l 310 -368 l 228 -368 z "},"ĸ":{"ha":868,"x_min":40,"x_max":940,"o":"m 221 171 l 258 385 l 704 742 l 940 742 l 524 406 l 431 338 l 221 171 m 40 0 l 188 742 l 361 742 l 214 0 l 40 0 m 607 0 l 400 335 l 519 468 l 808 0 l 607 0 z "},"Ĺ":{"ha":832,"x_min":57,"x_max":776,"o":"m 57 0 l 251 972 l 432 972 l 268 153 l 776 153 l 746 0 l 57 0 z "},"ĺ":{"ha":401,"x_min":40,"x_max":647,"o":"m 40 0 l 246 1031 l 419 1031 l 214 0 l 40 0 z "},"Ļ":{"ha":832,"x_min":57,"x_max":776,"o":"m 57 0 l 251 972 l 432 972 l 268 153 l 776 153 l 746 0 l 57 0 m 281 -368 l 361 -199 l 372 -261 q 316 -243 336 -261 q 296 -199 296 -225 q 318 -139 296 -162 q 383 -115 340 -115 q 444 -135 424 -115 q 464 -182 464 -154 q 456 -219 464 -201 q 426 -269 449 -237 l 363 -368 l 281 -368 z "},"ļ":{"ha":401,"x_min":-10,"x_max":419,"o":"m 40 0 l 246 1031 l 419 1031 l 214 0 l 40 0 m -10 -368 l 71 -199 l 82 -261 q 26 -243 46 -261 q 6 -199 6 -225 q 28 -139 6 -162 q 93 -115 50 -115 q 153 -135 133 -115 q 174 -182 174 -154 q 166 -219 174 -201 q 136 -269 158 -237 l 72 -368 l -10 -368 z "},"Ľ":{"ha":832,"x_min":57,"x_max":872,"o":"m 57 0 l 251 972 l 432 972 l 268 153 l 776 153 l 746 0 l 57 0 m 681 750 l 735 1024 l 872 1024 l 796 750 l 681 750 z "},"ľ":{"ha":401,"x_min":40,"x_max":685,"o":"m 40 0 l 246 1031 l 419 1031 l 214 0 l 40 0 m 493 808 l 547 1082 l 685 1082 l 608 808 l 493 808 z "},"Ŀ":{"ha":832,"x_min":57,"x_max":776,"o":"m 57 0 l 251 972 l 432 972 l 268 153 l 776 153 l 746 0 l 57 0 m 671 458 q 601 486 629 458 q 574 554 574 514 q 606 635 574 604 q 682 667 639 667 q 749 640 721 667 q 776 569 776 613 q 744 490 776 521 q 671 458 713 458 z "},"ŀ":{"ha":529,"x_min":40,"x_max":585,"o":"m 40 0 l 246 1031 l 419 1031 l 214 0 l 40 0 m 489 407 q 426 431 451 407 q 400 496 400 456 q 428 567 400 539 q 496 596 456 596 q 559 572 533 596 q 585 507 585 547 q 557 436 585 465 q 489 407 529 407 z "},"Ł":{"ha":846,"x_min":-3,"x_max":790,"o":"m 71 0 l 265 972 l 446 972 l 282 153 l 790 153 l 760 0 l 71 0 m 67 321 l -3 425 l 547 788 l 617 685 l 67 321 z "},"ł":{"ha":431,"x_min":-25,"x_max":508,"o":"m 54 0 l 260 1031 l 433 1031 l 228 0 l 54 0 m 38 297 l -25 396 l 444 707 l 508 607 l 38 297 z "},"Ń":{"ha":1125,"x_min":57,"x_max":1114,"o":"m 57 0 l 251 972 l 400 972 l 843 218 l 786 225 l 935 972 l 1114 972 l 919 0 l 771 0 l 329 754 l 386 747 l 236 0 l 57 0 z "},"ń":{"ha":951,"x_min":40,"x_max":875,"o":"m 592 750 q 754 711 688 750 q 848 597 821 672 q 853 411 875 521 l 771 0 l 597 0 l 678 407 q 661 548 696 497 q 535 599 626 599 q 376 546 439 599 q 292 385 314 493 l 214 0 l 40 0 l 188 742 l 353 742 l 311 531 l 283 597 q 416 713 336 676 q 592 750 496 750 m 454 843 l 664 1033 l 872 1033 l 610 843 l 454 843 z "},"Ņ":{"ha":1125,"x_min":57,"x_max":1114,"o":"m 57 0 l 251 972 l 400 972 l 843 218 l 786 225 l 935 972 l 1114 972 l 919 0 l 771 0 l 329 754 l 386 747 l 236 0 l 57 0 m 351 -368 l 432 -199 l 443 -261 q 387 -243 407 -261 q 367 -199 367 -225 q 389 -139 367 -162 q 454 -115 411 -115 q 515 -135 494 -115 q 535 -182 535 -154 q 527 -219 535 -201 q 497 -269 519 -237 l 433 -368 l 351 -368 z "},"ņ":{"ha":951,"x_min":40,"x_max":875,"o":"m 592 750 q 754 711 688 750 q 848 597 821 672 q 853 411 875 521 l 771 0 l 597 0 l 678 407 q 661 548 696 497 q 535 599 626 599 q 376 546 439 599 q 292 385 314 493 l 214 0 l 40 0 l 188 742 l 353 742 l 311 531 l 283 597 q 416 713 336 676 q 592 750 496 750 m 268 -368 l 349 -199 l 360 -261 q 303 -243 324 -261 q 283 -199 283 -225 q 306 -139 283 -162 q 371 -115 328 -115 q 431 -135 411 -115 q 451 -182 451 -154 q 444 -219 451 -201 q 414 -269 436 -237 l 350 -368 l 268 -368 z "},"Ň":{"ha":1125,"x_min":57,"x_max":1114,"o":"m 57 0 l 251 972 l 400 972 l 843 218 l 786 225 l 935 972 l 1114 972 l 919 0 l 771 0 l 329 754 l 386 747 l 236 0 l 57 0 z "},"ň":{"ha":951,"x_min":40,"x_max":875,"o":"m 592 750 q 754 711 688 750 q 848 597 821 672 q 853 411 875 521 l 771 0 l 597 0 l 678 407 q 661 548 696 497 q 535 599 626 599 q 376 546 439 599 q 292 385 314 493 l 214 0 l 40 0 l 188 742 l 353 742 l 311 531 l 283 597 q 416 713 336 676 q 592 750 496 750 m 501 843 l 340 1033 l 479 1033 l 650 874 l 515 874 l 724 1033 l 869 1033 l 660 843 l 501 843 z "},"ŉ":{"ha":1058,"x_min":13,"x_max":982,"o":"m 699 750 q 861 711 794 750 q 955 597 928 672 q 960 411 982 521 l 878 0 l 704 0 l 785 407 q 768 548 803 497 q 642 599 733 599 q 483 546 546 599 q 399 385 421 493 l 321 0 l 147 0 l 294 742 l 460 742 l 418 531 l 390 597 q 523 713 443 676 q 699 750 603 750 z "},"Ŋ":{"ha":1125,"x_min":57,"x_max":1114,"o":"m 57 0 l 251 972 l 400 972 l 843 218 l 771 0 l 329 754 l 386 747 l 236 0 l 57 0 m 569 -279 q 423 -251 493 -279 q 315 -174 353 -222 l 414 -51 q 483 -106 442 -86 q 575 -126 524 -126 q 689 -88 646 -126 q 749 42 732 -50 l 935 972 l 1114 972 l 935 74 q 858 -140 907 -62 q 737 -248 808 -217 q 569 -279 665 -279 z "},"ŋ":{"ha":951,"x_min":40,"x_max":875,"o":"m 474 -279 q 379 -269 422 -279 q 303 -236 336 -258 l 375 -107 q 474 -136 414 -136 q 551 -108 524 -136 q 593 -17 579 -79 l 678 407 q 661 548 696 497 q 535 599 626 599 q 376 546 439 599 q 292 385 314 493 l 214 0 l 40 0 l 188 742 l 353 742 l 311 531 l 283 597 q 416 713 336 676 q 592 750 496 750 q 754 711 688 750 q 848 597 821 672 q 853 411 875 521 l 768 -14 q 474 -279 715 -279 z "},"Ō":{"ha":1169,"x_min":78,"x_max":1139,"o":"m 543 -14 q 292 39 396 -14 q 133 185 188 92 q 78 401 78 279 q 119 631 78 525 q 240 817 161 738 q 429 941 319 896 q 674 986 539 986 q 924 933 819 986 q 1083 787 1028 881 q 1139 571 1139 693 q 1097 341 1139 447 q 975 156 1054 235 q 787 31 896 76 q 543 -14 678 -14 m 558 144 q 724 177 650 144 q 849 267 797 210 q 929 401 901 325 q 957 560 957 476 q 922 700 957 639 q 821 794 888 761 q 657 828 754 828 q 492 795 567 828 q 366 705 418 763 q 287 572 314 647 q 260 413 260 496 q 294 272 260 333 q 394 178 328 211 q 558 144 461 144 z "},"ō":{"ha":896,"x_min":47,"x_max":849,"o":"m 407 -10 q 217 31 299 -10 q 92 145 136 72 q 47 317 47 218 q 104 540 47 442 q 260 694 161 638 q 488 750 360 750 q 678 710 597 750 q 804 598 760 671 q 849 425 849 525 q 792 203 849 301 q 635 47 735 104 q 407 -10 536 -10 m 418 139 q 550 174 493 139 q 640 272 607 210 q 674 417 674 335 q 622 553 674 503 q 478 603 571 603 q 347 567 404 603 q 256 469 289 532 q 222 325 222 407 q 274 188 222 238 q 418 139 325 139 m 306 886 l 325 990 l 807 990 l 788 886 l 306 886 z "},"Ŏ":{"ha":1169,"x_min":78,"x_max":1139,"o":"m 543 -14 q 292 39 396 -14 q 133 185 188 92 q 78 401 78 279 q 119 631 78 525 q 240 817 161 738 q 429 941 319 896 q 674 986 539 986 q 924 933 819 986 q 1083 787 1028 881 q 1139 571 1139 693 q 1097 341 1139 447 q 975 156 1054 235 q 787 31 896 76 q 543 -14 678 -14 m 558 144 q 724 177 650 144 q 849 267 797 210 q 929 401 901 325 q 957 560 957 476 q 922 700 957 639 q 821 794 888 761 q 657 828 754 828 q 492 795 567 828 q 366 705 418 763 q 287 572 314 647 q 260 413 260 496 q 294 272 260 333 q 394 178 328 211 q 558 144 461 144 z "},"ŏ":{"ha":896,"x_min":47,"x_max":849,"o":"m 407 -10 q 217 31 299 -10 q 92 145 136 72 q 47 317 47 218 q 104 540 47 442 q 260 694 161 638 q 488 750 360 750 q 678 710 597 750 q 804 598 760 671 q 849 425 849 525 q 792 203 849 301 q 635 47 735 104 q 407 -10 536 -10 m 418 139 q 550 174 493 139 q 640 272 607 210 q 674 417 674 335 q 622 553 674 503 q 478 603 571 603 q 347 567 404 603 q 256 469 289 532 q 222 325 222 407 q 274 188 222 238 q 418 139 325 139 m 551 833 q 435 858 486 833 q 356 927 383 882 q 333 1033 329 972 l 444 1033 q 475 957 443 985 q 561 929 507 929 q 653 957 615 929 q 699 1033 690 985 l 815 1033 q 726 888 799 942 q 551 833 653 833 z "},"Ő":{"ha":1169,"x_min":78,"x_max":1139,"o":"m 543 -14 q 292 39 396 -14 q 133 185 188 92 q 78 401 78 279 q 119 631 78 525 q 240 817 161 738 q 429 941 319 896 q 674 986 539 986 q 924 933 819 986 q 1083 787 1028 881 q 1139 571 1139 693 q 1097 341 1139 447 q 975 156 1054 235 q 787 31 896 76 q 543 -14 678 -14 m 558 144 q 724 177 650 144 q 849 267 797 210 q 929 401 901 325 q 957 560 957 476 q 922 700 957 639 q 821 794 888 761 q 657 828 754 828 q 492 795 567 828 q 366 705 418 763 q 287 572 314 647 q 260 413 260 496 q 294 272 260 333 q 394 178 328 211 q 558 144 461 144 z "},"ő":{"ha":896,"x_min":47,"x_max":908,"o":"m 407 -10 q 217 31 299 -10 q 92 145 136 72 q 47 317 47 218 q 104 540 47 442 q 260 694 161 638 q 488 750 360 750 q 678 710 597 750 q 804 598 760 671 q 849 425 849 525 q 792 203 849 301 q 635 47 735 104 q 407 -10 536 -10 m 418 139 q 550 174 493 139 q 640 272 607 210 q 674 417 674 335 q 622 553 674 503 q 478 603 571 603 q 347 567 404 603 q 256 469 289 532 q 222 325 222 407 q 274 188 222 238 q 418 139 325 139 m 599 843 l 731 1033 l 908 1033 l 738 843 l 599 843 m 338 843 l 471 1033 l 647 1033 l 478 843 l 338 843 z "},"Œ":{"ha":1571,"x_min":78,"x_max":1600,"o":"m 549 0 q 296 49 401 0 q 134 190 190 99 q 78 401 78 281 q 121 636 78 531 q 244 816 164 742 q 435 931 324 890 q 682 972 546 972 l 938 972 l 908 819 l 678 819 q 453 766 547 819 q 310 621 360 713 q 260 413 260 529 q 294 275 260 333 q 397 185 328 217 q 568 153 465 153 l 771 153 l 743 0 l 549 0 m 697 0 l 892 972 l 1600 972 l 1569 821 l 1040 821 l 907 151 l 1456 151 l 1425 0 l 697 0 m 947 419 l 976 568 l 1460 568 l 1431 419 l 947 419 z "},"œ":{"ha":1476,"x_min":47,"x_max":1433,"o":"m 396 -10 q 213 31 292 -10 q 91 145 135 72 q 47 317 47 218 q 102 540 47 442 q 253 694 157 638 q 474 750 350 750 q 657 710 579 750 q 778 598 735 671 q 821 425 821 525 q 767 203 821 301 q 617 47 713 104 q 396 -10 521 -10 m 418 139 q 550 174 493 139 q 640 272 607 210 q 674 417 674 335 q 622 553 674 503 q 478 603 571 603 q 347 567 404 603 q 256 469 289 532 q 222 325 222 407 q 274 189 222 239 q 418 139 325 139 m 1031 -10 q 842 31 922 -10 q 719 145 763 72 q 676 317 676 218 q 731 540 676 443 q 879 694 785 638 q 1092 750 974 750 q 1272 711 1196 750 q 1391 599 1349 672 q 1433 425 1433 526 q 1431 371 1433 399 q 1422 319 1428 343 l 793 319 l 813 435 l 1340 435 l 1269 396 q 1260 514 1281 467 q 1194 586 1239 561 q 1083 611 1149 611 q 951 576 1007 611 q 864 476 894 540 q 833 325 833 411 q 885 186 833 235 q 1047 138 938 138 q 1167 158 1111 138 q 1261 214 1224 178 l 1335 93 q 1196 16 1276 42 q 1031 -10 1115 -10 z "},"Ŕ":{"ha":1015,"x_min":57,"x_max":999,"o":"m 57 0 l 251 972 l 629 972 q 902 895 806 972 q 999 679 999 818 q 942 469 999 557 q 782 333 886 381 q 535 285 678 285 l 218 285 l 311 367 l 239 0 l 57 0 m 696 0 l 497 353 l 689 353 l 888 0 l 696 0 m 307 346 l 246 433 l 540 433 q 744 492 672 433 q 817 663 817 550 q 763 781 817 742 q 610 819 710 819 l 326 819 l 421 910 l 307 346 z "},"ŕ":{"ha":583,"x_min":40,"x_max":721,"o":"m 40 0 l 188 742 l 353 742 l 311 531 l 296 592 q 426 716 347 682 q 619 750 506 750 l 588 585 q 567 588 576 588 q 544 589 557 589 q 376 535 443 589 q 288 365 310 482 l 214 0 l 40 0 m 303 843 l 513 1033 l 721 1033 l 458 843 l 303 843 z "},"Ŗ":{"ha":1015,"x_min":57,"x_max":999,"o":"m 57 0 l 251 972 l 629 972 q 902 895 806 972 q 999 679 999 818 q 942 469 999 557 q 782 333 886 381 q 535 285 678 285 l 218 285 l 311 367 l 239 0 l 57 0 m 696 0 l 497 353 l 689 353 l 888 0 l 696 0 m 307 346 l 246 433 l 540 433 q 744 492 672 433 q 817 663 817 550 q 763 781 817 742 q 610 819 710 819 l 326 819 l 421 910 l 307 346 m 306 -368 l 386 -199 l 397 -261 q 341 -243 361 -261 q 321 -199 321 -225 q 343 -139 321 -162 q 408 -115 365 -115 q 469 -135 449 -115 q 489 -182 489 -154 q 481 -219 489 -201 q 451 -269 474 -237 l 388 -368 l 306 -368 z "},"ŗ":{"ha":583,"x_min":-10,"x_max":619,"o":"m 40 0 l 188 742 l 353 742 l 311 531 l 296 592 q 426 716 347 682 q 619 750 506 750 l 588 585 q 567 588 576 588 q 544 589 557 589 q 376 535 443 589 q 288 365 310 482 l 214 0 l 40 0 m -10 -368 l 71 -199 l 82 -261 q 26 -243 46 -261 q 6 -199 6 -225 q 28 -139 6 -162 q 93 -115 50 -115 q 153 -135 133 -115 q 174 -182 174 -154 q 166 -219 174 -201 q 136 -269 158 -237 l 72 -368 l -10 -368 z "},"Ř":{"ha":1015,"x_min":57,"x_max":999,"o":"m 57 0 l 251 972 l 629 972 q 902 895 806 972 q 999 679 999 818 q 942 469 999 557 q 782 333 886 381 q 535 285 678 285 l 218 285 l 311 367 l 239 0 l 57 0 m 696 0 l 497 353 l 689 353 l 888 0 l 696 0 m 307 346 l 246 433 l 540 433 q 744 492 672 433 q 817 663 817 550 q 763 781 817 742 q 610 819 710 819 l 326 819 l 421 910 l 307 346 z "},"ř":{"ha":583,"x_min":40,"x_max":718,"o":"m 40 0 l 188 742 l 353 742 l 311 531 l 296 592 q 426 716 347 682 q 619 750 506 750 l 588 585 q 567 588 576 588 q 544 589 557 589 q 376 535 443 589 q 288 365 310 482 l 214 0 l 40 0 m 350 843 l 189 1033 l 328 1033 l 499 874 l 364 874 l 572 1033 l 718 1033 l 508 843 l 350 843 z "},"Ś":{"ha":874,"x_min":-1,"x_max":883,"o":"m 375 -14 q 227 1 299 -14 q 97 42 156 17 q -1 100 38 68 l 75 242 q 167 185 115 208 q 276 149 218 161 q 392 136 333 136 q 515 153 463 136 q 597 200 568 169 q 625 274 625 231 q 599 337 625 313 q 528 377 572 361 q 433 408 485 393 q 328 441 381 422 q 232 488 275 460 q 162 561 189 517 q 135 672 135 606 q 188 838 135 768 q 337 947 242 908 q 558 986 432 986 q 738 965 653 986 q 883 904 822 944 l 813 761 q 690 817 758 797 q 549 836 622 836 q 424 818 476 836 q 343 768 371 800 q 314 693 315 736 q 340 628 314 653 q 410 588 367 604 q 506 556 453 571 q 610 524 558 542 q 707 478 663 506 q 778 408 751 450 q 804 301 804 365 q 751 135 804 206 q 601 25 697 64 q 375 -14 504 -14 z "},"ś":{"ha":715,"x_min":-19,"x_max":746,"o":"m 293 -10 q 111 14 196 -10 q -19 71 26 38 l 53 204 q 167 152 99 172 q 311 132 236 132 q 438 156 397 132 q 479 221 479 179 q 450 267 479 251 q 376 292 421 282 q 278 313 331 301 q 181 343 226 324 q 107 400 136 363 q 78 500 78 438 q 122 635 78 579 q 247 720 167 690 q 431 750 326 750 q 578 733 506 750 q 697 686 650 717 l 633 553 q 526 597 583 585 q 414 610 468 610 q 288 584 329 610 q 247 519 247 558 q 276 472 247 489 q 351 445 306 456 q 448 424 396 435 q 545 394 500 414 q 619 338 590 375 q 649 240 649 301 q 603 103 649 160 q 478 19 558 47 q 293 -10 397 -10 m 328 843 l 538 1033 l 746 1033 l 483 843 l 328 843 z "},"Ŝ":{"ha":874,"x_min":-1,"x_max":883,"o":"m 375 -14 q 227 1 299 -14 q 97 42 156 17 q -1 100 38 68 l 75 242 q 167 185 115 208 q 276 149 218 161 q 392 136 333 136 q 515 153 463 136 q 597 200 568 169 q 625 274 625 231 q 599 337 625 313 q 528 377 572 361 q 433 408 485 393 q 328 441 381 422 q 232 488 275 460 q 162 561 189 517 q 135 672 135 606 q 188 838 135 768 q 337 947 242 908 q 558 986 432 986 q 738 965 653 986 q 883 904 822 944 l 813 761 q 690 817 758 797 q 549 836 622 836 q 424 818 476 836 q 343 768 371 800 q 314 693 315 736 q 340 628 314 653 q 410 588 367 604 q 506 556 453 571 q 610 524 558 542 q 707 478 663 506 q 778 408 751 450 q 804 301 804 365 q 751 135 804 206 q 601 25 697 64 q 375 -14 504 -14 z "},"ŝ":{"ha":715,"x_min":-19,"x_max":713,"o":"m 293 -10 q 111 14 196 -10 q -19 71 26 38 l 53 204 q 167 152 99 172 q 311 132 236 132 q 438 156 397 132 q 479 221 479 179 q 450 267 479 251 q 376 292 421 282 q 278 313 331 301 q 181 343 226 324 q 107 400 136 363 q 78 500 78 438 q 122 635 78 579 q 247 720 167 690 q 431 750 326 750 q 578 733 506 750 q 697 686 650 717 l 633 553 q 526 597 583 585 q 414 610 468 610 q 288 584 329 610 q 247 519 247 558 q 276 472 247 489 q 351 445 306 456 q 448 424 396 435 q 545 394 500 414 q 619 338 590 375 q 649 240 649 301 q 603 103 649 160 q 478 19 558 47 q 293 -10 397 -10 m 183 843 l 393 1033 l 551 1033 l 713 843 l 574 843 l 403 1003 l 538 1003 l 329 843 l 183 843 z "},"Ş":{"ha":874,"x_min":-1,"x_max":883,"o":"m 375 -14 q 227 1 299 -14 q 97 42 156 17 q -1 100 38 68 l 75 242 q 167 185 115 208 q 276 149 218 161 q 392 136 333 136 q 515 153 463 136 q 597 200 568 169 q 625 274 625 231 q 599 337 625 313 q 528 377 572 361 q 433 408 485 393 q 328 441 381 422 q 232 488 275 460 q 162 561 189 517 q 135 672 135 606 q 188 838 135 768 q 337 947 242 908 q 558 986 432 986 q 738 965 653 986 q 883 904 822 944 l 813 761 q 690 817 758 797 q 549 836 622 836 q 424 818 476 836 q 343 768 371 800 q 314 693 315 736 q 340 628 314 653 q 410 588 367 604 q 506 556 453 571 q 610 524 558 542 q 707 478 663 506 q 778 408 751 450 q 804 301 804 365 q 751 135 804 206 q 601 25 697 64 q 375 -14 504 -14 m 279 -317 q 210 -309 242 -317 q 153 -287 178 -301 l 194 -206 q 240 -222 217 -217 q 290 -228 264 -228 q 353 -212 333 -228 q 372 -175 372 -197 q 357 -143 372 -154 q 307 -132 342 -132 l 264 -132 l 328 10 l 422 10 l 389 -68 q 464 -103 439 -75 q 489 -171 489 -131 q 428 -278 486 -239 q 279 -317 371 -317 z "},"ş":{"ha":715,"x_min":-19,"x_max":697,"o":"m 293 -10 q 111 14 196 -10 q -19 71 26 38 l 53 204 q 167 152 99 172 q 311 132 236 132 q 438 156 397 132 q 479 221 479 179 q 450 267 479 251 q 376 292 421 282 q 278 313 331 301 q 181 343 226 324 q 107 400 136 363 q 78 500 78 438 q 122 635 78 579 q 247 720 167 690 q 431 750 326 750 q 578 733 506 750 q 697 686 650 717 l 633 553 q 526 597 583 585 q 414 610 468 610 q 288 584 329 610 q 247 519 247 558 q 276 472 247 489 q 351 445 306 456 q 448 424 396 435 q 545 394 500 414 q 619 338 590 375 q 649 240 649 301 q 603 103 649 160 q 478 19 558 47 q 293 -10 397 -10 m 185 -317 q 115 -309 147 -317 q 58 -287 83 -301 l 100 -206 q 146 -222 122 -217 q 196 -228 169 -228 q 258 -212 239 -228 q 278 -175 278 -197 q 263 -143 278 -154 q 213 -132 247 -132 l 169 -132 l 233 10 l 328 10 l 294 -68 q 369 -103 344 -75 q 394 -171 394 -131 q 334 -278 392 -239 q 185 -317 276 -317 z "},"Š":{"ha":874,"x_min":-1,"x_max":883,"o":"m 375 -14 q 227 1 299 -14 q 97 42 156 17 q -1 100 38 68 l 75 242 q 167 185 115 208 q 276 149 218 161 q 392 136 333 136 q 515 153 463 136 q 597 200 568 169 q 625 274 625 231 q 599 337 625 313 q 528 377 572 361 q 433 408 485 393 q 328 441 381 422 q 232 488 275 460 q 162 561 189 517 q 135 672 135 606 q 188 838 135 768 q 337 947 242 908 q 558 986 432 986 q 738 965 653 986 q 883 904 822 944 l 813 761 q 690 817 758 797 q 549 836 622 836 q 424 818 476 836 q 343 768 371 800 q 314 693 315 736 q 340 628 314 653 q 410 588 367 604 q 506 556 453 571 q 610 524 558 542 q 707 478 663 506 q 778 408 751 450 q 804 301 804 365 q 751 135 804 206 q 601 25 697 64 q 375 -14 504 -14 z "},"š":{"ha":715,"x_min":-19,"x_max":743,"o":"m 293 -10 q 111 14 196 -10 q -19 71 26 38 l 53 204 q 167 152 99 172 q 311 132 236 132 q 438 156 397 132 q 479 221 479 179 q 450 267 479 251 q 376 292 421 282 q 278 313 331 301 q 181 343 226 324 q 107 400 136 363 q 78 500 78 438 q 122 635 78 579 q 247 720 167 690 q 431 750 326 750 q 578 733 506 750 q 697 686 650 717 l 633 553 q 526 597 583 585 q 414 610 468 610 q 288 584 329 610 q 247 519 247 558 q 276 472 247 489 q 351 445 306 456 q 448 424 396 435 q 545 394 500 414 q 619 338 590 375 q 649 240 649 301 q 603 103 649 160 q 478 19 558 47 q 293 -10 397 -10 m 375 843 l 214 1033 l 353 1033 l 524 874 l 389 874 l 597 1033 l 743 1033 l 533 843 l 375 843 z "},"Ţ":{"ha":836,"x_min":96,"x_max":950,"o":"m 254 0 l 418 819 l 96 819 l 126 972 l 950 972 l 919 819 l 597 819 l 435 0 l 254 0 m 250 -317 q 181 -309 213 -317 q 124 -287 149 -301 l 165 -206 q 211 -222 188 -217 q 261 -228 235 -228 q 324 -212 304 -228 q 343 -175 343 -197 q 328 -143 343 -154 q 278 -132 313 -132 l 235 -132 l 299 10 l 393 10 l 360 -68 q 435 -103 410 -75 q 460 -171 460 -131 q 399 -278 457 -239 q 250 -317 342 -317 z "},"ţ":{"ha":589,"x_min":61,"x_max":582,"o":"m 318 -10 q 194 22 246 -10 q 119 110 142 53 q 111 247 96 168 l 243 906 l 417 906 l 285 249 q 296 165 276 197 q 369 133 315 133 q 420 141 394 133 q 467 163 446 149 l 497 35 q 411 0 458 10 q 318 -10 364 -10 m 61 597 l 89 736 l 582 736 l 554 597 l 61 597 m 189 -317 q 119 -309 151 -317 q 63 -287 88 -301 l 104 -206 q 150 -222 126 -217 q 200 -228 174 -228 q 263 -212 243 -228 q 282 -175 282 -197 q 267 -143 282 -154 q 217 -132 251 -132 l 174 -132 l 238 10 l 332 10 l 299 -68 q 374 -103 349 -75 q 399 -171 399 -131 q 338 -278 396 -239 q 189 -317 281 -317 z "},"Ť":{"ha":836,"x_min":96,"x_max":950,"o":"m 254 0 l 418 819 l 96 819 l 126 972 l 950 972 l 919 819 l 597 819 l 435 0 l 254 0 z "},"ť":{"ha":589,"x_min":61,"x_max":694,"o":"m 318 -10 q 194 22 246 -10 q 119 110 142 53 q 111 247 96 168 l 243 906 l 417 906 l 285 249 q 296 165 276 197 q 369 133 315 133 q 420 141 394 133 q 467 163 446 149 l 497 35 q 411 0 458 10 q 318 -10 364 -10 m 61 597 l 89 736 l 582 736 l 554 597 l 61 597 m 503 808 l 557 1082 l 694 1082 l 618 808 l 503 808 z "},"Ŧ":{"ha":836,"x_min":96,"x_max":950,"o":"m 254 0 l 418 819 l 96 819 l 126 972 l 950 972 l 919 819 l 597 819 l 435 0 l 254 0 m 133 396 l 161 529 l 739 529 l 711 396 l 133 396 z "},"ŧ":{"ha":603,"x_min":33,"x_max":589,"o":"m 325 -10 q 201 22 253 -10 q 126 110 149 53 q 118 247 103 168 l 250 906 l 424 906 l 292 249 q 303 165 283 197 q 376 133 322 133 q 427 141 401 133 q 474 163 453 149 l 504 35 q 418 0 465 10 q 325 -10 371 -10 m 68 597 l 96 736 l 589 736 l 561 597 l 68 597 m 33 333 l 56 446 l 515 446 l 493 333 l 33 333 z "},"Ũ":{"ha":1096,"x_min":107,"x_max":1093,"o":"m 501 -14 q 272 40 364 -14 q 144 192 181 94 q 133 424 107 290 l 243 972 l 424 972 l 314 426 q 308 302 301 356 q 341 213 314 249 q 413 161 368 178 q 519 144 458 144 q 653 174 597 144 q 748 266 710 203 q 807 428 786 329 l 915 972 l 1093 972 l 982 415 q 818 94 939 201 q 501 -14 697 -14 z "},"ũ":{"ha":946,"x_min":78,"x_max":906,"o":"m 358 -10 q 199 30 265 -10 q 106 145 133 69 q 100 331 78 221 l 182 742 l 356 742 l 274 335 q 291 194 257 244 q 415 143 325 143 q 572 196 508 143 q 656 357 635 249 l 733 742 l 906 742 l 758 0 l 593 0 l 635 211 l 663 144 q 530 28 610 65 q 358 -10 450 -10 m 678 843 q 617 856 643 843 q 570 888 592 869 q 529 921 549 907 q 488 935 510 935 q 439 912 458 935 q 413 851 419 889 l 319 851 q 379 990 335 942 q 489 1038 424 1038 q 550 1024 524 1038 q 597 992 576 1010 q 636 960 617 974 q 678 946 656 946 q 728 969 708 946 q 753 1025 747 992 l 846 1025 q 788 891 832 939 q 678 843 743 843 z "},"Ū":{"ha":1096,"x_min":107,"x_max":1093,"o":"m 501 -14 q 272 40 364 -14 q 144 192 181 94 q 133 424 107 290 l 243 972 l 424 972 l 314 426 q 308 302 301 356 q 341 213 314 249 q 413 161 368 178 q 519 144 458 144 q 653 174 597 144 q 748 266 710 203 q 807 428 786 329 l 915 972 l 1093 972 l 982 415 q 818 94 939 201 q 501 -14 697 -14 z "},"ū":{"ha":946,"x_min":78,"x_max":906,"o":"m 358 -10 q 199 30 265 -10 q 106 145 133 69 q 100 331 78 221 l 182 742 l 356 742 l 274 335 q 291 194 257 244 q 415 143 325 143 q 572 196 508 143 q 656 357 635 249 l 733 742 l 906 742 l 758 0 l 593 0 l 635 211 l 663 144 q 530 28 610 65 q 358 -10 450 -10 m 332 886 l 351 990 l 833 990 l 814 886 l 332 886 z "},"Ŭ":{"ha":1096,"x_min":107,"x_max":1093,"o":"m 501 -14 q 272 40 364 -14 q 144 192 181 94 q 133 424 107 290 l 243 972 l 424 972 l 314 426 q 308 302 301 356 q 341 213 314 249 q 413 161 368 178 q 519 144 458 144 q 653 174 597 144 q 748 266 710 203 q 807 428 786 329 l 915 972 l 1093 972 l 982 415 q 818 94 939 201 q 501 -14 697 -14 z "},"ŭ":{"ha":946,"x_min":78,"x_max":906,"o":"m 358 -10 q 199 30 265 -10 q 106 145 133 69 q 100 331 78 221 l 182 742 l 356 742 l 274 335 q 291 194 257 244 q 415 143 325 143 q 572 196 508 143 q 656 357 635 249 l 733 742 l 906 742 l 758 0 l 593 0 l 635 211 l 663 144 q 530 28 610 65 q 358 -10 450 -10 m 578 833 q 461 858 513 833 q 383 927 410 882 q 360 1033 356 972 l 471 1033 q 501 957 469 985 q 588 929 533 929 q 679 957 642 929 q 725 1033 717 985 l 842 1033 q 752 888 825 942 q 578 833 679 833 z "},"Ů":{"ha":1096,"x_min":107,"x_max":1093,"o":"m 501 -14 q 272 40 364 -14 q 144 192 181 94 q 133 424 107 290 l 243 972 l 424 972 l 314 426 q 308 302 301 356 q 341 213 314 249 q 413 161 368 178 q 519 144 458 144 q 653 174 597 144 q 748 266 710 203 q 807 428 786 329 l 915 972 l 1093 972 l 982 415 q 818 94 939 201 q 501 -14 697 -14 m 715 1054 q 633 1076 669 1054 q 576 1134 597 1099 q 554 1213 554 1169 q 576 1294 554 1257 q 634 1352 597 1331 q 715 1374 671 1374 q 799 1352 763 1374 q 858 1294 836 1331 q 879 1213 879 1257 q 858 1133 879 1169 q 799 1076 836 1097 q 715 1054 763 1054 m 717 1125 q 780 1150 756 1125 q 804 1213 804 1175 q 779 1277 804 1251 q 715 1303 754 1303 q 654 1278 679 1303 q 629 1213 629 1253 q 653 1150 629 1175 q 717 1125 678 1125 z "},"ů":{"ha":946,"x_min":78,"x_max":906,"o":"m 358 -10 q 199 30 265 -10 q 106 145 133 69 q 100 331 78 221 l 182 742 l 356 742 l 274 335 q 291 194 257 244 q 415 143 325 143 q 572 196 508 143 q 656 357 635 249 l 733 742 l 906 742 l 758 0 l 593 0 l 635 211 l 663 144 q 530 28 610 65 q 358 -10 450 -10 m 590 824 q 508 846 544 824 q 451 903 472 868 q 429 982 429 939 q 451 1063 429 1026 q 509 1122 472 1100 q 590 1143 546 1143 q 674 1122 638 1143 q 733 1063 711 1100 q 754 982 754 1026 q 733 903 754 939 q 674 845 711 867 q 590 824 638 824 m 592 894 q 655 919 631 894 q 679 982 679 944 q 654 1047 679 1021 q 590 1072 629 1072 q 529 1047 554 1072 q 504 982 504 1022 q 528 919 504 944 q 592 894 553 894 z "},"Ű":{"ha":1096,"x_min":107,"x_max":1093,"o":"m 501 -14 q 272 40 364 -14 q 144 192 181 94 q 133 424 107 290 l 243 972 l 424 972 l 314 426 q 308 302 301 356 q 341 213 314 249 q 413 161 368 178 q 519 144 458 144 q 653 174 597 144 q 748 266 710 203 q 807 428 786 329 l 915 972 l 1093 972 l 982 415 q 818 94 939 201 q 501 -14 697 -14 z "},"ű":{"ha":946,"x_min":78,"x_max":935,"o":"m 358 -10 q 199 30 265 -10 q 106 145 133 69 q 100 331 78 221 l 182 742 l 356 742 l 274 335 q 291 194 257 244 q 415 143 325 143 q 572 196 508 143 q 656 357 635 249 l 733 742 l 906 742 l 758 0 l 593 0 l 635 211 l 663 144 q 530 28 610 65 q 358 -10 450 -10 m 625 843 l 757 1033 l 935 1033 l 764 843 l 625 843 m 364 843 l 497 1033 l 674 1033 l 504 843 l 364 843 z "},"Ų":{"ha":1096,"x_min":122,"x_max":1093,"o":"m 519 144 q 653 174 596 144 q 747 264 710 203 q 782 336 767 296 q 807 428 797 376 l 915 972 l 1093 972 l 982 415 q 861 138 947 242 q 638 1 775 33 q 467 -73 521 -26 q 414 -162 414 -119 q 433 -207 414 -192 q 482 -222 451 -222 q 529 -216 506 -222 q 572 -200 553 -210 l 590 -285 q 529 -308 563 -299 q 454 -317 496 -317 q 338 -283 383 -317 q 293 -186 293 -249 q 322 -88 293 -135 q 410 -7 351 -42 q 401 -6 404 -6 q 393 -4 399 -6 q 231 68 297 13 q 138 211 165 124 q 123 310 124 256 q 133 424 122 364 l 243 972 l 424 972 l 314 429 q 306 320 303 368 q 326 238 310 272 q 400 168 351 192 q 519 144 449 144 z "},"ų":{"ha":946,"x_min":78,"x_max":906,"o":"m 358 -10 q 199 30 265 -10 q 106 145 133 69 q 100 331 78 221 l 182 742 l 356 742 l 274 335 q 291 194 257 244 q 415 143 325 143 q 572 196 508 143 q 656 357 635 249 l 733 742 l 906 742 l 758 0 l 593 0 l 635 211 l 663 144 q 530 28 610 65 q 358 -10 450 -10 m 604 -317 q 487 -283 532 -317 q 442 -186 442 -249 q 471 -91 442 -135 q 555 -10 500 -47 q 686 56 610 26 l 758 0 q 649 -51 693 -24 q 584 -106 606 -78 q 563 -162 563 -133 q 582 -207 563 -192 q 631 -222 601 -222 q 678 -216 654 -222 q 722 -200 703 -210 l 739 -285 q 678 -308 711 -299 q 604 -317 644 -317 z "},"Ŵ":{"ha":1589,"x_min":157,"x_max":1672,"o":"m 285 0 l 157 972 l 336 972 l 450 94 l 357 94 l 831 972 l 999 972 l 1111 94 l 1024 94 l 1493 972 l 1672 972 l 1157 0 l 964 0 l 856 792 l 910 792 l 478 0 l 285 0 z "},"ŵ":{"ha":1281,"x_min":75,"x_max":1354,"o":"m 211 0 l 75 742 l 233 742 l 347 88 l 267 88 l 638 742 l 786 742 l 904 88 l 824 88 l 1190 742 l 1354 742 l 940 0 l 769 0 l 657 579 l 708 579 l 379 0 l 211 0 m 471 843 l 681 1033 l 839 1033 l 1000 843 l 861 843 l 690 1003 l 825 1003 l 617 843 l 471 843 z "},"Ŷ":{"ha":918,"x_min":108,"x_max":1051,"o":"m 294 0 l 371 388 l 392 271 l 108 972 l 288 972 l 514 411 l 408 410 l 863 972 l 1051 972 l 490 269 l 551 388 l 474 0 l 294 0 z "},"ŷ":{"ha":803,"x_min":-135,"x_max":883,"o":"m 60 -279 q -49 -261 4 -279 q -135 -214 -103 -243 l -49 -87 q 5 -122 -25 -108 q 74 -135 35 -135 q 151 -112 117 -135 q 219 -33 185 -89 l 285 68 l 301 86 l 710 742 l 883 742 l 372 -65 q 274 -193 321 -146 q 176 -260 226 -240 q 60 -279 125 -279 m 250 -26 l 68 742 l 242 742 l 388 101 l 250 -26 m 214 843 l 424 1033 l 582 1033 l 743 843 l 604 843 l 433 1003 l 568 1003 l 360 843 l 214 843 z "},"Ÿ":{"ha":918,"x_min":108,"x_max":1051,"o":"m 294 0 l 371 388 l 392 271 l 108 972 l 288 972 l 514 411 l 408 410 l 863 972 l 1051 972 l 490 269 l 551 388 l 474 0 l 294 0 z "},"Ź":{"ha":921,"x_min":-19,"x_max":990,"o":"m -19 0 l 4 121 l 779 888 l 794 819 l 158 819 l 190 972 l 990 972 l 965 851 l 192 85 l 175 153 l 842 153 l 811 0 l -19 0 z "},"ź":{"ha":739,"x_min":-22,"x_max":764,"o":"m -22 0 l -1 110 l 558 663 l 589 603 l 110 603 l 138 742 l 756 742 l 733 632 l 175 79 l 142 139 l 646 139 l 618 0 l -22 0 m 346 843 l 556 1033 l 764 1033 l 501 843 l 346 843 z "},"Ż":{"ha":921,"x_min":-19,"x_max":990,"o":"m -19 0 l 4 121 l 779 888 l 794 819 l 158 819 l 190 972 l 990 972 l 965 851 l 192 85 l 175 153 l 842 153 l 811 0 l -19 0 z "},"ż":{"ha":739,"x_min":-22,"x_max":756,"o":"m -22 0 l -1 110 l 558 663 l 589 603 l 110 603 l 138 742 l 756 742 l 733 632 l 175 79 l 142 139 l 646 139 l 618 0 l -22 0 m 482 860 q 415 884 440 860 q 389 946 389 908 q 420 1026 389 996 q 496 1057 451 1057 q 562 1032 536 1057 q 588 969 588 1007 q 557 890 588 921 q 482 860 526 860 z "},"Ž":{"ha":921,"x_min":-19,"x_max":990,"o":"m -19 0 l 4 121 l 779 888 l 794 819 l 158 819 l 190 972 l 990 972 l 965 851 l 192 85 l 175 153 l 842 153 l 811 0 l -19 0 z "},"ž":{"ha":739,"x_min":-22,"x_max":761,"o":"m -22 0 l -1 110 l 558 663 l 589 603 l 110 603 l 138 742 l 756 742 l 733 632 l 175 79 l 142 139 l 646 139 l 618 0 l -22 0 m 393 843 l 232 1033 l 371 1033 l 542 874 l 407 874 l 615 1033 l 761 1033 l 551 843 l 393 843 z "},"ſ":{"ha":442,"x_min":75,"x_max":696,"o":"m 78 0 l 236 789 q 335 974 260 908 q 533 1040 411 1040 q 623 1029 581 1040 q 696 996 665 1018 l 626 869 q 535 900 588 900 q 450 869 481 900 q 406 776 419 839 l 251 0 l 78 0 m 75 597 l 103 736 l 326 736 l 299 597 l 75 597 z "},"Ə":{"ha":1135,"x_min":74,"x_max":1103,"o":"m 528 -14 q 285 38 388 -14 q 128 184 183 90 q 74 399 74 278 q 78 460 74 429 q 92 539 82 492 l 949 539 l 921 397 l 190 397 l 257 469 q 252 437 254 449 q 250 406 250 425 q 283 261 250 321 q 383 169 317 201 q 542 138 449 138 q 702 172 632 138 q 821 267 772 207 q 896 403 869 326 q 922 560 922 479 q 889 701 922 640 q 790 794 856 761 q 626 828 725 828 q 461 800 540 828 q 321 719 382 772 l 235 849 q 416 951 310 915 q 640 986 522 986 q 890 933 788 986 q 1048 787 993 881 q 1103 569 1103 693 q 1062 340 1103 446 q 945 154 1021 233 q 763 31 869 75 q 528 -14 657 -14 z "},"ƒ":{"ha":650,"x_min":-243,"x_max":818,"o":"m -74 -279 q -172 -265 -128 -279 q -243 -231 -217 -251 l -161 -107 q -72 -136 -126 -136 q 12 -106 -25 -136 q 69 -18 49 -76 l 331 783 q 456 976 372 911 q 660 1040 540 1040 q 751 1030 710 1040 q 818 996 793 1019 l 732 868 q 694 890 718 882 q 644 897 671 897 q 556 867 594 897 q 499 779 518 838 l 469 697 l 453 619 l 236 -36 q 120 -217 200 -154 q -74 -279 40 -279 m 144 579 l 186 718 l 681 718 l 638 579 l 144 579 z "},"Ơ":{"ha":1169,"x_min":78,"x_max":1229,"o":"m 543 -14 q 292 39 396 -14 q 133 185 188 92 q 78 401 78 279 q 119 631 78 525 q 240 817 161 738 q 429 941 319 896 q 674 986 539 986 q 788 981 739 986 q 882 968 836 975 q 979 961 928 961 q 1075 988 1042 961 q 1108 1061 1108 1015 q 1101 1108 1108 1086 q 1081 1147 1093 1131 l 1186 1186 q 1217 1128 1206 1161 q 1229 1054 1229 1094 q 1201 943 1229 990 q 1125 870 1174 896 q 1013 844 1076 844 q 976 847 994 844 q 939 851 957 850 l 1008 876 q 1105 743 1071 821 q 1139 571 1139 665 q 1097 341 1139 447 q 975 156 1054 235 q 787 31 896 76 q 543 -14 678 -14 m 558 144 q 724 177 650 144 q 849 267 797 210 q 929 401 901 325 q 957 560 957 476 q 922 700 957 639 q 821 794 888 761 q 657 828 754 828 q 492 795 567 828 q 366 705 418 763 q 287 572 314 647 q 260 413 260 496 q 294 272 260 333 q 394 178 328 211 q 558 144 461 144 z "},"ơ":{"ha":896,"x_min":47,"x_max":924,"o":"m 407 -10 q 217 31 299 -10 q 92 145 136 72 q 47 317 47 218 q 104 540 47 442 q 260 694 161 638 q 488 750 360 750 q 577 748 542 750 q 642 743 613 746 q 706 740 671 740 q 774 765 744 740 q 804 832 804 789 q 796 878 804 857 q 776 918 788 900 l 882 957 q 913 897 901 931 q 924 826 924 864 q 897 717 924 763 q 820 647 869 671 q 707 624 771 624 q 655 626 678 624 q 604 631 632 628 l 724 678 q 815 574 782 638 q 849 425 849 511 q 792 203 849 301 q 635 47 735 104 q 407 -10 536 -10 m 418 139 q 550 174 493 139 q 640 272 607 210 q 674 417 674 335 q 622 553 674 503 q 478 603 571 603 q 347 567 404 603 q 256 469 289 532 q 222 325 222 407 q 274 189 222 239 q 418 139 325 139 z "},"Ư":{"ha":1113,"x_min":107,"x_max":1239,"o":"m 501 -14 q 272 40 364 -14 q 144 192 181 94 q 133 424 107 290 l 243 972 l 424 972 l 314 426 q 308 302 301 356 q 341 213 314 249 q 413 161 368 178 q 519 144 458 144 q 653 174 597 144 q 748 266 710 203 q 807 428 786 329 l 915 972 l 1093 972 l 982 415 q 818 94 939 201 q 501 -14 697 -14 m 1003 849 l 1003 972 l 1033 972 q 1097 997 1074 972 q 1119 1061 1119 1022 q 1112 1108 1119 1086 q 1092 1147 1104 1131 l 1197 1186 q 1228 1128 1217 1161 q 1239 1056 1239 1094 q 1214 946 1239 992 q 1142 874 1189 900 q 1031 849 1094 849 l 1003 849 z "},"ư":{"ha":963,"x_min":78,"x_max":1028,"o":"m 358 -10 q 199 30 265 -10 q 106 145 133 69 q 100 331 78 221 l 182 742 l 356 742 l 274 335 q 291 194 257 244 q 415 143 325 143 q 572 196 508 143 q 656 357 635 249 l 733 742 l 906 742 l 758 0 l 593 0 l 635 211 l 663 144 q 530 28 610 65 q 358 -10 450 -10 m 792 618 l 792 742 l 822 742 q 885 767 863 742 q 908 831 908 792 q 901 878 908 856 q 881 917 893 900 l 986 956 q 1017 897 1006 931 q 1028 825 1028 864 q 1003 715 1028 761 q 931 644 978 669 q 819 618 883 618 l 792 618 z "},"Ʒ":{"ha":846,"x_min":-12,"x_max":860,"o":"m 336 -14 q 136 17 228 -14 q -12 103 44 49 l 78 240 q 192 170 122 197 q 347 143 263 143 q 476 163 424 143 q 558 221 529 183 q 586 310 586 258 q 540 403 586 372 q 399 435 493 435 l 310 435 l 335 558 l 675 888 l 693 821 l 168 821 l 199 972 l 860 972 l 838 851 l 496 521 l 408 575 l 449 575 q 621 544 550 575 q 730 456 692 514 q 768 319 768 399 q 714 148 768 224 q 562 29 660 72 q 336 -14 464 -14 z "},"Ǆ":{"ha":2017,"x_min":57,"x_max":2079,"o":"m 57 0 l 251 972 l 644 972 q 899 923 793 972 q 1060 783 1004 874 q 1117 571 1117 693 q 1073 336 1117 442 q 949 156 1029 231 q 758 41 869 82 q 511 0 647 0 l 57 0 m 268 153 l 517 153 q 741 206 647 153 q 885 351 835 260 q 935 560 935 443 q 900 697 935 639 q 797 788 865 756 q 625 819 728 819 l 401 819 l 268 153 m 1069 0 l 1093 121 l 1868 888 l 1883 819 l 1247 819 l 1279 972 l 2079 972 l 2054 851 l 1281 85 l 1264 153 l 1931 153 l 1900 0 l 1069 0 z "},"ǅ":{"ha":1886,"x_min":57,"x_max":1908,"o":"m 57 0 l 251 972 l 644 972 q 899 923 793 972 q 1060 783 1004 874 q 1117 571 1117 693 q 1073 336 1117 442 q 949 156 1029 231 q 758 41 869 82 q 511 0 647 0 l 57 0 m 268 153 l 517 153 q 741 206 647 153 q 885 351 835 260 q 935 560 935 443 q 900 697 935 639 q 797 788 865 756 q 625 819 728 819 l 401 819 l 268 153 m 1125 0 l 1146 110 l 1706 663 l 1736 603 l 1257 603 l 1285 742 l 1903 742 l 1881 632 l 1322 79 l 1289 139 l 1793 139 l 1765 0 l 1125 0 m 1540 843 l 1379 1033 l 1518 1033 l 1689 874 l 1554 874 l 1763 1033 l 1908 1033 l 1699 843 l 1540 843 z "},"ǆ":{"ha":1692,"x_min":49,"x_max":1715,"o":"m 375 -10 q 210 29 285 -10 q 92 141 135 68 q 49 317 49 214 q 80 490 49 411 q 168 628 111 569 q 301 718 225 686 q 465 750 376 750 q 624 718 557 750 q 726 622 690 686 q 763 464 763 558 q 736 273 763 360 q 660 123 710 186 q 538 25 610 60 q 375 -10 467 -10 m 419 139 q 551 174 493 139 q 641 272 608 210 q 674 417 674 335 q 623 553 674 503 q 478 603 572 603 q 347 567 406 603 q 256 469 289 532 q 224 325 224 407 q 274 189 224 239 q 419 139 325 139 m 600 0 l 635 169 l 681 367 l 704 565 l 797 1031 l 971 1031 l 765 0 l 600 0 m 932 0 l 953 110 l 1513 663 l 1543 603 l 1064 603 l 1092 742 l 1710 742 l 1688 632 l 1129 79 l 1096 139 l 1600 139 l 1572 0 l 932 0 m 1347 843 l 1186 1033 l 1325 1033 l 1496 874 l 1361 874 l 1569 1033 l 1715 1033 l 1506 843 l 1347 843 z "},"Ǉ":{"ha":1564,"x_min":57,"x_max":1561,"o":"m 57 0 l 251 972 l 432 972 l 268 153 l 776 153 l 746 0 l 57 0 m 1069 -14 q 887 24 964 -14 q 769 131 810 61 l 890 247 q 965 167 919 196 q 1072 139 1011 139 q 1189 179 1143 139 q 1251 308 1235 219 l 1354 821 l 1007 821 l 1038 972 l 1561 972 l 1431 318 q 1359 123 1407 196 q 1239 18 1311 50 q 1069 -14 1167 -14 z "},"ǈ":{"ha":1240,"x_min":57,"x_max":1269,"o":"m 57 0 l 251 972 l 432 972 l 268 153 l 776 153 l 746 0 l 57 0 m 754 -279 q 660 -269 703 -279 q 583 -236 617 -258 l 656 -107 q 754 -136 696 -136 q 833 -108 804 -136 q 875 -17 861 -79 l 1026 742 l 1200 742 l 1049 -14 q 754 -279 996 -279 m 1151 864 q 1076 892 1104 864 q 1047 961 1047 921 q 1080 1040 1047 1008 q 1165 1072 1113 1072 q 1240 1045 1211 1072 q 1269 979 1269 1018 q 1238 896 1269 928 q 1151 864 1206 864 z "},"ǉ":{"ha":811,"x_min":40,"x_max":839,"o":"m 40 0 l 246 1031 l 419 1031 l 214 0 l 40 0 m 324 -279 q 229 -269 272 -279 q 153 -236 186 -258 l 225 -107 q 324 -136 265 -136 q 402 -108 374 -136 q 444 -17 431 -79 l 596 742 l 769 742 l 618 -14 q 324 -279 565 -279 m 721 864 q 645 892 674 864 q 617 961 617 921 q 649 1040 617 1008 q 735 1072 682 1072 q 810 1045 781 1072 q 839 979 839 1018 q 807 896 839 928 q 721 864 775 864 z "},"Ǌ":{"ha":1857,"x_min":57,"x_max":1854,"o":"m 57 0 l 251 972 l 400 972 l 843 218 l 786 225 l 935 972 l 1114 972 l 919 0 l 771 0 l 329 754 l 386 747 l 236 0 l 57 0 m 1363 -14 q 1180 24 1257 -14 q 1063 131 1103 61 l 1183 247 q 1258 167 1213 196 q 1365 139 1304 139 q 1482 179 1436 139 q 1544 308 1528 219 l 1647 821 l 1300 821 l 1331 972 l 1854 972 l 1724 318 q 1652 123 1700 196 q 1532 18 1604 50 q 1363 -14 1460 -14 z "},"ǋ":{"ha":1535,"x_min":57,"x_max":1563,"o":"m 57 0 l 251 972 l 400 972 l 843 218 l 786 225 l 935 972 l 1114 972 l 919 0 l 771 0 l 329 754 l 386 747 l 236 0 l 57 0 m 1047 -279 q 953 -269 996 -279 q 876 -236 910 -258 l 949 -107 q 1047 -136 989 -136 q 1126 -108 1097 -136 q 1168 -17 1154 -79 l 1319 742 l 1493 742 l 1342 -14 q 1047 -279 1289 -279 m 1444 864 q 1369 892 1397 864 q 1340 961 1340 921 q 1373 1040 1340 1008 q 1458 1072 1406 1072 q 1533 1045 1504 1072 q 1563 979 1563 1018 q 1531 896 1563 928 q 1444 864 1499 864 z "},"ǌ":{"ha":1361,"x_min":40,"x_max":1389,"o":"m 592 750 q 754 711 688 750 q 848 597 821 672 q 853 411 875 521 l 771 0 l 597 0 l 678 407 q 661 548 696 497 q 535 599 626 599 q 376 546 439 599 q 292 385 314 493 l 214 0 l 40 0 l 188 742 l 353 742 l 311 531 l 283 597 q 416 713 336 676 q 592 750 496 750 m 874 -279 q 779 -269 822 -279 q 703 -236 736 -258 l 775 -107 q 874 -136 815 -136 q 952 -108 924 -136 q 994 -17 981 -79 l 1146 742 l 1319 742 l 1168 -14 q 874 -279 1115 -279 m 1271 864 q 1195 892 1224 864 q 1167 961 1167 921 q 1199 1040 1167 1008 q 1285 1072 1232 1072 q 1360 1045 1331 1072 q 1389 979 1389 1018 q 1357 896 1389 928 q 1271 864 1325 864 z "},"Ǎ":{"ha":1040,"x_min":-81,"x_max":972,"o":"m -81 0 l 551 972 l 731 972 l 972 0 l 793 0 l 590 879 l 663 879 l 113 0 l -81 0 m 167 225 l 243 367 l 767 367 l 790 225 l 167 225 z "},"ǎ":{"ha":953,"x_min":47,"x_max":913,"o":"m 374 -10 q 209 29 283 -10 q 91 141 135 68 q 47 317 47 214 q 78 490 47 411 q 167 628 110 569 q 299 718 224 686 q 465 750 375 750 q 626 717 558 750 q 728 616 693 683 q 760 449 763 549 q 710 208 757 311 q 578 47 663 104 q 374 -10 493 -10 m 418 139 q 550 174 493 139 q 640 272 607 210 q 674 417 674 335 q 622 553 674 503 q 478 603 571 603 q 347 567 404 603 q 256 469 289 532 q 222 325 222 407 q 274 189 222 239 q 418 139 325 139 m 600 0 l 633 169 l 681 367 l 704 565 l 739 742 l 913 742 l 765 0 l 600 0 m 497 843 l 336 1033 l 475 1033 l 646 874 l 511 874 l 719 1033 l 865 1033 l 656 843 l 497 843 z "},"Ǔ":{"ha":1096,"x_min":107,"x_max":1093,"o":"m 501 -14 q 272 40 364 -14 q 144 192 181 94 q 133 424 107 290 l 243 972 l 424 972 l 314 426 q 308 302 301 356 q 341 213 314 249 q 413 161 368 178 q 519 144 458 144 q 653 174 597 144 q 748 266 710 203 q 807 428 786 329 l 915 972 l 1093 972 l 982 415 q 818 94 939 201 q 501 -14 697 -14 z "},"ǔ":{"ha":946,"x_min":78,"x_max":906,"o":"m 358 -10 q 199 30 265 -10 q 106 145 133 69 q 100 331 78 221 l 182 742 l 356 742 l 274 335 q 291 194 257 244 q 415 143 325 143 q 572 196 508 143 q 656 357 635 249 l 733 742 l 906 742 l 758 0 l 593 0 l 635 211 l 663 144 q 530 28 610 65 q 358 -10 450 -10 m 492 843 l 331 1033 l 469 1033 l 640 874 l 506 874 l 714 1033 l 860 1033 l 650 843 l 492 843 z "},"Ǥ":{"ha":1124,"x_min":78,"x_max":1101,"o":"m 533 271 l 558 403 l 1101 403 l 1075 271 l 533 271 m 550 -14 q 299 39 404 -14 q 135 185 193 92 q 78 401 78 279 q 120 631 78 525 q 242 817 163 738 q 433 941 321 896 q 682 986 544 986 q 914 944 815 986 q 1072 826 1013 903 l 942 718 q 827 802 893 776 q 674 828 761 828 q 503 797 579 828 q 372 708 426 765 q 289 576 318 651 q 260 413 260 500 q 294 272 260 333 q 399 178 329 211 q 571 144 468 144 q 715 170 647 144 q 842 247 782 196 l 913 106 q 745 17 840 49 q 550 -14 650 -14 m 749 133 l 821 497 l 992 497 l 913 106 l 749 133 z "},"ǥ":{"ha":981,"x_min":-3,"x_max":928,"o":"m 344 -279 q 149 -253 238 -279 q -3 -178 61 -228 l 86 -49 q 200 -110 129 -86 q 354 -133 271 -133 q 540 -78 476 -133 q 624 83 603 -24 l 654 236 l 700 393 l 726 561 l 763 742 l 928 742 l 803 113 q 647 -187 761 -94 q 344 -279 533 -279 m 301 -69 l 322 35 l 874 36 l 854 -69 l 301 -69 m 386 75 q 215 110 290 75 q 98 209 140 144 q 56 365 56 274 q 109 560 56 474 q 257 699 163 647 q 474 750 351 750 q 621 724 553 750 q 731 640 689 697 q 774 492 774 583 q 728 282 774 376 q 596 131 682 188 q 386 75 510 75 m 426 213 q 557 243 500 213 q 647 328 614 274 q 681 453 681 383 q 629 570 681 526 q 485 614 578 614 q 353 583 411 614 q 263 497 296 551 q 231 372 231 443 q 283 256 231 299 q 426 213 335 213 z "},"Ǧ":{"ha":1072,"x_min":78,"x_max":1072,"o":"m 550 -14 q 299 39 404 -14 q 135 185 193 92 q 78 401 78 279 q 120 631 78 525 q 242 817 163 738 q 433 941 321 896 q 682 986 544 986 q 914 944 815 986 q 1072 826 1013 903 l 942 718 q 827 802 893 776 q 674 828 761 828 q 503 797 579 828 q 372 708 426 765 q 289 576 318 651 q 260 413 260 500 q 294 272 260 333 q 399 178 329 211 q 571 144 468 144 q 715 170 647 144 q 842 247 782 196 l 913 106 q 745 17 840 49 q 550 -14 650 -14 m 749 133 l 821 497 l 992 497 l 913 106 l 749 133 z "},"ǧ":{"ha":964,"x_min":-7,"x_max":924,"o":"m 340 -279 q 146 -253 235 -279 q -7 -178 57 -228 l 83 -47 q 197 -108 126 -85 q 351 -131 268 -131 q 536 -77 474 -131 q 619 83 599 -24 l 650 236 l 696 393 l 724 561 l 758 742 l 924 742 l 799 113 q 643 -187 757 -94 q 340 -279 529 -279 m 383 33 q 213 70 288 33 q 94 176 138 107 q 51 340 51 244 q 83 502 51 428 q 170 632 114 576 q 303 719 226 688 q 472 750 381 750 q 621 722 553 750 q 729 630 689 693 q 767 464 769 567 q 718 244 764 342 q 588 90 672 146 q 383 33 503 33 m 422 181 q 554 213 497 181 q 644 303 611 246 q 676 433 676 361 q 625 558 676 513 q 482 603 574 603 q 350 570 407 603 q 260 481 293 538 q 226 350 226 424 q 278 226 226 271 q 422 181 331 181 m 488 843 l 326 1033 l 465 1033 l 636 874 l 501 874 l 710 1033 l 856 1033 l 646 843 l 488 843 z "},"Ǩ":{"ha":1013,"x_min":57,"x_max":1125,"o":"m 268 233 l 292 446 l 897 972 l 1125 972 l 606 521 l 489 425 l 268 233 m 57 0 l 251 972 l 431 972 l 236 0 l 57 0 m 747 0 l 449 443 l 572 565 l 949 0 l 747 0 z "},"ǩ":{"ha":868,"x_min":40,"x_max":940,"o":"m 221 171 l 258 385 l 704 742 l 940 742 l 524 406 l 431 338 l 221 171 m 40 0 l 246 1031 l 419 1031 l 214 0 l 40 0 m 607 0 l 400 335 l 519 468 l 808 0 l 607 0 m 281 1132 l 119 1322 l 258 1322 l 429 1163 l 294 1163 l 503 1322 l 649 1322 l 439 1132 l 281 1132 z "},"Ǫ":{"ha":1169,"x_min":78,"x_max":1139,"o":"m 478 -317 q 362 -283 407 -317 q 317 -186 317 -249 q 365 -61 317 -119 q 519 36 414 -3 l 543 -14 q 292 39 396 -14 q 133 185 188 92 q 78 401 78 279 q 119 631 78 525 q 240 817 161 738 q 429 941 319 896 q 674 986 539 986 q 924 933 819 986 q 1083 787 1028 881 q 1139 571 1139 693 q 1083 309 1139 428 q 924 110 1026 190 q 686 1 822 29 q 538 -47 592 -19 q 460 -103 483 -74 q 438 -162 438 -133 q 456 -207 438 -192 q 506 -222 475 -222 q 553 -216 529 -222 q 596 -200 578 -210 l 614 -285 q 553 -308 586 -299 q 478 -317 519 -317 m 558 144 q 724 177 650 144 q 849 267 797 210 q 929 401 901 325 q 957 560 957 476 q 922 700 957 639 q 821 794 888 761 q 657 828 754 828 q 492 795 567 828 q 366 705 418 763 q 287 572 314 647 q 260 413 260 496 q 294 272 260 333 q 394 178 328 211 q 558 144 461 144 z "},"ǫ":{"ha":896,"x_min":47,"x_max":849,"o":"m 361 -317 q 244 -283 289 -317 q 199 -186 199 -249 q 245 -64 199 -119 q 386 31 292 -8 l 463 -6 q 434 -8 447 -7 q 407 -10 421 -10 q 217 31 299 -10 q 92 145 136 72 q 47 317 47 218 q 104 540 47 442 q 260 694 161 638 q 488 750 360 750 q 678 710 597 750 q 804 598 760 671 q 849 425 849 525 q 811 239 849 322 q 703 96 774 156 q 532 4 632 36 q 408 -47 456 -19 q 340 -104 361 -75 q 319 -162 319 -133 q 339 -207 319 -192 q 388 -222 358 -222 q 435 -216 411 -222 q 479 -200 460 -210 l 496 -285 q 435 -308 468 -299 q 361 -317 401 -317 m 418 139 q 550 174 493 139 q 640 272 607 210 q 674 417 674 335 q 622 553 674 503 q 478 603 571 603 q 347 567 404 603 q 256 469 289 532 q 222 325 222 407 q 274 189 222 239 q 418 139 325 139 z "},"Ǯ":{"ha":846,"x_min":-12,"x_max":860,"o":"m 336 -14 q 136 17 228 -14 q -12 103 44 49 l 78 240 q 192 170 122 197 q 347 143 263 143 q 476 163 424 143 q 558 221 529 183 q 586 310 586 258 q 540 403 586 372 q 399 435 493 435 l 310 435 l 335 558 l 675 888 l 693 821 l 168 821 l 199 972 l 860 972 l 838 851 l 496 521 l 408 575 l 449 575 q 621 544 550 575 q 730 456 692 514 q 768 319 768 399 q 714 148 768 224 q 562 29 660 72 q 336 -14 464 -14 z "},"ǯ":{"ha":746,"x_min":-128,"x_max":763,"o":"m 394 843 l 233 1033 l 372 1033 l 543 874 l 408 874 l 617 1033 l 763 1033 l 553 843 l 394 843 z "},"Ǻ":{"ha":1040,"x_min":-81,"x_max":972,"o":"m -81 0 l 551 972 l 731 972 l 972 0 l 793 0 l 590 879 l 663 879 l 113 0 l -81 0 m 167 225 l 243 367 l 767 367 l 790 225 l 167 225 m 688 1054 q 606 1076 642 1054 q 548 1134 569 1099 q 526 1213 526 1169 q 548 1294 526 1257 q 606 1352 569 1331 q 688 1374 643 1374 q 772 1352 735 1374 q 830 1294 808 1331 q 851 1213 851 1257 q 830 1133 851 1169 q 772 1076 808 1097 q 688 1054 735 1054 m 689 1125 q 752 1150 728 1125 q 776 1213 776 1175 q 751 1277 776 1251 q 688 1303 726 1303 q 626 1278 651 1303 q 601 1213 601 1253 q 626 1150 601 1175 q 689 1125 650 1125 m 810 1288 l 724 1317 l 881 1478 l 968 1408 l 810 1288 z "},"ǻ":{"ha":953,"x_min":47,"x_max":913,"o":"m 374 -10 q 209 29 283 -10 q 91 141 135 68 q 47 317 47 214 q 78 490 47 411 q 167 628 110 569 q 299 718 224 686 q 465 750 375 750 q 626 717 558 750 q 728 616 693 683 q 760 449 763 549 q 710 208 757 311 q 578 47 663 104 q 374 -10 493 -10 m 418 139 q 550 174 493 139 q 640 272 607 210 q 674 417 674 335 q 622 553 674 503 q 478 603 571 603 q 347 567 404 603 q 256 469 289 532 q 222 325 222 407 q 274 189 222 239 q 418 139 325 139 m 600 0 l 633 169 l 681 367 l 704 565 l 739 742 l 913 742 l 765 0 l 600 0 m 596 824 q 514 846 550 824 q 456 903 478 868 q 435 982 435 939 q 456 1063 435 1026 q 515 1122 478 1100 q 596 1143 551 1143 q 680 1122 643 1143 q 738 1063 717 1100 q 760 982 760 1026 q 738 903 760 939 q 680 845 717 867 q 596 824 643 824 m 597 894 q 660 919 636 894 q 685 982 685 944 q 660 1047 685 1021 q 596 1072 635 1072 q 535 1047 560 1072 q 510 982 510 1022 q 534 919 510 944 q 597 894 558 894 m 718 1057 l 632 1086 l 789 1247 l 876 1178 l 718 1057 z "},"Ǽ":{"ha":1478,"x_min":-82,"x_max":1507,"o":"m -82 0 l 669 972 l 860 972 l 833 824 l 676 824 l 804 899 l 118 0 l -82 0 m 235 225 l 268 367 l 739 367 l 713 225 l 235 225 m 606 0 l 800 972 l 1507 972 l 1476 821 l 947 821 l 814 151 l 1363 151 l 1332 0 l 606 0 m 851 419 l 883 568 l 1368 568 l 1338 419 l 851 419 z "},"ǽ":{"ha":1378,"x_min":31,"x_max":1335,"o":"m 318 -10 q 163 17 226 -10 q 65 90 99 43 q 31 200 31 138 q 113 369 31 304 q 360 433 194 433 l 583 433 l 567 318 l 351 318 q 240 290 279 318 q 201 211 201 263 q 234 142 201 168 q 339 117 267 117 q 429 134 388 117 q 499 187 471 151 q 540 279 528 222 l 572 440 q 549 562 589 519 q 414 604 508 604 q 290 585 351 604 q 185 536 228 567 l 135 668 q 228 715 176 696 q 336 742 281 733 q 442 750 392 750 q 646 702 574 750 q 732 564 718 654 l 647 569 q 738 668 685 628 q 854 729 790 708 q 988 750 918 750 q 1169 711 1092 750 q 1291 599 1247 672 q 1335 425 1335 526 q 1331 371 1335 399 q 1322 318 1328 343 l 690 318 l 710 433 l 1229 433 l 1165 396 q 1155 514 1176 467 q 1088 586 1133 561 q 979 611 1042 611 q 847 576 904 611 q 759 476 790 540 q 728 325 728 411 q 781 183 728 228 q 942 138 835 138 q 1063 157 1010 138 q 1157 214 1117 176 l 1232 93 q 1090 16 1171 42 q 925 -10 1010 -10 q 772 17 843 -10 q 650 97 700 43 q 581 238 600 151 l 676 235 q 591 89 646 142 q 467 13 536 36 q 318 -10 397 -10 m 618 842 l 828 1032 l 1036 1032 l 774 842 l 618 842 z "},"Ǿ":{"ha":1169,"x_min":8,"x_max":1207,"o":"m 543 -14 q 292 39 396 -14 q 133 185 188 92 q 78 401 78 279 q 119 631 78 525 q 240 817 161 738 q 429 941 319 896 q 674 986 539 986 q 924 933 819 986 q 1083 787 1028 881 q 1139 571 1139 693 q 1097 341 1139 447 q 975 156 1054 235 q 787 31 896 76 q 543 -14 678 -14 m 558 144 q 724 177 650 144 q 849 267 797 210 q 929 401 901 325 q 957 560 957 476 q 922 700 957 639 q 821 794 888 761 q 657 828 754 828 q 492 795 567 828 q 366 705 418 763 q 287 572 314 647 q 260 413 260 496 q 294 272 260 333 q 394 178 328 211 q 558 144 461 144 m 8 -97 l 1074 1069 l 1207 1069 l 143 -97 l 8 -97 z "},"ǿ":{"ha":896,"x_min":-4,"x_max":892,"o":"m 407 -10 q 217 31 299 -10 q 92 145 136 72 q 47 317 47 218 q 104 540 47 442 q 260 694 161 638 q 488 750 360 750 q 678 710 597 750 q 804 598 760 671 q 849 425 849 525 q 792 203 849 301 q 635 47 735 104 q 407 -10 536 -10 m 418 139 q 550 174 493 139 q 640 272 607 210 q 674 417 674 335 q 622 553 674 503 q 478 603 571 603 q 347 567 404 603 q 256 469 289 532 q 222 325 222 407 q 274 188 222 238 q 418 139 325 139 m -4 -97 l 789 836 l 892 836 l 99 -97 l -4 -97 m 418 843 l 628 1033 l 836 1033 l 574 843 l 418 843 z "},"Ȁ":{"ha":1040,"x_min":-81,"x_max":972,"o":"m -81 0 l 551 972 l 731 972 l 972 0 l 793 0 l 590 879 l 663 879 l 113 0 l -81 0 m 167 225 l 243 367 l 767 367 l 790 225 l 167 225 z "},"ȁ":{"ha":953,"x_min":47,"x_max":913,"o":"m 374 -10 q 209 29 283 -10 q 91 141 135 68 q 47 317 47 214 q 78 490 47 411 q 167 628 110 569 q 299 718 224 686 q 465 750 375 750 q 626 717 558 750 q 728 616 693 683 q 760 449 763 549 q 710 208 757 311 q 578 47 663 104 q 374 -10 493 -10 m 418 139 q 550 174 493 139 q 640 272 607 210 q 674 417 674 335 q 622 553 674 503 q 478 603 571 603 q 347 567 404 603 q 256 469 289 532 q 222 325 222 407 q 274 189 222 239 q 418 139 325 139 m 600 0 l 633 169 l 681 367 l 704 565 l 739 742 l 913 742 l 765 0 l 600 0 m 636 843 l 524 1033 l 690 1033 l 765 843 l 636 843 m 375 843 l 263 1033 l 429 1033 l 504 843 l 375 843 z "},"Ȃ":{"ha":1040,"x_min":-81,"x_max":972,"o":"m -81 0 l 551 972 l 731 972 l 972 0 l 793 0 l 590 879 l 663 879 l 113 0 l -81 0 m 167 225 l 243 367 l 767 367 l 790 225 l 167 225 z "},"ȃ":{"ha":953,"x_min":47,"x_max":913,"o":"m 374 -10 q 209 29 283 -10 q 91 141 135 68 q 47 317 47 214 q 78 490 47 411 q 167 628 110 569 q 299 718 224 686 q 465 750 375 750 q 626 717 558 750 q 728 616 693 683 q 760 449 763 549 q 710 208 757 311 q 578 47 663 104 q 374 -10 493 -10 m 418 139 q 550 174 493 139 q 640 272 607 210 q 674 417 674 335 q 622 553 674 503 q 478 603 571 603 q 347 567 404 603 q 256 469 289 532 q 222 325 222 407 q 274 189 222 239 q 418 139 325 139 m 600 0 l 633 169 l 681 367 l 704 565 l 739 742 l 913 742 l 765 0 l 600 0 m 329 843 q 419 990 346 936 q 593 1044 492 1044 q 709 1019 658 1044 q 788 949 760 994 q 810 843 815 904 l 700 843 q 670 921 701 892 q 583 950 639 950 q 492 921 529 950 q 446 843 454 892 l 329 843 z "},"Ȅ":{"ha":931,"x_min":57,"x_max":961,"o":"m 336 568 l 821 568 l 792 419 l 307 419 l 336 568 m 267 151 l 817 151 l 786 0 l 57 0 l 251 972 l 961 972 l 931 821 l 400 821 l 267 151 z "},"ȅ":{"ha":860,"x_min":47,"x_max":817,"o":"m 413 -10 q 219 31 301 -10 q 92 145 138 72 q 47 317 47 218 q 103 540 47 443 q 255 694 158 638 q 475 750 351 750 q 656 711 579 750 q 774 599 732 672 q 817 425 817 526 q 814 371 817 399 q 806 319 811 343 l 176 319 l 196 435 l 724 435 l 653 396 q 643 514 664 467 q 576 586 622 561 q 467 611 531 611 q 334 576 390 611 q 247 476 278 540 q 217 325 217 411 q 269 186 217 235 q 431 138 321 138 q 550 158 493 138 q 644 214 607 178 l 717 93 q 578 16 658 42 q 413 -10 499 -10 m 586 842 l 474 1032 l 640 1032 l 715 842 l 586 842 m 325 842 l 213 1032 l 379 1032 l 454 842 l 325 842 z "},"Ȇ":{"ha":931,"x_min":57,"x_max":961,"o":"m 336 568 l 821 568 l 792 419 l 307 419 l 336 568 m 267 151 l 817 151 l 786 0 l 57 0 l 251 972 l 961 972 l 931 821 l 400 821 l 267 151 z "},"ȇ":{"ha":860,"x_min":47,"x_max":817,"o":"m 413 -10 q 219 31 301 -10 q 92 145 138 72 q 47 317 47 218 q 103 540 47 443 q 255 694 158 638 q 475 750 351 750 q 656 711 579 750 q 774 599 732 672 q 817 425 817 526 q 814 371 817 399 q 806 319 811 343 l 176 319 l 196 435 l 724 435 l 653 396 q 643 514 664 467 q 576 586 622 561 q 467 611 531 611 q 334 576 390 611 q 247 476 278 540 q 217 325 217 411 q 269 186 217 235 q 431 138 321 138 q 550 158 493 138 q 644 214 607 178 l 717 93 q 578 16 658 42 q 413 -10 499 -10 m 279 842 q 369 989 296 935 q 543 1043 442 1043 q 659 1018 608 1043 q 738 948 710 993 q 760 842 765 903 l 650 842 q 620 919 651 890 q 533 949 589 949 q 442 919 479 949 q 396 842 404 890 l 279 842 z "},"Ȉ":{"ha":443,"x_min":50,"x_max":553,"o":"m 57 0 l 251 972 l 432 972 l 238 0 l 57 0 z "},"ȉ":{"ha":401,"x_min":-11,"x_max":492,"o":"m 40 0 l 188 742 l 361 742 l 214 0 l 40 0 m 363 843 l 250 1033 l 417 1033 l 492 843 l 363 843 m 101 843 l -11 1033 l 156 1033 l 231 843 l 101 843 z "},"Ȋ":{"ha":443,"x_min":57,"x_max":603,"o":"m 57 0 l 251 972 l 432 972 l 238 0 l 57 0 z "},"ȋ":{"ha":401,"x_min":40,"x_max":510,"o":"m 40 0 l 188 742 l 361 742 l 214 0 l 40 0 m 90 843 q 163 991 104 939 q 319 1043 222 1043 q 423 1019 379 1043 q 488 949 467 994 q 501 843 510 904 l 397 843 q 381 921 404 893 q 311 949 358 949 q 200 843 213 949 l 90 843 z "},"Ȍ":{"ha":1169,"x_min":78,"x_max":1139,"o":"m 543 -14 q 292 39 396 -14 q 133 185 188 92 q 78 401 78 279 q 119 631 78 525 q 240 817 161 738 q 429 941 319 896 q 674 986 539 986 q 924 933 819 986 q 1083 787 1028 881 q 1139 571 1139 693 q 1097 341 1139 447 q 975 156 1054 235 q 787 31 896 76 q 543 -14 678 -14 m 558 144 q 724 177 650 144 q 849 267 797 210 q 929 401 901 325 q 957 560 957 476 q 922 700 957 639 q 821 794 888 761 q 657 828 754 828 q 492 795 567 828 q 366 705 418 763 q 287 572 314 647 q 260 413 260 496 q 294 272 260 333 q 394 178 328 211 q 558 144 461 144 z "},"ȍ":{"ha":896,"x_min":47,"x_max":849,"o":"m 407 -10 q 217 31 299 -10 q 92 145 136 72 q 47 317 47 218 q 104 540 47 442 q 260 694 161 638 q 488 750 360 750 q 678 710 597 750 q 804 598 760 671 q 849 425 849 525 q 792 203 849 301 q 635 47 735 104 q 407 -10 536 -10 m 418 139 q 550 174 493 139 q 640 272 607 210 q 674 417 674 335 q 622 553 674 503 q 478 603 571 603 q 347 567 404 603 q 256 469 289 532 q 222 325 222 407 q 274 188 222 238 q 418 139 325 139 m 604 843 l 492 1033 l 658 1033 l 733 843 l 604 843 m 343 843 l 231 1033 l 397 1033 l 472 843 l 343 843 z "},"Ȏ":{"ha":1169,"x_min":78,"x_max":1139,"o":"m 543 -14 q 292 39 396 -14 q 133 185 188 92 q 78 401 78 279 q 119 631 78 525 q 240 817 161 738 q 429 941 319 896 q 674 986 539 986 q 924 933 819 986 q 1083 787 1028 881 q 1139 571 1139 693 q 1097 341 1139 447 q 975 156 1054 235 q 787 31 896 76 q 543 -14 678 -14 m 558 144 q 724 177 650 144 q 849 267 797 210 q 929 401 901 325 q 957 560 957 476 q 922 700 957 639 q 821 794 888 761 q 657 828 754 828 q 492 795 567 828 q 366 705 418 763 q 287 572 314 647 q 260 413 260 496 q 294 272 260 333 q 394 178 328 211 q 558 144 461 144 z "},"ȏ":{"ha":896,"x_min":47,"x_max":849,"o":"m 407 -10 q 217 31 299 -10 q 92 145 136 72 q 47 317 47 218 q 104 540 47 442 q 260 694 161 638 q 488 750 360 750 q 678 710 597 750 q 804 598 760 671 q 849 425 849 525 q 792 203 849 301 q 635 47 735 104 q 407 -10 536 -10 m 418 139 q 550 174 493 139 q 640 272 607 210 q 674 417 674 335 q 622 553 674 503 q 478 603 571 603 q 347 567 404 603 q 256 469 289 532 q 222 325 222 407 q 274 188 222 238 q 418 139 325 139 m 297 843 q 387 990 314 936 q 561 1044 460 1044 q 677 1019 626 1044 q 756 949 728 994 q 778 843 783 904 l 668 843 q 638 921 669 892 q 551 950 607 950 q 460 921 497 950 q 414 843 422 892 l 297 843 z "},"Ȑ":{"ha":1015,"x_min":57,"x_max":999,"o":"m 57 0 l 251 972 l 629 972 q 902 895 806 972 q 999 679 999 818 q 942 469 999 557 q 782 333 886 381 q 535 285 678 285 l 218 285 l 311 367 l 239 0 l 57 0 m 696 0 l 497 353 l 689 353 l 888 0 l 696 0 m 307 346 l 246 433 l 540 433 q 744 492 672 433 q 817 663 817 550 q 763 781 817 742 q 610 819 710 819 l 326 819 l 421 910 l 307 346 z "},"ȑ":{"ha":583,"x_min":40,"x_max":619,"o":"m 40 0 l 188 742 l 353 742 l 311 531 l 296 592 q 426 716 347 682 q 619 750 506 750 l 588 585 q 567 588 576 588 q 544 589 557 589 q 376 535 443 589 q 288 365 310 482 l 214 0 l 40 0 m 489 843 l 376 1033 l 543 1033 l 618 843 l 489 843 m 228 843 l 115 1033 l 282 1033 l 357 843 l 228 843 z "},"Ȓ":{"ha":1015,"x_min":57,"x_max":999,"o":"m 57 0 l 251 972 l 629 972 q 902 895 806 972 q 999 679 999 818 q 942 469 999 557 q 782 333 886 381 q 535 285 678 285 l 218 285 l 311 367 l 239 0 l 57 0 m 696 0 l 497 353 l 689 353 l 888 0 l 696 0 m 307 346 l 246 433 l 540 433 q 744 492 672 433 q 817 663 817 550 q 763 781 817 742 q 610 819 710 819 l 326 819 l 421 910 l 307 346 z "},"ȓ":{"ha":583,"x_min":40,"x_max":668,"o":"m 40 0 l 188 742 l 353 742 l 311 531 l 296 592 q 426 716 347 682 q 619 750 506 750 l 588 585 q 567 588 576 588 q 544 589 557 589 q 376 535 443 589 q 288 365 310 482 l 214 0 l 40 0 m 182 843 q 272 990 199 936 q 446 1044 344 1044 q 562 1019 511 1044 q 640 949 613 994 q 663 843 668 904 l 553 843 q 523 921 554 892 q 436 950 492 950 q 344 921 382 950 q 299 843 307 892 l 182 843 z "},"Ȕ":{"ha":1096,"x_min":107,"x_max":1093,"o":"m 501 -14 q 272 40 364 -14 q 144 192 181 94 q 133 424 107 290 l 243 972 l 424 972 l 314 426 q 308 302 301 356 q 341 213 314 249 q 413 161 368 178 q 519 144 458 144 q 653 174 597 144 q 748 266 710 203 q 807 428 786 329 l 915 972 l 1093 972 l 982 415 q 818 94 939 201 q 501 -14 697 -14 z "},"ȕ":{"ha":946,"x_min":78,"x_max":906,"o":"m 358 -10 q 199 30 265 -10 q 106 145 133 69 q 100 331 78 221 l 182 742 l 356 742 l 274 335 q 291 194 257 244 q 415 143 325 143 q 572 196 508 143 q 656 357 635 249 l 733 742 l 906 742 l 758 0 l 593 0 l 635 211 l 663 144 q 530 28 610 65 q 358 -10 450 -10 m 631 843 l 518 1033 l 685 1033 l 760 843 l 631 843 m 369 843 l 257 1033 l 424 1033 l 499 843 l 369 843 z "},"Ȗ":{"ha":1096,"x_min":107,"x_max":1093,"o":"m 501 -14 q 272 40 364 -14 q 144 192 181 94 q 133 424 107 290 l 243 972 l 424 972 l 314 426 q 308 302 301 356 q 341 213 314 249 q 413 161 368 178 q 519 144 458 144 q 653 174 597 144 q 748 266 710 203 q 807 428 786 329 l 915 972 l 1093 972 l 982 415 q 818 94 939 201 q 501 -14 697 -14 z "},"ȗ":{"ha":946,"x_min":78,"x_max":906,"o":"m 358 -10 q 199 30 265 -10 q 106 145 133 69 q 100 331 78 221 l 182 742 l 356 742 l 274 335 q 291 194 257 244 q 415 143 325 143 q 572 196 508 143 q 656 357 635 249 l 733 742 l 906 742 l 758 0 l 593 0 l 635 211 l 663 144 q 530 28 610 65 q 358 -10 450 -10 m 324 843 q 413 990 340 936 q 588 1044 486 1044 q 703 1019 653 1044 q 782 949 754 994 q 804 843 810 904 l 694 843 q 665 921 696 892 q 578 950 633 950 q 486 921 524 950 q 440 843 449 892 l 324 843 z "},"Ș":{"ha":874,"x_min":-1,"x_max":883,"o":"m 375 -14 q 227 1 299 -14 q 97 42 156 17 q -1 100 38 68 l 75 242 q 167 185 115 208 q 276 149 218 161 q 392 136 333 136 q 515 153 463 136 q 597 200 568 169 q 625 274 625 231 q 599 337 625 313 q 528 377 572 361 q 433 408 485 393 q 328 441 381 422 q 232 488 275 460 q 162 561 189 517 q 135 672 135 606 q 188 838 135 768 q 337 947 242 908 q 558 986 432 986 q 738 965 653 986 q 883 904 822 944 l 813 761 q 690 817 758 797 q 549 836 622 836 q 424 818 476 836 q 343 768 371 800 q 314 693 315 736 q 340 628 314 653 q 410 588 367 604 q 506 556 453 571 q 610 524 558 542 q 707 478 663 506 q 778 408 751 450 q 804 301 804 365 q 751 135 804 206 q 601 25 697 64 q 375 -14 504 -14 m 236 -368 l 317 -199 l 328 -261 q 272 -243 292 -261 q 251 -199 251 -225 q 274 -139 251 -162 q 339 -115 296 -115 q 399 -135 379 -115 q 419 -182 419 -154 q 412 -219 419 -201 q 382 -269 404 -237 l 318 -368 l 236 -368 z "},"ș":{"ha":715,"x_min":-19,"x_max":697,"o":"m 293 -10 q 111 14 196 -10 q -19 71 26 38 l 53 204 q 167 152 99 172 q 311 132 236 132 q 438 156 397 132 q 479 221 479 179 q 450 267 479 251 q 376 292 421 282 q 278 313 331 301 q 181 343 226 324 q 107 400 136 363 q 78 500 78 438 q 122 635 78 579 q 247 720 167 690 q 431 750 326 750 q 578 733 506 750 q 697 686 650 717 l 633 553 q 526 597 583 585 q 414 610 468 610 q 288 584 329 610 q 247 519 247 558 q 276 472 247 489 q 351 445 306 456 q 448 424 396 435 q 545 394 500 414 q 619 338 590 375 q 649 240 649 301 q 603 103 649 160 q 478 19 558 47 q 293 -10 397 -10 m 142 -368 l 222 -199 l 233 -261 q 177 -243 197 -261 q 157 -199 157 -225 q 179 -139 157 -162 q 244 -115 201 -115 q 305 -135 285 -115 q 325 -182 325 -154 q 317 -219 325 -201 q 288 -269 310 -237 l 224 -368 l 142 -368 z "},"Ț":{"ha":836,"x_min":96,"x_max":950,"o":"m 254 0 l 418 819 l 96 819 l 126 972 l 950 972 l 919 819 l 597 819 l 435 0 l 254 0 m 207 -368 l 288 -199 l 299 -261 q 242 -243 263 -261 q 222 -199 222 -225 q 244 -139 222 -162 q 310 -115 267 -115 q 370 -135 350 -115 q 390 -182 390 -154 q 383 -219 390 -201 q 353 -269 375 -237 l 289 -368 l 207 -368 z "},"ț":{"ha":589,"x_min":61,"x_max":582,"o":"m 318 -10 q 194 22 246 -10 q 119 110 142 53 q 111 247 96 168 l 243 906 l 417 906 l 285 249 q 296 165 276 197 q 369 133 315 133 q 420 141 394 133 q 467 163 446 149 l 497 35 q 411 0 458 10 q 318 -10 364 -10 m 61 597 l 89 736 l 582 736 l 554 597 l 61 597 m 146 -368 l 226 -199 l 238 -261 q 181 -243 201 -261 q 161 -199 161 -225 q 183 -139 161 -162 q 249 -115 206 -115 q 309 -135 289 -115 q 329 -182 329 -154 q 322 -219 329 -201 q 292 -269 314 -237 l 228 -368 l 146 -368 z "},"Ȟ":{"ha":1125,"x_min":57,"x_max":1114,"o":"m 935 972 l 1114 972 l 919 0 l 740 0 l 935 972 m 238 0 l 57 0 l 251 972 l 432 972 l 238 0 m 838 417 l 308 417 l 338 571 l 869 571 l 838 417 z "},"ȟ":{"ha":951,"x_min":40,"x_max":875,"o":"m 592 750 q 753 711 688 750 q 847 597 819 672 q 853 411 875 521 l 771 0 l 597 0 l 678 407 q 661 548 696 497 q 535 599 626 599 q 376 546 439 599 q 292 385 314 493 l 214 0 l 40 0 l 246 1031 l 419 1031 l 319 531 l 283 597 q 416 713 336 676 q 592 750 496 750 m 281 1132 l 119 1322 l 258 1322 l 429 1163 l 294 1163 l 503 1322 l 649 1322 l 439 1132 l 281 1132 z "},"Ȫ":{"ha":1169,"x_min":78,"x_max":1139,"o":"m 543 -14 q 292 39 396 -14 q 133 185 188 92 q 78 401 78 279 q 119 631 78 525 q 240 817 161 738 q 429 941 319 896 q 674 986 539 986 q 924 933 819 986 q 1083 787 1028 881 q 1139 571 1139 693 q 1097 341 1139 447 q 975 156 1054 235 q 787 31 896 76 q 543 -14 678 -14 m 558 144 q 724 177 650 144 q 849 267 797 210 q 929 401 901 325 q 957 560 957 476 q 922 700 957 639 q 821 794 888 761 q 657 828 754 828 q 492 795 567 828 q 366 705 418 763 q 287 572 314 647 q 260 413 260 496 q 294 272 260 333 q 394 178 328 211 q 558 144 461 144 z "},"ȫ":{"ha":896,"x_min":47,"x_max":849,"o":"m 407 -10 q 217 31 299 -10 q 92 145 136 72 q 47 317 47 218 q 104 540 47 442 q 260 694 161 638 q 488 750 360 750 q 678 710 597 750 q 804 598 760 671 q 849 425 849 525 q 792 203 849 301 q 635 47 735 104 q 407 -10 536 -10 m 418 139 q 550 174 493 139 q 640 272 607 210 q 674 417 674 335 q 622 553 674 503 q 478 603 571 603 q 347 567 404 603 q 256 469 289 532 q 222 325 222 407 q 274 188 222 238 q 418 139 325 139 z "},"Ȭ":{"ha":1169,"x_min":78,"x_max":1139,"o":"m 543 -14 q 292 39 396 -14 q 133 185 188 92 q 78 401 78 279 q 119 631 78 525 q 240 817 161 738 q 429 941 319 896 q 674 986 539 986 q 924 933 819 986 q 1083 787 1028 881 q 1139 571 1139 693 q 1097 341 1139 447 q 975 156 1054 235 q 787 31 896 76 q 543 -14 678 -14 m 558 144 q 724 177 650 144 q 849 267 797 210 q 929 401 901 325 q 957 560 957 476 q 922 700 957 639 q 821 794 888 761 q 657 828 754 828 q 492 795 567 828 q 366 705 418 763 q 287 572 314 647 q 260 413 260 496 q 294 272 260 333 q 394 178 328 211 q 558 144 461 144 z "},"ȭ":{"ha":896,"x_min":47,"x_max":849,"o":"m 407 -10 q 217 31 299 -10 q 92 145 136 72 q 47 317 47 218 q 104 540 47 442 q 260 694 161 638 q 488 750 360 750 q 678 710 597 750 q 804 598 760 671 q 849 425 849 525 q 792 203 849 301 q 635 47 735 104 q 407 -10 536 -10 m 418 139 q 550 174 493 139 q 640 272 607 210 q 674 417 674 335 q 622 553 674 503 q 478 603 571 603 q 347 567 404 603 q 256 469 289 532 q 222 325 222 407 q 274 188 222 238 q 418 139 325 139 z "},"Ȱ":{"ha":1169,"x_min":78,"x_max":1139,"o":"m 543 -14 q 292 39 396 -14 q 133 185 188 92 q 78 401 78 279 q 119 631 78 525 q 240 817 161 738 q 429 941 319 896 q 674 986 539 986 q 924 933 819 986 q 1083 787 1028 881 q 1139 571 1139 693 q 1097 341 1139 447 q 975 156 1054 235 q 787 31 896 76 q 543 -14 678 -14 m 558 144 q 724 177 650 144 q 849 267 797 210 q 929 401 901 325 q 957 560 957 476 q 922 700 957 639 q 821 794 888 761 q 657 828 754 828 q 492 795 567 828 q 366 705 418 763 q 287 572 314 647 q 260 413 260 496 q 294 272 260 333 q 394 178 328 211 q 558 144 461 144 z "},"ȱ":{"ha":896,"x_min":47,"x_max":849,"o":"m 407 -10 q 217 31 299 -10 q 92 145 136 72 q 47 317 47 218 q 104 540 47 442 q 260 694 161 638 q 488 750 360 750 q 678 710 597 750 q 804 598 760 671 q 849 425 849 525 q 792 203 849 301 q 635 47 735 104 q 407 -10 536 -10 m 418 139 q 550 174 493 139 q 640 272 607 210 q 674 417 674 335 q 622 553 674 503 q 478 603 571 603 q 347 567 404 603 q 256 469 289 532 q 222 325 222 407 q 274 188 222 238 q 418 139 325 139 z "},"Ȳ":{"ha":918,"x_min":108,"x_max":1051,"o":"m 294 0 l 371 388 l 392 271 l 108 972 l 288 972 l 514 411 l 408 410 l 863 972 l 1051 972 l 490 269 l 551 388 l 474 0 l 294 0 z "},"ȳ":{"ha":803,"x_min":-135,"x_max":883,"o":"m 60 -279 q -49 -261 4 -279 q -135 -214 -103 -243 l -49 -87 q 5 -122 -25 -108 q 74 -135 35 -135 q 151 -112 117 -135 q 219 -33 185 -89 l 285 68 l 301 86 l 710 742 l 883 742 l 372 -65 q 274 -193 321 -146 q 176 -260 226 -240 q 60 -279 125 -279 m 250 -26 l 68 742 l 242 742 l 388 101 l 250 -26 m 246 886 l 265 990 l 747 990 l 728 886 l 246 886 z "},"ȷ":{"ha":410,"x_min":-249,"x_max":368,"o":"m -78 -279 q -172 -269 -129 -279 q -249 -236 -215 -258 l -176 -107 q -78 -136 -136 -136 q 1 -108 -28 -136 q 43 -17 29 -79 l 194 742 l 368 742 l 217 -14 q -78 -279 164 -279 z "},"ə":{"ha":860,"x_min":43,"x_max":813,"o":"m 447 750 q 642 710 560 750 q 768 597 724 669 q 813 425 813 524 q 758 202 813 300 q 606 47 703 104 q 386 -10 510 -10 q 206 30 283 -10 q 86 142 129 69 q 43 317 43 215 q 46 372 43 344 q 56 422 49 399 l 683 422 l 664 307 l 136 307 l 208 346 q 218 228 197 276 q 285 155 239 181 q 393 129 331 129 q 526 165 471 129 q 613 267 582 201 q 643 415 643 332 q 592 556 643 507 q 431 604 540 604 q 311 584 367 604 q 215 528 256 564 l 143 649 q 283 725 203 700 q 447 750 363 750 z "},"ʒ":{"ha":756,"x_min":-128,"x_max":746,"o":"m 218 -281 q 34 -251 125 -281 q -128 -160 -57 -221 l -44 -22 q 85 -97 13 -72 q 229 -122 158 -122 q 350 -103 294 -122 q 439 -43 406 -83 q 472 60 472 -3 q 430 161 472 124 q 292 199 388 199 l 197 199 l 218 317 l 567 660 l 576 590 l 57 590 l 86 742 l 746 742 l 726 622 l 371 276 l 294 325 l 333 325 q 571 258 489 325 q 653 68 653 192 q 617 -81 653 -17 q 519 -190 581 -146 q 381 -258 458 -235 q 218 -281 303 -281 z "},"ʹ":{"ha":306,"x_min":135,"x_max":349,"o":"m 135 588 l 199 972 l 349 972 l 260 588 l 135 588 z "},"ʺ":{"ha":575,"x_min":135,"x_max":617,"o":"m 403 588 l 467 972 l 617 972 l 529 588 l 403 588 m 135 588 l 199 972 l 349 972 l 261 588 l 135 588 z "},"ʻ":{"ha":389,"x_min":144,"x_max":422,"o":"m 422 1231 l 282 922 l 264 1031 q 342 1000 311 1031 q 372 924 372 969 q 337 834 372 868 q 251 800 301 800 q 175 831 206 800 q 144 908 144 861 q 153 957 144 933 q 183 1014 163 981 l 311 1231 l 422 1231 z "},"ʼ":{"ha":363,"x_min":128,"x_max":404,"o":"m 128 610 l 268 918 l 285 810 q 208 840 239 810 q 176 918 176 871 q 213 1006 176 972 q 299 1040 250 1040 q 374 1010 344 1040 q 404 932 404 981 q 395 883 404 907 q 367 825 386 860 l 239 610 l 128 610 z "},"ʾ":{"ha":833,"x_min":508,"x_max":703,"o":"m 522 901 q 530 900 526 900 q 538 900 533 900 q 601 925 576 900 q 625 988 625 950 q 606 1042 625 1019 q 557 1071 588 1065 l 569 1143 q 665 1090 628 1133 q 703 988 703 1046 q 681 906 703 943 q 623 848 660 869 q 538 826 586 826 q 523 827 531 826 q 508 829 515 828 l 522 901 z "},"ʿ":{"ha":833,"x_min":374,"x_max":569,"o":"m 556 1068 q 548 1069 551 1069 q 539 1069 544 1069 q 477 1045 501 1069 q 453 982 453 1021 q 472 927 453 950 q 521 899 490 904 l 508 826 q 412 881 450 838 q 374 982 374 925 q 396 1063 374 1026 q 456 1122 418 1100 q 539 1143 493 1143 q 554 1143 547 1143 q 569 1140 561 1143 l 556 1068 z "},"ˆ":{"ha":833,"x_min":247,"x_max":776,"o":"m 247 843 l 457 1033 l 615 1033 l 776 843 l 638 843 l 467 1003 l 601 1003 l 393 843 l 247 843 z "},"ˇ":{"ha":833,"x_min":278,"x_max":807,"o":"m 439 843 l 278 1033 l 417 1033 l 588 874 l 453 874 l 661 1033 l 807 1033 l 597 843 l 439 843 z "},"ˈ":{"ha":249,"x_min":133,"x_max":303,"o":"m 133 704 l 186 972 l 303 972 l 250 704 l 133 704 z "},"ˉ":{"ha":833,"x_min":279,"x_max":782,"o":"m 279 886 l 299 990 l 782 990 l 763 886 l 279 886 z "},"ˊ":{"ha":833,"x_min":392,"x_max":810,"o":"m 392 843 l 601 1033 l 810 1033 l 547 843 l 392 843 z "},"ˋ":{"ha":833,"x_min":274,"x_max":628,"o":"m 478 843 l 274 1033 l 476 1033 l 628 843 l 478 843 z "},"ˌ":{"ha":251,"x_min":-69,"x_max":101,"o":"m -69 -311 l -17 -42 l 101 -42 l 49 -311 l -69 -311 z "},"˘":{"ha":833,"x_min":303,"x_max":789,"o":"m 525 833 q 408 858 460 833 q 330 927 357 882 q 307 1033 303 972 l 418 1033 q 449 957 417 985 q 535 929 481 929 q 626 957 589 929 q 672 1033 664 985 l 789 1033 q 699 888 772 942 q 525 833 626 833 z "},"˙":{"ha":833,"x_min":435,"x_max":633,"o":"m 528 860 q 460 884 486 860 q 435 946 435 908 q 466 1026 435 996 q 542 1057 497 1057 q 608 1032 582 1057 q 633 969 633 1007 q 603 890 633 921 q 528 860 572 860 z "},"˚":{"ha":833,"x_min":376,"x_max":701,"o":"m 538 824 q 456 846 492 824 q 398 903 419 868 q 376 982 376 939 q 398 1063 376 1026 q 456 1122 419 1100 q 538 1143 493 1143 q 622 1122 585 1143 q 680 1063 658 1100 q 701 982 701 1026 q 680 903 701 939 q 622 845 658 867 q 538 824 585 824 m 539 894 q 602 919 578 894 q 626 982 626 944 q 601 1047 626 1021 q 538 1072 576 1072 q 476 1047 501 1072 q 451 982 451 1022 q 476 919 451 944 q 539 894 500 894 z "},"˛":{"ha":833,"x_min":28,"x_max":344,"o":"m 190 -317 q 73 -283 118 -317 q 28 -186 28 -249 q 57 -91 28 -135 q 141 -10 86 -47 q 272 56 196 26 l 344 0 q 235 -51 279 -24 q 170 -106 192 -78 q 149 -162 149 -133 q 168 -207 149 -192 q 217 -222 188 -222 q 265 -216 240 -222 q 308 -200 289 -210 l 325 -285 q 264 -308 297 -299 q 190 -317 231 -317 z "},"˜":{"ha":833,"x_min":267,"x_max":793,"o":"m 625 843 q 565 856 590 843 q 517 888 539 869 q 476 921 496 907 q 435 935 457 935 q 386 912 406 935 q 360 851 367 889 l 267 851 q 326 990 282 942 q 436 1038 371 1038 q 497 1024 471 1038 q 544 992 524 1010 q 583 960 564 974 q 625 946 603 946 q 675 969 656 946 q 700 1025 694 992 l 793 1025 q 735 891 779 939 q 625 843 690 843 z "},"˝":{"ha":833,"x_min":311,"x_max":882,"o":"m 572 843 l 704 1033 l 882 1033 l 711 843 l 572 843 m 311 843 l 444 1033 l 621 1033 l 451 843 l 311 843 z "},"̀":{"ha":0,"x_min":274,"x_max":628,"o":"m 478 843 l 274 1033 l 476 1033 l 628 843 l 478 843 z "},"́":{"ha":0,"x_min":392,"x_max":810,"o":"m 392 843 l 601 1033 l 810 1033 l 547 843 l 392 843 z "},"̂":{"ha":0,"x_min":247,"x_max":776,"o":"m 247 843 l 457 1033 l 615 1033 l 776 843 l 638 843 l 467 1003 l 601 1003 l 393 843 l 247 843 z "},"̃":{"ha":0,"x_min":267,"x_max":793,"o":"m 625 843 q 565 856 590 843 q 517 888 539 869 q 476 921 496 907 q 435 935 457 935 q 386 912 406 935 q 360 851 367 889 l 267 851 q 326 990 282 942 q 436 1038 371 1038 q 497 1024 471 1038 q 544 992 524 1010 q 583 960 564 974 q 625 946 603 946 q 675 969 656 946 q 700 1025 694 992 l 793 1025 q 735 891 779 939 q 625 843 690 843 z "},"̄":{"ha":0,"x_min":279,"x_max":781,"o":"m 279 886 l 299 990 l 781 990 l 761 886 l 279 886 z "},"̆":{"ha":0,"x_min":303,"x_max":789,"o":"m 525 833 q 408 858 460 833 q 330 927 357 882 q 307 1033 303 972 l 418 1033 q 449 957 417 985 q 535 929 481 929 q 626 957 589 929 q 672 1033 664 985 l 789 1033 q 699 888 772 942 q 525 833 626 833 z "},"̇":{"ha":0,"x_min":435,"x_max":633,"o":"m 528 860 q 460 884 486 860 q 435 946 435 908 q 466 1026 435 996 q 542 1057 497 1057 q 608 1032 582 1057 q 633 969 633 1007 q 603 890 633 921 q 528 860 572 860 z "},"̈":{"ha":0,"x_min":313,"x_max":750,"o":"m 660 858 q 604 879 626 858 q 582 933 582 900 q 608 1001 582 975 q 671 1026 635 1026 q 726 1006 703 1026 q 750 950 750 985 q 723 884 750 910 q 660 858 696 858 m 392 858 q 335 879 358 858 q 313 933 313 900 q 340 1001 313 975 q 400 1026 367 1026 q 457 1006 435 1026 q 479 950 479 985 q 452 884 479 910 q 392 858 425 858 z "},"̉":{"ha":0,"x_min":413,"x_max":697,"o":"m 551 826 l 504 893 q 572 937 551 913 q 592 990 592 961 q 575 1030 592 1015 q 529 1044 558 1044 q 444 1017 486 1044 l 413 1094 q 481 1126 443 1115 q 557 1136 519 1136 q 659 1103 621 1136 q 697 1014 697 1071 q 660 906 697 953 q 551 826 624 860 z "},"̊":{"ha":0,"x_min":376,"x_max":701,"o":"m 538 824 q 456 846 492 824 q 398 903 419 868 q 376 982 376 939 q 398 1063 376 1026 q 456 1122 419 1100 q 538 1143 493 1143 q 622 1122 585 1143 q 680 1063 658 1100 q 701 982 701 1026 q 680 903 701 939 q 622 845 658 867 q 538 824 585 824 m 539 894 q 602 919 578 894 q 626 982 626 944 q 601 1047 626 1021 q 538 1072 576 1072 q 476 1047 501 1072 q 451 982 451 1022 q 476 919 451 944 q 539 894 500 894 z "},"̋":{"ha":0,"x_min":311,"x_max":882,"o":"m 572 843 l 704 1033 l 882 1033 l 711 843 l 572 843 m 311 843 l 444 1033 l 621 1033 l 451 843 l 311 843 z "},"̌":{"ha":0,"x_min":278,"x_max":807,"o":"m 439 843 l 278 1033 l 417 1033 l 588 874 l 453 874 l 661 1033 l 807 1033 l 597 843 l 439 843 z "},"̏":{"ha":0,"x_min":204,"x_max":707,"o":"m 578 843 l 465 1033 l 632 1033 l 707 843 l 578 843 m 317 843 l 204 1033 l 371 1033 l 446 843 l 317 843 z "},"̑":{"ha":0,"x_min":271,"x_max":757,"o":"m 271 843 q 360 990 288 936 q 535 1044 433 1044 q 651 1019 600 1044 q 729 949 701 994 q 751 843 757 904 l 642 843 q 612 921 643 892 q 525 950 581 950 q 433 921 471 950 q 388 843 396 892 l 271 843 z "},"̒":{"ha":0,"x_min":429,"x_max":649,"o":"m 519 833 q 453 853 476 833 q 429 900 429 872 q 438 938 429 921 q 469 986 446 956 l 554 1114 l 649 1114 l 546 917 l 532 979 q 596 963 574 979 q 618 917 618 946 q 593 858 618 882 q 519 833 568 833 z "},"̛":{"ha":0,"x_min":463,"x_max":699,"o":"m 463 618 l 463 742 l 493 742 q 556 767 533 742 q 579 831 579 792 q 572 878 579 856 q 551 917 564 900 l 657 956 q 688 897 676 931 q 699 825 699 864 q 674 715 699 761 q 601 644 649 669 q 490 618 554 618 l 463 618 z "},"̣":{"ha":0,"x_min":218,"x_max":388,"o":"m 294 -282 q 240 -261 261 -282 q 218 -207 218 -240 q 246 -142 218 -168 q 311 -115 274 -115 q 365 -135 343 -115 q 388 -189 388 -156 q 361 -256 388 -231 q 294 -282 335 -282 z "},"̤":{"ha":0,"x_min":97,"x_max":510,"o":"m 425 -276 q 370 -256 392 -276 q 349 -203 349 -235 q 375 -140 349 -164 q 436 -115 401 -115 q 488 -136 465 -115 q 510 -186 510 -157 q 485 -253 510 -229 q 425 -276 461 -276 m 171 -276 q 118 -256 139 -276 q 97 -203 97 -235 q 122 -140 97 -164 q 182 -115 147 -115 q 236 -136 214 -115 q 258 -186 258 -157 q 233 -253 258 -229 q 171 -276 207 -276 z "},"̦":{"ha":0,"x_min":206,"x_max":389,"o":"m 206 -368 l 286 -199 l 297 -261 q 241 -243 261 -261 q 221 -199 221 -225 q 243 -139 221 -162 q 308 -115 265 -115 q 369 -135 349 -115 q 389 -182 389 -154 q 381 -219 389 -201 q 351 -269 374 -237 l 288 -368 l 206 -368 z "},"̧":{"ha":0,"x_min":122,"x_max":458,"o":"m 249 -317 q 179 -309 211 -317 q 122 -287 147 -301 l 164 -206 q 210 -222 186 -217 q 260 -228 233 -228 q 322 -212 303 -228 q 342 -175 342 -197 q 326 -143 342 -154 q 276 -132 311 -132 l 233 -132 l 297 10 l 392 10 l 358 -68 q 433 -103 408 -75 q 458 -171 458 -131 q 398 -278 456 -239 q 249 -317 340 -317 z "},"̨":{"ha":0,"x_min":28,"x_max":344,"o":"m 190 -317 q 73 -283 118 -317 q 28 -186 28 -249 q 57 -91 28 -135 q 141 -10 86 -47 q 272 56 196 26 l 344 0 q 235 -51 279 -24 q 170 -106 192 -78 q 149 -162 149 -133 q 168 -207 149 -192 q 217 -222 188 -222 q 265 -216 240 -222 q 308 -200 289 -210 l 325 -285 q 264 -308 297 -299 q 190 -317 231 -317 z "},"̮":{"ha":0,"x_min":76,"x_max":561,"o":"m 303 -296 q 183 -272 235 -296 q 103 -204 131 -247 q 81 -107 76 -161 l 192 -107 q 222 -179 190 -153 q 307 -206 253 -206 q 399 -180 361 -206 q 444 -107 436 -154 l 561 -107 q 473 -247 546 -197 q 303 -296 400 -296 z "},"̱":{"ha":0,"x_min":53,"x_max":554,"o":"m 53 -247 l 71 -144 l 554 -144 l 536 -247 l 53 -247 z "},"̵":{"ha":0,"x_min":174,"x_max":756,"o":"m 174 550 l 194 664 l 756 664 l 735 550 l 174 550 z "},"̶":{"ha":0,"x_min":92,"x_max":1256,"o":"m 92 539 l 117 672 l 1256 672 l 1232 539 l 92 539 z "},"̷":{"ha":0,"x_min":85,"x_max":618,"o":"m 147 338 l 85 436 l 554 747 l 618 647 l 147 338 z "},"̸":{"ha":0,"x_min":-11,"x_max":885,"o":"m -11 -97 l 782 836 l 885 836 l 92 -97 l -11 -97 z "},"Δ":{"ha":1040,"x_min":-81,"x_max":972,"o":"m 729 972 l 972 0 l -81 0 l 550 972 l 729 972 m 150 65 l 106 153 l 838 153 l 781 65 l 590 881 l 663 881 l 150 65 z "},"Ω":{"ha":1242,"x_min":-60,"x_max":1183,"o":"m -60 0 l -31 153 l 231 153 q 147 288 172 215 q 122 453 122 360 q 166 671 122 574 q 288 839 210 768 q 474 948 367 910 q 708 986 582 986 q 949 939 843 986 q 1117 802 1056 892 q 1179 586 1179 713 q 1161 446 1179 511 q 1110 325 1143 381 q 1036 226 1078 269 q 949 153 994 183 l 1183 153 l 1156 0 l 661 0 l 689 142 q 808 208 751 168 q 906 302 864 247 q 972 424 949 357 q 996 568 996 490 q 913 761 996 694 q 693 828 829 828 q 483 778 571 828 q 347 642 394 729 q 299 442 299 556 q 317 319 299 374 q 372 221 335 264 q 463 142 408 178 l 435 0 l -60 0 z "},"μ":{"ha":953,"x_min":-14,"x_max":913,"o":"m -14 -269 l 188 742 l 361 742 l 281 335 q 297 193 263 243 q 422 143 332 143 q 577 196 514 143 q 663 357 640 249 l 739 742 l 913 742 l 765 0 l 603 0 l 644 211 l 671 150 q 593 59 639 94 q 499 7 547 24 q 403 -10 450 -10 q 268 18 321 -10 q 188 103 215 46 l 249 164 l 160 -269 l -14 -269 z "},"π":{"ha":1008,"x_min":10,"x_max":1068,"o":"m 40 358 q 17 412 25 382 q 10 474 10 442 q 47 615 10 554 q 156 708 85 675 q 328 742 226 742 l 1068 742 l 1040 604 l 308 604 q 194 570 232 604 q 157 475 157 536 q 162 434 157 454 q 176 396 167 414 l 40 358 m 163 0 l 361 635 l 528 635 l 329 0 l 163 0 m 565 0 l 692 635 l 858 635 l 732 0 l 565 0 z "},"Ѐ":{"ha":931,"x_min":63,"x_max":967,"o":"z "},"Ё":{"ha":931,"x_min":63,"x_max":967,"o":"z "},"Ђ":{"ha":1168,"x_min":111,"x_max":1113,"o":"m 269 0 l 439 864 l 472 819 l 111 819 l 142 972 l 1000 972 l 969 819 l 567 819 l 618 864 l 447 0 l 269 0 m 607 4 l 643 147 q 747 141 696 132 q 840 176 799 150 q 908 242 882 203 q 933 329 933 282 q 879 427 933 397 q 728 448 825 457 q 499 386 631 439 l 525 547 q 760 597 653 590 q 946 576 867 604 q 1069 490 1025 549 q 1113 343 1113 431 q 1072 179 1113 251 q 959 59 1031 107 q 797 -4 888 11 q 607 4 707 -19 z "},"Ѓ":{"ha":817,"x_min":63,"x_max":918,"o":"m 63 0 l 257 972 l 918 972 l 886 819 l 360 819 l 410 863 l 242 0 l 63 0 z "},"Є":{"ha":990,"x_min":81,"x_max":1047,"o":"m 726 550 l 699 407 l 197 407 l 225 550 l 726 550 m 489 -14 q 272 39 364 -14 q 131 185 181 92 q 81 396 81 278 q 129 628 81 521 q 263 815 178 735 q 457 941 347 896 q 688 986 567 986 q 900 945 807 986 q 1047 824 993 904 l 911 713 q 807 799 868 771 q 665 828 746 828 q 513 797 585 828 q 385 710 440 765 q 298 581 329 654 q 267 421 267 507 q 299 278 267 340 q 390 180 331 215 q 529 144 449 144 q 682 173 610 144 q 819 260 754 201 l 913 149 q 720 28 829 69 q 489 -14 611 -14 z "},"Ѕ":{"ha":893,"x_min":11,"x_max":896,"o":"m 388 -14 q 240 1 311 -14 q 109 42 168 17 q 11 100 50 68 l 88 242 q 179 185 128 208 q 288 149 231 161 q 404 136 346 136 q 528 153 475 136 q 609 200 581 169 q 638 274 638 231 q 611 337 638 313 q 541 377 585 361 q 445 408 497 393 q 340 441 393 422 q 244 488 288 460 q 174 561 201 517 q 147 672 147 606 q 201 838 147 768 q 349 947 254 908 q 571 986 444 986 q 750 965 665 986 q 896 904 835 944 l 825 761 q 703 817 771 797 q 561 836 635 836 q 436 818 489 836 q 356 768 383 800 q 326 693 328 736 q 353 628 326 653 q 422 588 379 604 q 518 556 465 571 q 623 524 571 542 q 719 478 675 506 q 790 408 764 450 q 817 301 817 365 q 763 135 817 206 q 613 25 710 64 q 388 -14 517 -14 z "},"І":{"ha":443,"x_min":57,"x_max":432,"o":"m 57 0 l 251 972 l 432 972 l 238 0 l 57 0 z "},"Ї":{"ha":443,"x_min":57,"x_max":596,"o":"m 57 0 l 251 972 l 432 972 l 238 0 l 57 0 z "},"Ј":{"ha":769,"x_min":-26,"x_max":765,"o":"m 274 -14 q 91 24 168 -14 q -26 131 14 61 l 94 247 q 169 167 124 196 q 276 139 215 139 q 393 179 347 139 q 456 308 439 219 l 558 821 l 211 821 l 242 972 l 765 972 l 635 318 q 563 123 611 196 q 443 18 515 50 q 274 -14 371 -14 z "},"Љ":{"ha":1653,"x_min":-54,"x_max":1601,"o":"m 44 -14 q -3 -10 19 -14 q -54 0 -26 -7 l -11 157 q 26 151 6 151 q 125 192 83 151 q 203 324 167 232 q 276 569 239 415 l 372 972 l 1088 972 l 893 0 l 715 0 l 888 864 l 921 819 l 458 819 l 506 865 l 436 567 q 359 293 397 404 q 276 115 321 182 q 174 17 231 47 q 44 -14 118 -14 m 1278 643 q 1601 381 1601 643 q 1544 180 1601 265 q 1381 47 1486 94 q 1133 0 1275 0 l 714 0 l 908 972 l 1088 972 l 1021 643 l 1278 643 m 1153 139 q 1291 166 1232 139 q 1382 243 1350 193 q 1414 361 1414 293 q 1371 471 1414 436 q 1232 506 1328 506 l 993 506 l 921 139 l 1153 139 z "},"Њ":{"ha":1636,"x_min":63,"x_max":1583,"o":"m 63 0 l 257 972 l 436 972 l 360 596 l 846 596 l 921 972 l 1100 972 l 906 0 l 726 0 l 815 443 l 329 443 l 242 0 l 63 0 m 924 94 l 892 139 l 1158 139 q 1286 163 1233 139 q 1367 230 1339 186 q 1396 333 1396 274 q 1352 429 1396 396 q 1224 463 1308 463 l 957 463 l 1007 508 l 924 94 m 726 0 l 921 972 l 1100 972 l 1015 550 l 985 601 l 1292 601 q 1508 540 1433 601 q 1583 367 1583 479 q 1529 173 1583 256 q 1378 45 1475 90 q 1150 0 1282 0 l 726 0 z "},"Ћ":{"ha":1178,"x_min":110,"x_max":1129,"o":"m 267 0 l 436 864 l 471 819 l 110 819 l 140 972 l 990 972 l 960 819 l 564 819 l 615 864 l 446 0 l 267 0 m 519 533 q 674 576 601 564 q 807 589 746 589 q 1049 503 969 589 q 1094 246 1129 417 l 1046 0 l 868 0 l 915 235 q 893 383 935 335 q 758 432 851 432 q 638 415 703 432 q 501 365 574 397 l 519 533 z "},"Ќ":{"ha":1006,"x_min":63,"x_max":1096,"o":"m 63 0 l 257 972 l 438 972 l 243 0 l 63 0 m 272 411 l 301 565 l 628 565 l 600 411 l 272 411 m 718 0 l 483 475 l 633 558 l 911 0 l 718 0 m 636 468 l 464 489 l 893 972 l 1096 972 l 636 468 z "},"Ѝ":{"ha":1142,"x_min":63,"x_max":1126,"o":"m 63 0 l 257 972 l 436 972 l 296 282 l 956 972 l 1126 972 l 932 0 l 753 0 l 894 689 l 233 0 l 63 0 z "},"Ў":{"ha":983,"x_min":38,"x_max":1093,"o":"m 99 157 q 191 141 147 140 q 276 163 235 142 q 356 231 317 185 l 417 297 l 438 317 l 911 972 l 1093 972 l 513 181 q 363 38 443 86 q 200 -14 283 -11 q 38 19 117 -17 l 99 157 m 413 161 l 139 972 l 326 972 l 535 300 l 413 161 m 617 1036 q 440 1088 497 1036 q 396 1236 382 1140 l 511 1236 q 535 1156 504 1185 q 625 1126 565 1126 q 723 1155 683 1126 q 774 1236 763 1183 l 892 1236 q 804 1086 874 1136 q 617 1036 735 1036 z "},"Џ":{"ha":1121,"x_min":63,"x_max":1106,"o":"m 1106 972 l 911 0 l 569 0 l 528 -214 l 360 -214 l 403 0 l 63 0 l 257 972 l 436 972 l 272 153 l 763 153 l 925 972 l 1106 972 z "},"А":{"ha":1079,"x_min":-61,"x_max":992,"o":"m -61 0 l 571 972 l 750 972 l 992 0 l 813 0 l 610 879 l 682 879 l 132 0 l -61 0 m 186 225 l 263 367 l 786 367 l 810 225 l 186 225 z "},"Б":{"ha":1025,"x_min":63,"x_max":1014,"o":"m 63 0 l 257 972 l 1014 972 l 983 824 l 406 824 l 358 585 l 646 585 q 874 520 796 585 q 953 332 953 456 q 899 154 953 228 q 743 40 844 81 q 500 0 642 0 l 63 0 m 269 139 l 519 139 q 701 187 635 139 q 767 318 767 235 q 722 415 767 385 q 581 446 676 446 l 331 446 l 269 139 z "},"В":{"ha":1057,"x_min":57,"x_max":1017,"o":"m 57 0 l 251 972 l 700 972 q 935 917 853 972 q 1017 754 1017 861 q 970 600 1017 663 q 851 506 924 538 q 694 474 778 474 l 729 521 q 907 466 839 521 q 975 306 975 411 q 920 136 975 204 q 769 34 865 68 q 544 0 672 0 l 57 0 m 265 142 l 557 142 q 732 183 669 142 q 794 306 794 225 q 749 397 794 371 q 619 422 703 422 l 296 422 l 324 563 l 606 563 q 723 580 672 563 q 801 634 774 597 q 828 724 828 671 q 784 805 828 779 q 660 831 740 831 l 403 831 l 265 142 z "},"Г":{"ha":817,"x_min":63,"x_max":918,"o":"m 63 0 l 257 972 l 918 972 l 886 819 l 360 819 l 410 863 l 242 0 l 63 0 z "},"Д":{"ha":1133,"x_min":-96,"x_max":1081,"o":"m 725 83 l 872 819 l 490 819 l 449 640 q 401 458 425 544 q 347 301 376 371 q 283 184 318 231 q 204 122 247 138 l 1 153 q 97 190 54 150 q 176 300 140 229 q 240 466 211 371 q 296 671 269 561 l 367 972 l 1081 972 l 903 83 l 725 83 m -96 -207 l -22 153 l 1057 153 l 985 -207 l 818 -207 l 860 0 l 114 0 l 72 -207 l -96 -207 z "},"Е":{"ha":931,"x_min":63,"x_max":967,"o":"m 342 568 l 826 568 l 797 419 l 313 419 l 342 568 m 272 151 l 822 151 l 792 0 l 63 0 l 257 972 l 967 972 l 936 821 l 406 821 l 272 151 z "},"Ж":{"ha":1461,"x_min":-54,"x_max":1542,"o":"m 1160 0 l 969 474 l 1135 564 l 1364 0 l 1160 0 m 776 410 l 807 565 l 1100 565 l 1069 410 l 776 410 m 1132 465 l 965 488 l 1346 972 l 1542 972 l 1132 465 m 161 0 l -54 0 l 399 564 l 538 474 l 161 0 m 747 0 l 571 0 l 765 972 l 942 972 l 747 0 m 706 410 l 411 410 l 442 565 l 736 565 l 706 410 m 376 465 l 167 972 l 354 972 l 540 488 l 376 465 z "},"З":{"ha":901,"x_min":-17,"x_max":864,"o":"m 347 -14 q 156 14 251 -14 q -17 100 61 42 l 68 232 q 199 164 125 186 q 349 142 274 142 q 457 153 406 142 q 549 188 508 165 q 613 242 590 210 q 636 317 636 275 q 594 401 636 372 q 465 429 551 429 l 235 429 l 263 571 l 483 571 q 585 588 543 571 q 651 638 628 606 q 675 710 675 669 q 650 779 675 751 q 581 821 625 807 q 481 835 538 835 q 346 817 418 835 q 201 761 274 800 l 174 907 q 344 967 258 947 q 507 986 429 986 q 688 957 607 986 q 816 873 768 928 q 864 742 864 818 q 820 608 864 668 q 701 515 776 549 q 528 482 625 482 l 543 526 q 686 498 625 526 q 781 419 747 469 q 815 301 815 369 q 777 172 815 231 q 672 72 739 113 q 522 8 606 31 q 347 -14 439 -14 z "},"И":{"ha":1142,"x_min":63,"x_max":1126,"o":"m 63 0 l 257 972 l 436 972 l 296 282 l 956 972 l 1126 972 l 932 0 l 753 0 l 894 689 l 233 0 l 63 0 z "},"Й":{"ha":1142,"x_min":63,"x_max":1126,"o":"m 63 0 l 257 972 l 436 972 l 296 282 l 956 972 l 1126 972 l 932 0 l 753 0 l 894 689 l 233 0 l 63 0 m 701 1036 q 524 1088 582 1036 q 481 1236 467 1140 l 596 1236 q 619 1156 589 1185 q 710 1126 650 1126 q 808 1155 768 1126 q 858 1236 847 1183 l 976 1236 q 889 1086 958 1136 q 701 1036 819 1036 z "},"К":{"ha":1006,"x_min":63,"x_max":1096,"o":"m 63 0 l 257 972 l 438 972 l 243 0 l 63 0 m 272 411 l 301 565 l 628 565 l 600 411 l 272 411 m 718 0 l 483 475 l 633 558 l 911 0 l 718 0 m 636 468 l 464 489 l 893 972 l 1096 972 l 636 468 z "},"Л":{"ha":1104,"x_min":-54,"x_max":1088,"o":"m 44 -14 q -3 -10 19 -14 q -54 0 -26 -7 l -11 157 q 26 151 6 151 q 125 192 83 151 q 203 324 167 232 q 276 569 239 415 l 372 972 l 1088 972 l 893 0 l 715 0 l 888 864 l 921 819 l 458 819 l 506 865 l 436 567 q 359 293 397 404 q 276 115 321 182 q 174 17 231 47 q 44 -14 118 -14 z "},"М":{"ha":1338,"x_min":63,"x_max":1321,"o":"m 63 0 l 257 972 l 404 972 l 689 260 l 611 261 l 1165 972 l 1321 972 l 1126 0 l 956 0 l 1096 708 l 1136 707 l 667 111 l 586 111 l 340 708 l 375 704 l 235 0 l 63 0 z "},"Н":{"ha":1136,"x_min":63,"x_max":1119,"o":"m 940 972 l 1119 972 l 925 0 l 746 0 l 940 972 m 243 0 l 63 0 l 257 972 l 438 972 l 243 0 m 843 417 l 314 417 l 343 571 l 875 571 l 843 417 z "},"О":{"ha":1182,"x_min":85,"x_max":1146,"o":"m 550 -14 q 299 39 403 -14 q 140 185 194 92 q 85 401 85 279 q 126 631 85 525 q 247 817 168 738 q 436 941 326 896 q 681 986 546 986 q 931 933 826 986 q 1090 787 1035 881 q 1146 571 1146 693 q 1103 341 1146 447 q 982 156 1061 235 q 794 31 903 76 q 550 -14 685 -14 m 565 144 q 731 177 657 144 q 856 267 804 210 q 936 401 908 325 q 964 560 964 476 q 929 700 964 639 q 828 794 894 761 q 664 828 761 828 q 499 795 574 828 q 373 705 425 763 q 294 572 321 647 q 267 413 267 496 q 301 272 267 333 q 401 178 335 211 q 565 144 468 144 z "},"П":{"ha":1135,"x_min":63,"x_max":1118,"o":"m 63 0 l 257 972 l 1118 972 l 924 0 l 744 0 l 915 864 l 947 819 l 360 819 l 411 864 l 242 0 l 63 0 z "},"Р":{"ha":1008,"x_min":57,"x_max":996,"o":"m 57 0 l 251 972 l 626 972 q 899 894 803 972 q 996 679 996 817 q 940 466 996 556 q 779 328 883 376 q 532 281 675 281 l 215 281 l 311 367 l 238 0 l 57 0 m 307 346 l 243 433 l 539 433 q 742 492 669 433 q 814 663 814 550 q 760 781 814 742 q 607 819 707 819 l 325 819 l 419 910 l 307 346 z "},"С":{"ha":1024,"x_min":85,"x_max":1053,"o":"m 557 -14 q 303 39 408 -14 q 141 185 197 92 q 85 401 85 279 q 127 631 85 525 q 249 817 169 738 q 438 941 328 896 q 683 986 547 986 q 906 944 810 986 q 1053 824 1001 903 l 922 714 q 819 799 882 769 q 671 828 757 828 q 503 796 578 828 q 375 706 428 764 q 294 573 322 649 q 267 413 267 497 q 301 272 267 333 q 404 178 336 211 q 571 144 472 144 q 723 172 653 144 q 847 257 793 200 l 953 143 q 780 24 882 63 q 557 -14 678 -14 z "},"Т":{"ha":861,"x_min":110,"x_max":961,"o":"m 267 0 l 436 864 l 471 819 l 110 819 l 140 972 l 961 972 l 931 819 l 564 819 l 615 864 l 446 0 l 267 0 z "},"У":{"ha":983,"x_min":38,"x_max":1093,"o":"m 99 157 q 191 141 147 140 q 276 163 235 142 q 356 231 317 185 l 417 297 l 438 317 l 911 972 l 1093 972 l 513 181 q 363 38 443 86 q 200 -14 283 -11 q 38 19 117 -17 l 99 157 m 413 161 l 139 972 l 326 972 l 535 300 l 413 161 z "},"Ф":{"ha":1311,"x_min":72,"x_max":1283,"o":"m 582 63 q 205 155 338 63 q 72 419 72 247 q 151 681 72 569 q 378 853 231 792 q 732 914 526 914 l 779 914 q 1152 821 1021 914 q 1283 554 1283 728 q 1204 292 1283 403 q 978 122 1125 182 q 632 63 832 63 l 582 63 m 614 204 l 633 204 q 892 242 786 204 q 1051 354 997 281 q 1106 532 1106 428 q 1017 713 1106 653 q 751 772 929 772 l 731 772 q 467 733 574 772 q 306 622 360 694 q 251 444 251 549 q 341 263 251 322 q 614 204 431 204 m 490 -39 l 699 1011 l 865 1011 l 656 -39 l 490 -39 z "},"Х":{"ha":960,"x_min":-58,"x_max":1042,"o":"m 165 972 l 368 972 l 531 647 l 826 972 l 1042 972 l 621 506 l 869 0 l 661 0 l 481 354 l 156 0 l -58 0 l 396 499 l 165 972 z "},"Ц":{"ha":1158,"x_min":63,"x_max":1106,"o":"m 63 0 l 257 972 l 436 972 l 272 153 l 763 153 l 925 972 l 1106 972 l 911 0 l 63 0 m 846 -214 l 894 44 l 926 0 l 731 0 l 763 153 l 1086 153 l 1013 -214 l 846 -214 z "},"Ч":{"ha":1031,"x_min":93,"x_max":1014,"o":"m 750 375 q 592 329 667 343 q 456 315 518 315 q 179 408 265 315 q 126 668 93 501 l 188 972 l 365 972 l 306 676 q 331 522 285 572 q 483 471 378 471 q 628 488 556 471 q 767 538 700 506 l 750 375 m 642 0 l 836 972 l 1014 972 l 819 0 l 642 0 z "},"Ш":{"ha":1524,"x_min":63,"x_max":1507,"o":"m 672 153 l 622 108 l 793 972 l 972 972 l 801 108 l 767 153 l 1210 153 l 1157 108 l 1328 972 l 1507 972 l 1313 0 l 63 0 l 257 972 l 436 972 l 265 108 l 232 153 l 672 153 z "},"Щ":{"ha":1558,"x_min":63,"x_max":1507,"o":"m 672 153 l 622 108 l 793 972 l 972 972 l 801 108 l 767 153 l 1210 153 l 1157 108 l 1328 972 l 1507 972 l 1313 0 l 63 0 l 257 972 l 436 972 l 265 108 l 232 153 l 672 153 m 1246 -207 l 1294 44 l 1329 0 l 1132 0 l 1164 153 l 1483 153 l 1413 -207 l 1246 -207 z "},"Ъ":{"ha":1165,"x_min":110,"x_max":1114,"o":"m 806 643 q 1035 581 956 643 q 1114 397 1114 519 q 1058 183 1114 272 q 897 47 1001 94 q 647 0 793 0 l 231 0 l 393 819 l 110 819 l 140 972 l 603 972 l 538 643 l 806 643 m 668 139 q 860 199 792 139 q 929 367 929 260 q 881 472 929 438 q 742 506 832 506 l 510 506 l 436 139 l 668 139 z "},"Ы":{"ha":1444,"x_min":63,"x_max":1433,"o":"m 626 643 q 950 381 950 643 q 892 180 950 265 q 729 47 835 94 q 482 0 624 0 l 63 0 l 257 972 l 436 972 l 369 643 l 626 643 m 501 139 q 640 166 581 139 q 731 243 699 193 q 763 361 763 293 q 719 471 763 436 q 581 506 676 506 l 342 506 l 269 139 l 501 139 m 1058 0 l 1253 972 l 1433 972 l 1239 0 l 1058 0 z "},"Ь":{"ha":1001,"x_min":63,"x_max":950,"o":"m 626 643 q 950 381 950 643 q 892 180 950 265 q 729 47 835 94 q 482 0 624 0 l 63 0 l 257 972 l 436 972 l 369 643 l 626 643 m 501 139 q 640 166 581 139 q 731 243 699 193 q 763 361 763 293 q 719 471 763 436 q 581 506 676 506 l 342 506 l 269 139 l 501 139 z "},"Э":{"ha":989,"x_min":-11,"x_max":956,"o":"m 310 422 l 338 565 l 839 565 l 811 422 l 310 422 m 547 986 q 764 933 672 986 q 906 788 856 881 q 956 576 956 696 q 906 344 956 451 q 772 157 857 238 q 578 31 688 76 q 349 -14 469 -14 q 136 27 229 -14 q -11 149 43 68 l 125 260 q 230 173 168 201 q 371 144 292 144 q 524 176 451 144 q 651 263 596 207 q 738 392 707 318 q 769 551 769 465 q 738 695 769 633 q 647 792 706 757 q 506 828 588 828 q 355 799 428 828 q 215 713 282 771 l 124 824 q 315 944 206 903 q 547 986 425 986 z "},"Ю":{"ha":1540,"x_min":63,"x_max":1506,"o":"m 63 0 l 257 972 l 436 972 l 356 574 l 606 574 l 576 413 l 325 413 l 242 0 l 63 0 m 911 -14 q 685 40 783 -14 q 531 188 586 93 q 476 410 476 283 q 523 631 476 526 q 652 815 569 735 q 842 940 735 894 q 1069 986 949 986 q 1298 932 1200 986 q 1451 783 1396 878 q 1506 563 1506 689 q 1459 342 1506 446 q 1330 158 1413 238 q 1140 32 1247 78 q 911 -14 1032 -14 m 926 149 q 1077 181 1006 149 q 1203 269 1149 213 q 1290 399 1258 326 q 1321 551 1321 471 q 1288 694 1321 633 q 1196 790 1256 756 q 1056 824 1136 824 q 905 792 976 824 q 779 703 833 760 q 693 573 725 646 q 661 421 661 500 q 694 278 661 339 q 786 183 726 217 q 926 149 846 149 z "},"Я":{"ha":1019,"x_min":-1,"x_max":1004,"o":"m 631 0 l 693 311 l 731 271 l 444 271 q 199 345 285 271 q 113 551 113 419 q 174 775 113 681 q 345 921 236 869 q 597 972 454 972 l 1004 972 l 810 0 l 631 0 m -1 0 l 310 347 l 501 347 l 200 0 l -1 0 m 706 369 l 804 868 l 839 819 l 574 819 q 425 791 486 819 q 331 708 364 763 q 299 575 299 653 q 345 460 299 501 q 486 418 392 418 l 760 418 l 706 369 z "},"а":{"ha":964,"x_min":54,"x_max":919,"o":"m 381 -10 q 216 29 290 -10 q 98 141 142 68 q 54 317 54 214 q 85 490 54 411 q 174 628 117 569 q 306 718 231 686 q 472 750 382 750 q 633 717 565 750 q 735 616 700 683 q 767 449 769 549 q 717 208 764 311 q 585 47 669 104 q 381 -10 500 -10 m 425 139 q 557 174 500 139 q 647 272 614 210 q 681 417 681 335 q 629 553 681 503 q 485 603 578 603 q 353 567 411 603 q 263 469 296 532 q 229 325 229 407 q 281 189 229 239 q 425 139 332 139 m 607 0 l 640 169 l 688 367 l 711 565 l 746 742 l 919 742 l 772 0 l 607 0 z "},"б":{"ha":932,"x_min":79,"x_max":938,"o":"m 429 -14 q 172 78 264 -14 q 79 354 79 171 q 115 575 79 471 q 216 764 150 679 q 374 906 282 849 q 578 985 465 963 l 938 1054 l 936 907 l 617 847 q 433 772 510 826 q 311 632 356 718 q 251 426 267 546 l 207 471 q 368 626 275 574 q 576 678 461 678 q 798 602 717 678 q 879 390 879 526 q 822 183 879 275 q 663 39 765 92 q 429 -14 561 -14 m 440 119 q 569 151 513 119 q 659 239 626 183 q 692 364 692 294 q 644 489 692 444 q 513 533 596 533 q 413 515 460 533 q 328 465 365 497 q 271 390 292 433 q 250 297 250 347 q 301 169 250 218 q 440 119 353 119 z "},"в":{"ha":860,"x_min":43,"x_max":806,"o":"m 43 0 l 192 742 l 549 742 q 739 697 672 742 q 806 568 806 653 q 724 417 806 475 q 508 360 643 360 l 526 400 q 703 359 644 400 q 761 232 761 318 q 674 62 761 124 q 428 0 586 0 l 43 0 m 235 126 l 432 126 q 553 157 510 126 q 597 239 597 188 q 569 298 597 279 q 481 317 542 317 l 272 317 l 235 126 m 294 432 l 476 432 q 588 461 546 432 q 631 538 631 490 q 601 597 631 578 q 514 615 572 615 l 332 615 l 294 432 z "},"г":{"ha":696,"x_min":43,"x_max":761,"o":"m 43 0 l 192 742 l 761 742 l 731 594 l 293 594 l 342 633 l 217 0 l 43 0 z "},"д":{"ha":946,"x_min":-94,"x_max":872,"o":"m 567 81 l 669 594 l 385 594 l 356 469 q 324 346 340 404 q 285 240 307 288 q 235 160 264 192 q 165 119 207 128 l -12 147 q 61 175 29 147 q 119 252 93 203 q 165 365 144 301 q 203 494 186 428 l 261 742 l 872 742 l 740 81 l 567 81 m -94 -165 l -33 147 l 864 147 l 801 -165 l 639 -165 l 672 0 l 100 0 l 67 -165 l -94 -165 z "},"е":{"ha":869,"x_min":54,"x_max":824,"o":"m 419 -10 q 226 31 308 -10 q 99 145 144 72 q 54 317 54 218 q 110 540 54 443 q 262 694 165 638 q 482 750 358 750 q 663 711 586 750 q 781 599 739 672 q 824 425 824 526 q 821 371 824 399 q 813 319 818 343 l 183 319 l 203 435 l 731 435 l 660 396 q 650 514 671 467 q 583 586 629 561 q 474 611 538 611 q 341 576 397 611 q 254 476 285 540 q 224 325 224 411 q 276 186 224 235 q 438 138 328 138 q 557 158 500 138 q 651 214 614 178 l 724 93 q 585 16 665 42 q 419 -10 506 -10 z "},"ж":{"ha":1222,"x_min":-64,"x_max":1269,"o":"m 933 0 l 783 358 l 938 426 l 1136 0 l 933 0 m 633 303 l 660 439 l 910 439 l 883 303 l 633 303 m 946 353 l 779 371 l 1078 742 l 1269 742 l 946 353 m 150 0 l -64 0 l 306 440 l 435 358 l 150 0 m 625 0 l 451 0 l 599 742 l 774 742 l 625 0 m 564 303 l 315 303 l 343 439 l 590 439 l 564 303 m 276 353 l 108 742 l 290 742 l 440 371 l 276 353 z "},"з":{"ha":750,"x_min":-19,"x_max":692,"o":"m 279 -12 q -19 69 111 -12 l 43 190 q 152 146 89 161 q 285 131 215 131 q 394 144 349 131 q 465 184 439 158 q 490 242 490 210 q 457 301 490 281 q 363 321 424 321 l 219 321 l 238 439 l 357 439 q 472 464 429 439 q 515 529 515 489 q 481 589 515 568 q 376 610 446 610 q 267 596 321 610 q 149 553 214 582 l 108 692 q 251 738 179 724 q 392 753 324 753 q 549 729 481 753 q 654 662 617 706 q 692 558 692 618 q 662 467 692 508 q 579 399 632 425 q 456 365 526 372 l 451 399 q 606 346 549 390 q 663 228 663 301 q 613 106 663 160 q 476 19 563 51 q 279 -12 389 -12 z "},"и":{"ha":978,"x_min":43,"x_max":935,"o":"m 43 0 l 192 742 l 367 742 l 265 239 l 769 742 l 935 742 l 786 0 l 610 0 l 714 504 l 210 0 l 43 0 z "},"й":{"ha":978,"x_min":43,"x_max":935,"o":"m 43 0 l 192 742 l 367 742 l 265 239 l 769 742 l 935 742 l 786 0 l 610 0 l 714 504 l 210 0 l 43 0 m 581 833 q 413 885 465 833 q 379 1035 361 938 l 493 1035 q 510 953 483 982 q 590 924 536 924 q 678 952 643 924 q 726 1035 714 981 l 842 1035 q 757 884 824 935 q 581 833 690 833 z "},"к":{"ha":856,"x_min":43,"x_max":911,"o":"m 575 0 l 386 358 l 531 425 l 776 0 l 575 0 m 43 0 l 192 742 l 365 742 l 217 0 l 43 0 m 226 297 l 253 442 l 504 442 l 478 297 l 226 297 m 536 350 l 372 371 l 721 742 l 911 742 l 536 350 z "},"л":{"ha":907,"x_min":-67,"x_max":864,"o":"m -67 1 l -28 147 q -10 144 -18 146 q 6 143 -1 143 q 89 184 56 143 q 147 297 122 225 q 194 458 172 368 l 264 742 l 864 742 l 715 0 l 542 0 l 669 643 l 703 594 l 349 594 l 394 646 l 346 447 q 289 249 318 335 q 224 104 260 163 q 142 16 188 46 q 33 -14 96 -14 q -16 -10 7 -14 q -67 1 -39 -6 z "},"м":{"ha":1119,"x_min":43,"x_max":1075,"o":"m 43 0 l 192 742 l 371 742 l 564 215 l 492 215 l 911 742 l 1075 742 l 929 0 l 771 0 l 881 556 l 907 538 l 540 78 l 465 78 l 281 550 l 311 558 l 200 0 l 43 0 z "},"н":{"ha":954,"x_min":43,"x_max":911,"o":"m 43 0 l 192 742 l 364 742 l 304 440 l 678 440 l 738 742 l 911 742 l 764 0 l 590 0 l 649 293 l 275 293 l 217 0 l 43 0 z "},"о":{"ha":907,"x_min":53,"x_max":854,"o":"m 413 -10 q 223 31 304 -10 q 97 145 142 72 q 53 317 53 218 q 110 540 53 442 q 266 694 167 638 q 493 750 365 750 q 684 710 603 750 q 810 598 765 671 q 854 425 854 525 q 797 203 854 301 q 641 47 740 104 q 413 -10 542 -10 m 424 139 q 556 174 499 139 q 646 272 613 210 q 679 417 679 335 q 628 553 679 503 q 483 603 576 603 q 352 567 410 603 q 261 469 294 532 q 228 325 228 407 q 279 188 228 238 q 424 139 331 139 z "},"п":{"ha":946,"x_min":43,"x_max":903,"o":"m 43 0 l 192 742 l 903 742 l 754 0 l 581 0 l 706 635 l 738 594 l 292 594 l 342 635 l 217 0 l 43 0 z "},"р":{"ha":964,"x_min":-11,"x_max":908,"o":"m 492 -10 q 331 24 399 -10 q 228 126 263 58 q 196 293 193 193 q 246 535 199 432 q 378 694 293 638 q 582 750 464 750 q 747 712 674 750 q 865 601 821 674 q 908 425 908 528 q 877 251 908 331 q 789 114 846 172 q 656 23 732 56 q 492 -10 581 -10 m -11 -269 l 190 742 l 356 742 l 322 572 l 276 375 l 251 176 l 163 -269 l -11 -269 m 478 139 q 610 174 553 139 q 700 272 667 210 q 733 417 733 335 q 682 553 733 503 q 538 603 631 603 q 406 567 464 603 q 315 469 349 532 q 282 325 282 407 q 333 189 282 239 q 478 139 385 139 z "},"с":{"ha":824,"x_min":53,"x_max":817,"o":"m 417 -10 q 224 31 307 -10 q 97 145 142 72 q 53 317 53 218 q 110 540 53 442 q 267 694 167 638 q 497 750 367 750 q 691 706 610 750 q 817 576 772 663 l 668 500 q 597 578 643 553 q 483 603 550 603 q 353 567 411 603 q 261 469 294 532 q 228 325 228 407 q 279 189 228 239 q 425 139 331 139 q 539 164 486 139 q 628 242 592 189 l 756 156 q 614 34 704 78 q 417 -10 524 -10 z "},"т":{"ha":714,"x_min":54,"x_max":779,"o":"m 196 0 l 321 636 l 353 594 l 54 594 l 83 742 l 779 742 l 749 594 l 446 594 l 494 636 l 369 0 l 196 0 z "},"у":{"ha":821,"x_min":-125,"x_max":893,"o":"m 69 -279 q -40 -261 14 -279 q -125 -214 -93 -243 l -39 -87 q 15 -122 -15 -108 q 83 -135 44 -135 q 160 -112 126 -135 q 229 -33 194 -89 l 294 68 l 311 86 l 719 742 l 893 742 l 382 -65 q 283 -193 331 -146 q 185 -260 236 -240 q 69 -279 135 -279 m 260 -26 l 78 742 l 251 742 l 397 101 l 260 -26 z "},"ф":{"ha":1140,"x_min":46,"x_max":1092,"o":"m 482 -11 q 156 71 267 -10 q 46 310 46 151 q 116 543 46 444 q 316 696 186 642 q 622 750 446 750 l 661 750 q 982 669 872 749 q 1092 429 1092 589 q 1023 198 1092 297 q 828 44 954 99 q 531 -11 701 -11 l 482 -11 m 514 131 l 529 131 q 744 165 654 131 q 881 261 833 199 q 929 411 929 324 q 859 561 929 514 q 633 608 789 608 l 615 608 q 395 575 486 608 q 256 479 304 542 q 208 332 208 417 q 283 178 208 225 q 514 131 358 132 m 365 -269 l 625 1031 l 778 1031 l 518 -269 l 365 -269 z "},"х":{"ha":783,"x_min":-69,"x_max":843,"o":"m -69 0 l 347 429 l 328 339 l 101 742 l 282 742 l 446 444 l 365 446 l 649 742 l 843 742 l 444 328 l 458 424 l 699 0 l 515 0 l 344 310 l 424 310 l 131 0 l -69 0 z "},"ц":{"ha":967,"x_min":43,"x_max":892,"o":"m 43 0 l 192 742 l 364 742 l 246 147 l 600 147 l 718 742 l 892 742 l 744 0 l 43 0 m 660 -165 l 696 4 l 735 0 l 571 0 l 600 147 l 886 147 l 822 -165 l 660 -165 z "},"ч":{"ha":861,"x_min":53,"x_max":818,"o":"m 572 290 q 455 250 517 264 q 332 236 393 236 q 120 304 188 236 q 79 511 53 372 l 125 742 l 299 742 l 251 510 q 270 406 238 436 q 372 375 303 375 q 482 389 428 375 q 588 426 536 403 l 572 290 m 497 0 l 644 742 l 818 742 l 669 0 l 497 0 z "},"ш":{"ha":1326,"x_min":43,"x_max":1283,"o":"m 575 147 l 528 106 l 653 742 l 825 742 l 701 106 l 668 147 l 1035 147 l 986 106 l 1111 742 l 1283 742 l 1136 0 l 43 0 l 192 742 l 364 742 l 240 106 l 208 147 l 575 147 z "},"щ":{"ha":1358,"x_min":43,"x_max":1283,"o":"m 575 147 l 528 106 l 653 742 l 825 742 l 701 106 l 668 147 l 1035 147 l 986 106 l 1111 742 l 1283 742 l 1136 0 l 43 0 l 192 742 l 364 742 l 240 106 l 208 147 l 575 147 m 1050 -153 l 1090 43 l 1121 0 l 957 0 l 988 147 l 1274 147 l 1213 -153 l 1050 -153 z "}}}
